%TF.GenerationSoftware,KiCad,Pcbnew,5.1.6-c6e7f7d~87~ubuntu18.04.1*%
%TF.CreationDate,2020-08-19T11:44:15-04:00*%
%TF.ProjectId,atmegaXu4_breakout,61746d65-6761-4587-9534-5f627265616b,rev?*%
%TF.SameCoordinates,Original*%
%TF.FileFunction,Copper,L1,Top*%
%TF.FilePolarity,Positive*%
%FSLAX46Y46*%
G04 Gerber Fmt 4.6, Leading zero omitted, Abs format (unit mm)*
G04 Created by KiCad (PCBNEW 5.1.6-c6e7f7d~87~ubuntu18.04.1) date 2020-08-19 11:44:15*
%MOMM*%
%LPD*%
G01*
G04 APERTURE LIST*
%TA.AperFunction,ComponentPad*%
%ADD10R,1.000000X1.000000*%
%TD*%
%TA.AperFunction,SMDPad,CuDef*%
%ADD11C,0.100000*%
%TD*%
%TA.AperFunction,ComponentPad*%
%ADD12O,1.700000X1.700000*%
%TD*%
%TA.AperFunction,ComponentPad*%
%ADD13R,1.700000X1.700000*%
%TD*%
%TA.AperFunction,SMDPad,CuDef*%
%ADD14R,1.000000X1.000000*%
%TD*%
%TA.AperFunction,SMDPad,CuDef*%
%ADD15R,1.060000X0.650000*%
%TD*%
%TA.AperFunction,SMDPad,CuDef*%
%ADD16R,0.450000X0.600000*%
%TD*%
%TA.AperFunction,ComponentPad*%
%ADD17O,0.900000X2.000000*%
%TD*%
%TA.AperFunction,ComponentPad*%
%ADD18O,0.900000X1.700000*%
%TD*%
%TA.AperFunction,SMDPad,CuDef*%
%ADD19R,0.300000X1.160000*%
%TD*%
%TA.AperFunction,SMDPad,CuDef*%
%ADD20R,0.600000X1.160000*%
%TD*%
%TA.AperFunction,ViaPad*%
%ADD21C,0.800000*%
%TD*%
%TA.AperFunction,Conductor*%
%ADD22C,0.250000*%
%TD*%
%TA.AperFunction,Conductor*%
%ADD23C,0.350000*%
%TD*%
%TA.AperFunction,Conductor*%
%ADD24C,0.300000*%
%TD*%
%TA.AperFunction,Conductor*%
%ADD25C,0.254000*%
%TD*%
G04 APERTURE END LIST*
D10*
%TO.P,TP5,1*%
%TO.N,+3V3*%
X-3000000Y-8500000D03*
%TD*%
%TO.P,TP4,1*%
%TO.N,+5V*%
X0Y-8500000D03*
%TD*%
%TO.P,TP3,1*%
%TO.N,USB_VBUS*%
X4000000Y-5000000D03*
%TD*%
%TO.P,R6,2*%
%TO.N,+3V3*%
%TA.AperFunction,SMDPad,CuDef*%
G36*
G01*
X-5312375Y-19143674D02*
X-5556327Y-19387625D01*
G75*
G02*
X-5764923Y-19387625I-104298J104298D01*
G01*
X-5973519Y-19179029D01*
G75*
G02*
X-5973519Y-18970433I104298J104298D01*
G01*
X-5729567Y-18726481D01*
G75*
G02*
X-5520971Y-18726481I104298J-104298D01*
G01*
X-5312375Y-18935077D01*
G75*
G02*
X-5312375Y-19143673I-104298J-104298D01*
G01*
G37*
%TD.AperFunction*%
%TO.P,R6,1*%
%TO.N,~RESET*%
%TA.AperFunction,SMDPad,CuDef*%
G36*
G01*
X-4626481Y-19829568D02*
X-4870433Y-20073519D01*
G75*
G02*
X-5079029Y-20073519I-104298J104298D01*
G01*
X-5287625Y-19864923D01*
G75*
G02*
X-5287625Y-19656327I104298J104298D01*
G01*
X-5043673Y-19412375D01*
G75*
G02*
X-4835077Y-19412375I104298J-104298D01*
G01*
X-4626481Y-19620971D01*
G75*
G02*
X-4626481Y-19829567I-104298J-104298D01*
G01*
G37*
%TD.AperFunction*%
%TD*%
%TO.P,C5,2*%
%TO.N,+3V3*%
%TA.AperFunction,SMDPad,CuDef*%
G36*
G01*
X-4243674Y-20987625D02*
X-4487625Y-20743673D01*
G75*
G02*
X-4487625Y-20535077I104298J104298D01*
G01*
X-4279029Y-20326481D01*
G75*
G02*
X-4070433Y-20326481I104298J-104298D01*
G01*
X-3826481Y-20570433D01*
G75*
G02*
X-3826481Y-20779029I-104298J-104298D01*
G01*
X-4035077Y-20987625D01*
G75*
G02*
X-4243673Y-20987625I-104298J104298D01*
G01*
G37*
%TD.AperFunction*%
%TO.P,C5,1*%
%TO.N,GND*%
%TA.AperFunction,SMDPad,CuDef*%
G36*
G01*
X-4929568Y-21673519D02*
X-5173519Y-21429567D01*
G75*
G02*
X-5173519Y-21220971I104298J104298D01*
G01*
X-4964923Y-21012375D01*
G75*
G02*
X-4756327Y-21012375I104298J-104298D01*
G01*
X-4512375Y-21256327D01*
G75*
G02*
X-4512375Y-21464923I-104298J-104298D01*
G01*
X-4720971Y-21673519D01*
G75*
G02*
X-4929567Y-21673519I-104298J104298D01*
G01*
G37*
%TD.AperFunction*%
%TD*%
%TO.P,C4,2*%
%TO.N,+3V3*%
%TA.AperFunction,SMDPad,CuDef*%
G36*
G01*
X5212375Y-16856326D02*
X5456327Y-16612375D01*
G75*
G02*
X5664923Y-16612375I104298J-104298D01*
G01*
X5873519Y-16820971D01*
G75*
G02*
X5873519Y-17029567I-104298J-104298D01*
G01*
X5629567Y-17273519D01*
G75*
G02*
X5420971Y-17273519I-104298J104298D01*
G01*
X5212375Y-17064923D01*
G75*
G02*
X5212375Y-16856327I104298J104298D01*
G01*
G37*
%TD.AperFunction*%
%TO.P,C4,1*%
%TO.N,GND*%
%TA.AperFunction,SMDPad,CuDef*%
G36*
G01*
X4526481Y-16170432D02*
X4770433Y-15926481D01*
G75*
G02*
X4979029Y-15926481I104298J-104298D01*
G01*
X5187625Y-16135077D01*
G75*
G02*
X5187625Y-16343673I-104298J-104298D01*
G01*
X4943673Y-16587625D01*
G75*
G02*
X4735077Y-16587625I-104298J104298D01*
G01*
X4526481Y-16379029D01*
G75*
G02*
X4526481Y-16170433I104298J104298D01*
G01*
G37*
%TD.AperFunction*%
%TD*%
%TO.P,U1,1*%
%TO.N,PE6*%
%TA.AperFunction,SMDPad,CuDef*%
G36*
G01*
X-1016466Y-13536388D02*
X-928078Y-13448000D01*
G75*
G02*
X-839690Y-13448000I44194J-44194D01*
G01*
X-167938Y-14119752D01*
G75*
G02*
X-167938Y-14208140I-44194J-44194D01*
G01*
X-256326Y-14296528D01*
G75*
G02*
X-344714Y-14296528I-44194J44194D01*
G01*
X-1016466Y-13624776D01*
G75*
G02*
X-1016466Y-13536388I44194J44194D01*
G01*
G37*
%TD.AperFunction*%
%TO.P,U1,2*%
%TO.N,USB_VBUS*%
%TA.AperFunction,SMDPad,CuDef*%
G36*
G01*
X-1370019Y-13889942D02*
X-1281631Y-13801554D01*
G75*
G02*
X-1193243Y-13801554I44194J-44194D01*
G01*
X-521491Y-14473306D01*
G75*
G02*
X-521491Y-14561694I-44194J-44194D01*
G01*
X-609879Y-14650082D01*
G75*
G02*
X-698267Y-14650082I-44194J44194D01*
G01*
X-1370019Y-13978330D01*
G75*
G02*
X-1370019Y-13889942I44194J44194D01*
G01*
G37*
%TD.AperFunction*%
%TO.P,U1,3*%
%TO.N,USB_D-*%
%TA.AperFunction,SMDPad,CuDef*%
G36*
G01*
X-1723573Y-14243495D02*
X-1635185Y-14155107D01*
G75*
G02*
X-1546797Y-14155107I44194J-44194D01*
G01*
X-875045Y-14826859D01*
G75*
G02*
X-875045Y-14915247I-44194J-44194D01*
G01*
X-963433Y-15003635D01*
G75*
G02*
X-1051821Y-15003635I-44194J44194D01*
G01*
X-1723573Y-14331883D01*
G75*
G02*
X-1723573Y-14243495I44194J44194D01*
G01*
G37*
%TD.AperFunction*%
%TO.P,U1,4*%
%TO.N,USB_D+*%
%TA.AperFunction,SMDPad,CuDef*%
G36*
G01*
X-2077126Y-14597048D02*
X-1988738Y-14508660D01*
G75*
G02*
X-1900350Y-14508660I44194J-44194D01*
G01*
X-1228598Y-15180412D01*
G75*
G02*
X-1228598Y-15268800I-44194J-44194D01*
G01*
X-1316986Y-15357188D01*
G75*
G02*
X-1405374Y-15357188I-44194J44194D01*
G01*
X-2077126Y-14685436D01*
G75*
G02*
X-2077126Y-14597048I44194J44194D01*
G01*
G37*
%TD.AperFunction*%
%TO.P,U1,5*%
%TO.N,GND*%
%TA.AperFunction,SMDPad,CuDef*%
G36*
G01*
X-2430679Y-14950602D02*
X-2342291Y-14862214D01*
G75*
G02*
X-2253903Y-14862214I44194J-44194D01*
G01*
X-1582151Y-15533966D01*
G75*
G02*
X-1582151Y-15622354I-44194J-44194D01*
G01*
X-1670539Y-15710742D01*
G75*
G02*
X-1758927Y-15710742I-44194J44194D01*
G01*
X-2430679Y-15038990D01*
G75*
G02*
X-2430679Y-14950602I44194J44194D01*
G01*
G37*
%TD.AperFunction*%
%TO.P,U1,6*%
%TO.N,Net-(C2-Pad2)*%
%TA.AperFunction,SMDPad,CuDef*%
G36*
G01*
X-2784233Y-15304155D02*
X-2695845Y-15215767D01*
G75*
G02*
X-2607457Y-15215767I44194J-44194D01*
G01*
X-1935705Y-15887519D01*
G75*
G02*
X-1935705Y-15975907I-44194J-44194D01*
G01*
X-2024093Y-16064295D01*
G75*
G02*
X-2112481Y-16064295I-44194J44194D01*
G01*
X-2784233Y-15392543D01*
G75*
G02*
X-2784233Y-15304155I44194J44194D01*
G01*
G37*
%TD.AperFunction*%
%TO.P,U1,7*%
%TO.N,USB_VBUS*%
%TA.AperFunction,SMDPad,CuDef*%
G36*
G01*
X-3137786Y-15657709D02*
X-3049398Y-15569321D01*
G75*
G02*
X-2961010Y-15569321I44194J-44194D01*
G01*
X-2289258Y-16241073D01*
G75*
G02*
X-2289258Y-16329461I-44194J-44194D01*
G01*
X-2377646Y-16417849D01*
G75*
G02*
X-2466034Y-16417849I-44194J44194D01*
G01*
X-3137786Y-15746097D01*
G75*
G02*
X-3137786Y-15657709I44194J44194D01*
G01*
G37*
%TD.AperFunction*%
%TO.P,U1,8*%
%TO.N,PB0*%
%TA.AperFunction,SMDPad,CuDef*%
G36*
G01*
X-3491340Y-16011262D02*
X-3402952Y-15922874D01*
G75*
G02*
X-3314564Y-15922874I44194J-44194D01*
G01*
X-2642812Y-16594626D01*
G75*
G02*
X-2642812Y-16683014I-44194J-44194D01*
G01*
X-2731200Y-16771402D01*
G75*
G02*
X-2819588Y-16771402I-44194J44194D01*
G01*
X-3491340Y-16099650D01*
G75*
G02*
X-3491340Y-16011262I44194J44194D01*
G01*
G37*
%TD.AperFunction*%
%TO.P,U1,9*%
%TO.N,SPI_SCL*%
%TA.AperFunction,SMDPad,CuDef*%
G36*
G01*
X-3844893Y-16364815D02*
X-3756505Y-16276427D01*
G75*
G02*
X-3668117Y-16276427I44194J-44194D01*
G01*
X-2996365Y-16948179D01*
G75*
G02*
X-2996365Y-17036567I-44194J-44194D01*
G01*
X-3084753Y-17124955D01*
G75*
G02*
X-3173141Y-17124955I-44194J44194D01*
G01*
X-3844893Y-16453203D01*
G75*
G02*
X-3844893Y-16364815I44194J44194D01*
G01*
G37*
%TD.AperFunction*%
%TO.P,U1,10*%
%TO.N,SPI_MOSI*%
%TA.AperFunction,SMDPad,CuDef*%
G36*
G01*
X-4198446Y-16718369D02*
X-4110058Y-16629981D01*
G75*
G02*
X-4021670Y-16629981I44194J-44194D01*
G01*
X-3349918Y-17301733D01*
G75*
G02*
X-3349918Y-17390121I-44194J-44194D01*
G01*
X-3438306Y-17478509D01*
G75*
G02*
X-3526694Y-17478509I-44194J44194D01*
G01*
X-4198446Y-16806757D01*
G75*
G02*
X-4198446Y-16718369I44194J44194D01*
G01*
G37*
%TD.AperFunction*%
%TO.P,U1,11*%
%TO.N,SPI_MISO*%
%TA.AperFunction,SMDPad,CuDef*%
G36*
G01*
X-4552000Y-17071922D02*
X-4463612Y-16983534D01*
G75*
G02*
X-4375224Y-16983534I44194J-44194D01*
G01*
X-3703472Y-17655286D01*
G75*
G02*
X-3703472Y-17743674I-44194J-44194D01*
G01*
X-3791860Y-17832062D01*
G75*
G02*
X-3880248Y-17832062I-44194J44194D01*
G01*
X-4552000Y-17160310D01*
G75*
G02*
X-4552000Y-17071922I44194J44194D01*
G01*
G37*
%TD.AperFunction*%
%TO.P,U1,12*%
%TO.N,PB7*%
%TA.AperFunction,SMDPad,CuDef*%
G36*
G01*
X-4552000Y-18839689D02*
X-3880248Y-18167938D01*
G75*
G02*
X-3791860Y-18167938I44194J-44194D01*
G01*
X-3703472Y-18256326D01*
G75*
G02*
X-3703472Y-18344714I-44194J-44194D01*
G01*
X-4375224Y-19016466D01*
G75*
G02*
X-4463612Y-19016466I-44194J44194D01*
G01*
X-4552000Y-18928078D01*
G75*
G02*
X-4552000Y-18839690I44194J44194D01*
G01*
G37*
%TD.AperFunction*%
%TO.P,U1,13*%
%TO.N,~RESET*%
%TA.AperFunction,SMDPad,CuDef*%
G36*
G01*
X-4198446Y-19193242D02*
X-3526694Y-18521491D01*
G75*
G02*
X-3438306Y-18521491I44194J-44194D01*
G01*
X-3349918Y-18609879D01*
G75*
G02*
X-3349918Y-18698267I-44194J-44194D01*
G01*
X-4021670Y-19370019D01*
G75*
G02*
X-4110058Y-19370019I-44194J44194D01*
G01*
X-4198446Y-19281631D01*
G75*
G02*
X-4198446Y-19193243I44194J44194D01*
G01*
G37*
%TD.AperFunction*%
%TO.P,U1,14*%
%TO.N,+3V3*%
%TA.AperFunction,SMDPad,CuDef*%
G36*
G01*
X-3844893Y-19546796D02*
X-3173141Y-18875045D01*
G75*
G02*
X-3084753Y-18875045I44194J-44194D01*
G01*
X-2996365Y-18963433D01*
G75*
G02*
X-2996365Y-19051821I-44194J-44194D01*
G01*
X-3668117Y-19723573D01*
G75*
G02*
X-3756505Y-19723573I-44194J44194D01*
G01*
X-3844893Y-19635185D01*
G75*
G02*
X-3844893Y-19546797I44194J44194D01*
G01*
G37*
%TD.AperFunction*%
%TO.P,U1,15*%
%TO.N,GND*%
%TA.AperFunction,SMDPad,CuDef*%
G36*
G01*
X-3491340Y-19900349D02*
X-2819588Y-19228598D01*
G75*
G02*
X-2731200Y-19228598I44194J-44194D01*
G01*
X-2642812Y-19316986D01*
G75*
G02*
X-2642812Y-19405374I-44194J-44194D01*
G01*
X-3314564Y-20077126D01*
G75*
G02*
X-3402952Y-20077126I-44194J44194D01*
G01*
X-3491340Y-19988738D01*
G75*
G02*
X-3491340Y-19900350I44194J44194D01*
G01*
G37*
%TD.AperFunction*%
%TO.P,U1,16*%
%TO.N,XTAL2*%
%TA.AperFunction,SMDPad,CuDef*%
G36*
G01*
X-3137786Y-20253902D02*
X-2466034Y-19582151D01*
G75*
G02*
X-2377646Y-19582151I44194J-44194D01*
G01*
X-2289258Y-19670539D01*
G75*
G02*
X-2289258Y-19758927I-44194J-44194D01*
G01*
X-2961010Y-20430679D01*
G75*
G02*
X-3049398Y-20430679I-44194J44194D01*
G01*
X-3137786Y-20342291D01*
G75*
G02*
X-3137786Y-20253903I44194J44194D01*
G01*
G37*
%TD.AperFunction*%
%TO.P,U1,17*%
%TO.N,XTAL1*%
%TA.AperFunction,SMDPad,CuDef*%
G36*
G01*
X-2784233Y-20607456D02*
X-2112481Y-19935705D01*
G75*
G02*
X-2024093Y-19935705I44194J-44194D01*
G01*
X-1935705Y-20024093D01*
G75*
G02*
X-1935705Y-20112481I-44194J-44194D01*
G01*
X-2607457Y-20784233D01*
G75*
G02*
X-2695845Y-20784233I-44194J44194D01*
G01*
X-2784233Y-20695845D01*
G75*
G02*
X-2784233Y-20607457I44194J44194D01*
G01*
G37*
%TD.AperFunction*%
%TO.P,U1,18*%
%TO.N,PD0*%
%TA.AperFunction,SMDPad,CuDef*%
G36*
G01*
X-2430679Y-20961009D02*
X-1758927Y-20289258D01*
G75*
G02*
X-1670539Y-20289258I44194J-44194D01*
G01*
X-1582151Y-20377646D01*
G75*
G02*
X-1582151Y-20466034I-44194J-44194D01*
G01*
X-2253903Y-21137786D01*
G75*
G02*
X-2342291Y-21137786I-44194J44194D01*
G01*
X-2430679Y-21049398D01*
G75*
G02*
X-2430679Y-20961010I44194J44194D01*
G01*
G37*
%TD.AperFunction*%
%TO.P,U1,19*%
%TO.N,PD1*%
%TA.AperFunction,SMDPad,CuDef*%
G36*
G01*
X-2077126Y-21314563D02*
X-1405374Y-20642812D01*
G75*
G02*
X-1316986Y-20642812I44194J-44194D01*
G01*
X-1228598Y-20731200D01*
G75*
G02*
X-1228598Y-20819588I-44194J-44194D01*
G01*
X-1900350Y-21491340D01*
G75*
G02*
X-1988738Y-21491340I-44194J44194D01*
G01*
X-2077126Y-21402952D01*
G75*
G02*
X-2077126Y-21314564I44194J44194D01*
G01*
G37*
%TD.AperFunction*%
%TO.P,U1,20*%
%TO.N,PD2*%
%TA.AperFunction,SMDPad,CuDef*%
G36*
G01*
X-1723573Y-21668116D02*
X-1051821Y-20996365D01*
G75*
G02*
X-963433Y-20996365I44194J-44194D01*
G01*
X-875045Y-21084753D01*
G75*
G02*
X-875045Y-21173141I-44194J-44194D01*
G01*
X-1546797Y-21844893D01*
G75*
G02*
X-1635185Y-21844893I-44194J44194D01*
G01*
X-1723573Y-21756505D01*
G75*
G02*
X-1723573Y-21668117I44194J44194D01*
G01*
G37*
%TD.AperFunction*%
%TO.P,U1,21*%
%TO.N,PD3*%
%TA.AperFunction,SMDPad,CuDef*%
G36*
G01*
X-1370019Y-22021669D02*
X-698267Y-21349918D01*
G75*
G02*
X-609879Y-21349918I44194J-44194D01*
G01*
X-521491Y-21438306D01*
G75*
G02*
X-521491Y-21526694I-44194J-44194D01*
G01*
X-1193243Y-22198446D01*
G75*
G02*
X-1281631Y-22198446I-44194J44194D01*
G01*
X-1370019Y-22110058D01*
G75*
G02*
X-1370019Y-22021670I44194J44194D01*
G01*
G37*
%TD.AperFunction*%
%TO.P,U1,22*%
%TO.N,PD5*%
%TA.AperFunction,SMDPad,CuDef*%
G36*
G01*
X-1016466Y-22375223D02*
X-344714Y-21703472D01*
G75*
G02*
X-256326Y-21703472I44194J-44194D01*
G01*
X-167938Y-21791860D01*
G75*
G02*
X-167938Y-21880248I-44194J-44194D01*
G01*
X-839690Y-22552000D01*
G75*
G02*
X-928078Y-22552000I-44194J44194D01*
G01*
X-1016466Y-22463612D01*
G75*
G02*
X-1016466Y-22375224I44194J44194D01*
G01*
G37*
%TD.AperFunction*%
%TO.P,U1,23*%
%TO.N,GND*%
%TA.AperFunction,SMDPad,CuDef*%
G36*
G01*
X167938Y-21791860D02*
X256326Y-21703472D01*
G75*
G02*
X344714Y-21703472I44194J-44194D01*
G01*
X1016466Y-22375224D01*
G75*
G02*
X1016466Y-22463612I-44194J-44194D01*
G01*
X928078Y-22552000D01*
G75*
G02*
X839690Y-22552000I-44194J44194D01*
G01*
X167938Y-21880248D01*
G75*
G02*
X167938Y-21791860I44194J44194D01*
G01*
G37*
%TD.AperFunction*%
%TO.P,U1,24*%
%TO.N,+3V3*%
%TA.AperFunction,SMDPad,CuDef*%
G36*
G01*
X521491Y-21438306D02*
X609879Y-21349918D01*
G75*
G02*
X698267Y-21349918I44194J-44194D01*
G01*
X1370019Y-22021670D01*
G75*
G02*
X1370019Y-22110058I-44194J-44194D01*
G01*
X1281631Y-22198446D01*
G75*
G02*
X1193243Y-22198446I-44194J44194D01*
G01*
X521491Y-21526694D01*
G75*
G02*
X521491Y-21438306I44194J44194D01*
G01*
G37*
%TD.AperFunction*%
%TO.P,U1,25*%
%TO.N,PD4*%
%TA.AperFunction,SMDPad,CuDef*%
G36*
G01*
X875045Y-21084753D02*
X963433Y-20996365D01*
G75*
G02*
X1051821Y-20996365I44194J-44194D01*
G01*
X1723573Y-21668117D01*
G75*
G02*
X1723573Y-21756505I-44194J-44194D01*
G01*
X1635185Y-21844893D01*
G75*
G02*
X1546797Y-21844893I-44194J44194D01*
G01*
X875045Y-21173141D01*
G75*
G02*
X875045Y-21084753I44194J44194D01*
G01*
G37*
%TD.AperFunction*%
%TO.P,U1,26*%
%TO.N,PD6*%
%TA.AperFunction,SMDPad,CuDef*%
G36*
G01*
X1228598Y-20731200D02*
X1316986Y-20642812D01*
G75*
G02*
X1405374Y-20642812I44194J-44194D01*
G01*
X2077126Y-21314564D01*
G75*
G02*
X2077126Y-21402952I-44194J-44194D01*
G01*
X1988738Y-21491340D01*
G75*
G02*
X1900350Y-21491340I-44194J44194D01*
G01*
X1228598Y-20819588D01*
G75*
G02*
X1228598Y-20731200I44194J44194D01*
G01*
G37*
%TD.AperFunction*%
%TO.P,U1,27*%
%TO.N,PD7*%
%TA.AperFunction,SMDPad,CuDef*%
G36*
G01*
X1582151Y-20377646D02*
X1670539Y-20289258D01*
G75*
G02*
X1758927Y-20289258I44194J-44194D01*
G01*
X2430679Y-20961010D01*
G75*
G02*
X2430679Y-21049398I-44194J-44194D01*
G01*
X2342291Y-21137786D01*
G75*
G02*
X2253903Y-21137786I-44194J44194D01*
G01*
X1582151Y-20466034D01*
G75*
G02*
X1582151Y-20377646I44194J44194D01*
G01*
G37*
%TD.AperFunction*%
%TO.P,U1,28*%
%TO.N,PB4*%
%TA.AperFunction,SMDPad,CuDef*%
G36*
G01*
X1935705Y-20024093D02*
X2024093Y-19935705D01*
G75*
G02*
X2112481Y-19935705I44194J-44194D01*
G01*
X2784233Y-20607457D01*
G75*
G02*
X2784233Y-20695845I-44194J-44194D01*
G01*
X2695845Y-20784233D01*
G75*
G02*
X2607457Y-20784233I-44194J44194D01*
G01*
X1935705Y-20112481D01*
G75*
G02*
X1935705Y-20024093I44194J44194D01*
G01*
G37*
%TD.AperFunction*%
%TO.P,U1,29*%
%TO.N,PB5*%
%TA.AperFunction,SMDPad,CuDef*%
G36*
G01*
X2289258Y-19670539D02*
X2377646Y-19582151D01*
G75*
G02*
X2466034Y-19582151I44194J-44194D01*
G01*
X3137786Y-20253903D01*
G75*
G02*
X3137786Y-20342291I-44194J-44194D01*
G01*
X3049398Y-20430679D01*
G75*
G02*
X2961010Y-20430679I-44194J44194D01*
G01*
X2289258Y-19758927D01*
G75*
G02*
X2289258Y-19670539I44194J44194D01*
G01*
G37*
%TD.AperFunction*%
%TO.P,U1,30*%
%TO.N,PB6*%
%TA.AperFunction,SMDPad,CuDef*%
G36*
G01*
X2642812Y-19316986D02*
X2731200Y-19228598D01*
G75*
G02*
X2819588Y-19228598I44194J-44194D01*
G01*
X3491340Y-19900350D01*
G75*
G02*
X3491340Y-19988738I-44194J-44194D01*
G01*
X3402952Y-20077126D01*
G75*
G02*
X3314564Y-20077126I-44194J44194D01*
G01*
X2642812Y-19405374D01*
G75*
G02*
X2642812Y-19316986I44194J44194D01*
G01*
G37*
%TD.AperFunction*%
%TO.P,U1,31*%
%TO.N,PC6*%
%TA.AperFunction,SMDPad,CuDef*%
G36*
G01*
X2996365Y-18963433D02*
X3084753Y-18875045D01*
G75*
G02*
X3173141Y-18875045I44194J-44194D01*
G01*
X3844893Y-19546797D01*
G75*
G02*
X3844893Y-19635185I-44194J-44194D01*
G01*
X3756505Y-19723573D01*
G75*
G02*
X3668117Y-19723573I-44194J44194D01*
G01*
X2996365Y-19051821D01*
G75*
G02*
X2996365Y-18963433I44194J44194D01*
G01*
G37*
%TD.AperFunction*%
%TO.P,U1,32*%
%TO.N,PC7*%
%TA.AperFunction,SMDPad,CuDef*%
G36*
G01*
X3349918Y-18609879D02*
X3438306Y-18521491D01*
G75*
G02*
X3526694Y-18521491I44194J-44194D01*
G01*
X4198446Y-19193243D01*
G75*
G02*
X4198446Y-19281631I-44194J-44194D01*
G01*
X4110058Y-19370019D01*
G75*
G02*
X4021670Y-19370019I-44194J44194D01*
G01*
X3349918Y-18698267D01*
G75*
G02*
X3349918Y-18609879I44194J44194D01*
G01*
G37*
%TD.AperFunction*%
%TO.P,U1,33*%
%TO.N,PE2*%
%TA.AperFunction,SMDPad,CuDef*%
G36*
G01*
X3703472Y-18256326D02*
X3791860Y-18167938D01*
G75*
G02*
X3880248Y-18167938I44194J-44194D01*
G01*
X4552000Y-18839690D01*
G75*
G02*
X4552000Y-18928078I-44194J-44194D01*
G01*
X4463612Y-19016466D01*
G75*
G02*
X4375224Y-19016466I-44194J44194D01*
G01*
X3703472Y-18344714D01*
G75*
G02*
X3703472Y-18256326I44194J44194D01*
G01*
G37*
%TD.AperFunction*%
%TO.P,U1,34*%
%TO.N,+3V3*%
%TA.AperFunction,SMDPad,CuDef*%
G36*
G01*
X3703472Y-17655285D02*
X4375224Y-16983534D01*
G75*
G02*
X4463612Y-16983534I44194J-44194D01*
G01*
X4552000Y-17071922D01*
G75*
G02*
X4552000Y-17160310I-44194J-44194D01*
G01*
X3880248Y-17832062D01*
G75*
G02*
X3791860Y-17832062I-44194J44194D01*
G01*
X3703472Y-17743674D01*
G75*
G02*
X3703472Y-17655286I44194J44194D01*
G01*
G37*
%TD.AperFunction*%
%TO.P,U1,35*%
%TO.N,GND*%
%TA.AperFunction,SMDPad,CuDef*%
G36*
G01*
X3349918Y-17301732D02*
X4021670Y-16629981D01*
G75*
G02*
X4110058Y-16629981I44194J-44194D01*
G01*
X4198446Y-16718369D01*
G75*
G02*
X4198446Y-16806757I-44194J-44194D01*
G01*
X3526694Y-17478509D01*
G75*
G02*
X3438306Y-17478509I-44194J44194D01*
G01*
X3349918Y-17390121D01*
G75*
G02*
X3349918Y-17301733I44194J44194D01*
G01*
G37*
%TD.AperFunction*%
%TO.P,U1,36*%
%TO.N,PF7*%
%TA.AperFunction,SMDPad,CuDef*%
G36*
G01*
X2996365Y-16948178D02*
X3668117Y-16276427D01*
G75*
G02*
X3756505Y-16276427I44194J-44194D01*
G01*
X3844893Y-16364815D01*
G75*
G02*
X3844893Y-16453203I-44194J-44194D01*
G01*
X3173141Y-17124955D01*
G75*
G02*
X3084753Y-17124955I-44194J44194D01*
G01*
X2996365Y-17036567D01*
G75*
G02*
X2996365Y-16948179I44194J44194D01*
G01*
G37*
%TD.AperFunction*%
%TO.P,U1,37*%
%TO.N,PF6*%
%TA.AperFunction,SMDPad,CuDef*%
G36*
G01*
X2642812Y-16594625D02*
X3314564Y-15922874D01*
G75*
G02*
X3402952Y-15922874I44194J-44194D01*
G01*
X3491340Y-16011262D01*
G75*
G02*
X3491340Y-16099650I-44194J-44194D01*
G01*
X2819588Y-16771402D01*
G75*
G02*
X2731200Y-16771402I-44194J44194D01*
G01*
X2642812Y-16683014D01*
G75*
G02*
X2642812Y-16594626I44194J44194D01*
G01*
G37*
%TD.AperFunction*%
%TO.P,U1,38*%
%TO.N,PF5*%
%TA.AperFunction,SMDPad,CuDef*%
G36*
G01*
X2289258Y-16241072D02*
X2961010Y-15569321D01*
G75*
G02*
X3049398Y-15569321I44194J-44194D01*
G01*
X3137786Y-15657709D01*
G75*
G02*
X3137786Y-15746097I-44194J-44194D01*
G01*
X2466034Y-16417849D01*
G75*
G02*
X2377646Y-16417849I-44194J44194D01*
G01*
X2289258Y-16329461D01*
G75*
G02*
X2289258Y-16241073I44194J44194D01*
G01*
G37*
%TD.AperFunction*%
%TO.P,U1,39*%
%TO.N,PF4*%
%TA.AperFunction,SMDPad,CuDef*%
G36*
G01*
X1935705Y-15887518D02*
X2607457Y-15215767D01*
G75*
G02*
X2695845Y-15215767I44194J-44194D01*
G01*
X2784233Y-15304155D01*
G75*
G02*
X2784233Y-15392543I-44194J-44194D01*
G01*
X2112481Y-16064295D01*
G75*
G02*
X2024093Y-16064295I-44194J44194D01*
G01*
X1935705Y-15975907D01*
G75*
G02*
X1935705Y-15887519I44194J44194D01*
G01*
G37*
%TD.AperFunction*%
%TO.P,U1,40*%
%TO.N,PF1*%
%TA.AperFunction,SMDPad,CuDef*%
G36*
G01*
X1582151Y-15533965D02*
X2253903Y-14862214D01*
G75*
G02*
X2342291Y-14862214I44194J-44194D01*
G01*
X2430679Y-14950602D01*
G75*
G02*
X2430679Y-15038990I-44194J-44194D01*
G01*
X1758927Y-15710742D01*
G75*
G02*
X1670539Y-15710742I-44194J44194D01*
G01*
X1582151Y-15622354D01*
G75*
G02*
X1582151Y-15533966I44194J44194D01*
G01*
G37*
%TD.AperFunction*%
%TO.P,U1,41*%
%TO.N,PF0*%
%TA.AperFunction,SMDPad,CuDef*%
G36*
G01*
X1228598Y-15180411D02*
X1900350Y-14508660D01*
G75*
G02*
X1988738Y-14508660I44194J-44194D01*
G01*
X2077126Y-14597048D01*
G75*
G02*
X2077126Y-14685436I-44194J-44194D01*
G01*
X1405374Y-15357188D01*
G75*
G02*
X1316986Y-15357188I-44194J44194D01*
G01*
X1228598Y-15268800D01*
G75*
G02*
X1228598Y-15180412I44194J44194D01*
G01*
G37*
%TD.AperFunction*%
%TO.P,U1,42*%
%TO.N,+3V3*%
%TA.AperFunction,SMDPad,CuDef*%
G36*
G01*
X875045Y-14826858D02*
X1546797Y-14155107D01*
G75*
G02*
X1635185Y-14155107I44194J-44194D01*
G01*
X1723573Y-14243495D01*
G75*
G02*
X1723573Y-14331883I-44194J-44194D01*
G01*
X1051821Y-15003635D01*
G75*
G02*
X963433Y-15003635I-44194J44194D01*
G01*
X875045Y-14915247D01*
G75*
G02*
X875045Y-14826859I44194J44194D01*
G01*
G37*
%TD.AperFunction*%
%TO.P,U1,43*%
%TO.N,GND*%
%TA.AperFunction,SMDPad,CuDef*%
G36*
G01*
X521491Y-14473305D02*
X1193243Y-13801554D01*
G75*
G02*
X1281631Y-13801554I44194J-44194D01*
G01*
X1370019Y-13889942D01*
G75*
G02*
X1370019Y-13978330I-44194J-44194D01*
G01*
X698267Y-14650082D01*
G75*
G02*
X609879Y-14650082I-44194J44194D01*
G01*
X521491Y-14561694D01*
G75*
G02*
X521491Y-14473306I44194J44194D01*
G01*
G37*
%TD.AperFunction*%
%TO.P,U1,44*%
%TO.N,+3V3*%
%TA.AperFunction,SMDPad,CuDef*%
G36*
G01*
X167938Y-14119751D02*
X839690Y-13448000D01*
G75*
G02*
X928078Y-13448000I44194J-44194D01*
G01*
X1016466Y-13536388D01*
G75*
G02*
X1016466Y-13624776I-44194J-44194D01*
G01*
X344714Y-14296528D01*
G75*
G02*
X256326Y-14296528I-44194J44194D01*
G01*
X167938Y-14208140D01*
G75*
G02*
X167938Y-14119752I44194J44194D01*
G01*
G37*
%TD.AperFunction*%
%TA.AperFunction,SMDPad,CuDef*%
D11*
%TO.P,U1,45*%
%TO.N,GND*%
G36*
X-3676955Y-18000000D02*
G01*
X0Y-14323045D01*
X3676955Y-18000000D01*
X0Y-21676955D01*
X-3676955Y-18000000D01*
G37*
%TD.AperFunction*%
%TD*%
D12*
%TO.P,J4,6*%
%TO.N,GND*%
X2480000Y-29660000D03*
%TO.P,J4,5*%
%TO.N,~RESET*%
X2480000Y-32200000D03*
%TO.P,J4,4*%
%TO.N,SPI_MOSI*%
X-60000Y-29660000D03*
%TO.P,J4,3*%
%TO.N,SPI_SCL*%
X-60000Y-32200000D03*
%TO.P,J4,2*%
%TO.N,+3V3*%
X-2600000Y-29660000D03*
D13*
%TO.P,J4,1*%
%TO.N,SPI_MISO*%
X-2600000Y-32200000D03*
%TD*%
D12*
%TO.P,J3,18*%
%TO.N,GND*%
X7620000Y-43180000D03*
%TO.P,J3,17*%
%TO.N,+3V3*%
X7620000Y-40640000D03*
%TO.P,J3,16*%
%TO.N,PD4*%
X7620000Y-38100000D03*
%TO.P,J3,15*%
%TO.N,PD6*%
X7620000Y-35560000D03*
%TO.P,J3,14*%
%TO.N,PD7*%
X7620000Y-33020000D03*
%TO.P,J3,13*%
%TO.N,PB4*%
X7620000Y-30480000D03*
%TO.P,J3,12*%
%TO.N,PB5*%
X7620000Y-27940000D03*
%TO.P,J3,11*%
%TO.N,PB6*%
X7620000Y-25400000D03*
%TO.P,J3,10*%
%TO.N,PC6*%
X7620000Y-22860000D03*
%TO.P,J3,9*%
%TO.N,PC7*%
X7620000Y-20320000D03*
%TO.P,J3,8*%
%TO.N,PE2*%
X7620000Y-17780000D03*
%TO.P,J3,7*%
%TO.N,PF7*%
X7620000Y-15240000D03*
%TO.P,J3,6*%
%TO.N,PF6*%
X7620000Y-12700000D03*
%TO.P,J3,5*%
%TO.N,PF5*%
X7620000Y-10160000D03*
%TO.P,J3,4*%
%TO.N,PF4*%
X7620000Y-7620000D03*
%TO.P,J3,3*%
%TO.N,PF1*%
X7620000Y-5080000D03*
%TO.P,J3,2*%
%TO.N,PF0*%
X7620000Y-2540000D03*
D13*
%TO.P,J3,1*%
%TO.N,+5V*%
X7620000Y0D03*
%TD*%
D12*
%TO.P,J2,18*%
%TO.N,GND*%
X-7620000Y-43180000D03*
%TO.P,J2,17*%
%TO.N,+3V3*%
X-7620000Y-40640000D03*
%TO.P,J2,16*%
%TO.N,PD5*%
X-7620000Y-38100000D03*
%TO.P,J2,15*%
%TO.N,PD3*%
X-7620000Y-35560000D03*
%TO.P,J2,14*%
%TO.N,PD2*%
X-7620000Y-33020000D03*
%TO.P,J2,13*%
%TO.N,PD1*%
X-7620000Y-30480000D03*
%TO.P,J2,12*%
%TO.N,PD0*%
X-7620000Y-27940000D03*
%TO.P,J2,11*%
%TO.N,XTAL1*%
X-7620000Y-25400000D03*
%TO.P,J2,10*%
%TO.N,XTAL2*%
X-7620000Y-22860000D03*
%TO.P,J2,9*%
%TO.N,~RESET*%
X-7620000Y-20320000D03*
%TO.P,J2,8*%
%TO.N,PB7*%
X-7620000Y-17780000D03*
%TO.P,J2,7*%
%TO.N,SPI_MISO*%
X-7620000Y-15240000D03*
%TO.P,J2,6*%
%TO.N,SPI_MOSI*%
X-7620000Y-12700000D03*
%TO.P,J2,5*%
%TO.N,SPI_SCL*%
X-7620000Y-10160000D03*
%TO.P,J2,4*%
%TO.N,PB0*%
X-7620000Y-7620000D03*
%TO.P,J2,3*%
%TO.N,PE6*%
X-7620000Y-5080000D03*
%TO.P,J2,2*%
%TO.N,GND*%
X-7620000Y-2540000D03*
D13*
%TO.P,J2,1*%
%TO.N,+3V3*%
X-7620000Y0D03*
%TD*%
%TO.P,R5,2*%
%TO.N,Net-(D4-Pad1)*%
%TA.AperFunction,SMDPad,CuDef*%
G36*
G01*
X-190000Y-26027500D02*
X-190000Y-26372500D01*
G75*
G02*
X-337500Y-26520000I-147500J0D01*
G01*
X-632500Y-26520000D01*
G75*
G02*
X-780000Y-26372500I0J147500D01*
G01*
X-780000Y-26027500D01*
G75*
G02*
X-632500Y-25880000I147500J0D01*
G01*
X-337500Y-25880000D01*
G75*
G02*
X-190000Y-26027500I0J-147500D01*
G01*
G37*
%TD.AperFunction*%
%TO.P,R5,1*%
%TO.N,GND*%
%TA.AperFunction,SMDPad,CuDef*%
G36*
G01*
X780000Y-26027500D02*
X780000Y-26372500D01*
G75*
G02*
X632500Y-26520000I-147500J0D01*
G01*
X337500Y-26520000D01*
G75*
G02*
X190000Y-26372500I0J147500D01*
G01*
X190000Y-26027500D01*
G75*
G02*
X337500Y-25880000I147500J0D01*
G01*
X632500Y-25880000D01*
G75*
G02*
X780000Y-26027500I0J-147500D01*
G01*
G37*
%TD.AperFunction*%
%TD*%
%TO.P,R4,2*%
%TO.N,Net-(D3-Pad1)*%
%TA.AperFunction,SMDPad,CuDef*%
G36*
G01*
X-5577500Y2690000D02*
X-5922500Y2690000D01*
G75*
G02*
X-6070000Y2837500I0J147500D01*
G01*
X-6070000Y3132500D01*
G75*
G02*
X-5922500Y3280000I147500J0D01*
G01*
X-5577500Y3280000D01*
G75*
G02*
X-5430000Y3132500I0J-147500D01*
G01*
X-5430000Y2837500D01*
G75*
G02*
X-5577500Y2690000I-147500J0D01*
G01*
G37*
%TD.AperFunction*%
%TO.P,R4,1*%
%TO.N,GND*%
%TA.AperFunction,SMDPad,CuDef*%
G36*
G01*
X-5577500Y1720000D02*
X-5922500Y1720000D01*
G75*
G02*
X-6070000Y1867500I0J147500D01*
G01*
X-6070000Y2162500D01*
G75*
G02*
X-5922500Y2310000I147500J0D01*
G01*
X-5577500Y2310000D01*
G75*
G02*
X-5430000Y2162500I0J-147500D01*
G01*
X-5430000Y1867500D01*
G75*
G02*
X-5577500Y1720000I-147500J0D01*
G01*
G37*
%TD.AperFunction*%
%TD*%
%TO.P,R3,2*%
%TO.N,Net-(D2-Pad1)*%
%TA.AperFunction,SMDPad,CuDef*%
G36*
G01*
X5922500Y2690000D02*
X5577500Y2690000D01*
G75*
G02*
X5430000Y2837500I0J147500D01*
G01*
X5430000Y3132500D01*
G75*
G02*
X5577500Y3280000I147500J0D01*
G01*
X5922500Y3280000D01*
G75*
G02*
X6070000Y3132500I0J-147500D01*
G01*
X6070000Y2837500D01*
G75*
G02*
X5922500Y2690000I-147500J0D01*
G01*
G37*
%TD.AperFunction*%
%TO.P,R3,1*%
%TO.N,GND*%
%TA.AperFunction,SMDPad,CuDef*%
G36*
G01*
X5922500Y1720000D02*
X5577500Y1720000D01*
G75*
G02*
X5430000Y1867500I0J147500D01*
G01*
X5430000Y2162500D01*
G75*
G02*
X5577500Y2310000I147500J0D01*
G01*
X5922500Y2310000D01*
G75*
G02*
X6070000Y2162500I0J-147500D01*
G01*
X6070000Y1867500D01*
G75*
G02*
X5922500Y1720000I-147500J0D01*
G01*
G37*
%TD.AperFunction*%
%TD*%
%TO.P,D4,2*%
%TO.N,PD4*%
%TA.AperFunction,SMDPad,CuDef*%
G36*
G01*
X350000Y-25056250D02*
X350000Y-24543750D01*
G75*
G02*
X568750Y-24325000I218750J0D01*
G01*
X1006250Y-24325000D01*
G75*
G02*
X1225000Y-24543750I0J-218750D01*
G01*
X1225000Y-25056250D01*
G75*
G02*
X1006250Y-25275000I-218750J0D01*
G01*
X568750Y-25275000D01*
G75*
G02*
X350000Y-25056250I0J218750D01*
G01*
G37*
%TD.AperFunction*%
%TO.P,D4,1*%
%TO.N,Net-(D4-Pad1)*%
%TA.AperFunction,SMDPad,CuDef*%
G36*
G01*
X-1225000Y-25056250D02*
X-1225000Y-24543750D01*
G75*
G02*
X-1006250Y-24325000I218750J0D01*
G01*
X-568750Y-24325000D01*
G75*
G02*
X-350000Y-24543750I0J-218750D01*
G01*
X-350000Y-25056250D01*
G75*
G02*
X-568750Y-25275000I-218750J0D01*
G01*
X-1006250Y-25275000D01*
G75*
G02*
X-1225000Y-25056250I0J218750D01*
G01*
G37*
%TD.AperFunction*%
%TD*%
%TO.P,D3,2*%
%TO.N,+3V3*%
%TA.AperFunction,SMDPad,CuDef*%
G36*
G01*
X-8100000Y2506250D02*
X-8100000Y1993750D01*
G75*
G02*
X-8318750Y1775000I-218750J0D01*
G01*
X-8756250Y1775000D01*
G75*
G02*
X-8975000Y1993750I0J218750D01*
G01*
X-8975000Y2506250D01*
G75*
G02*
X-8756250Y2725000I218750J0D01*
G01*
X-8318750Y2725000D01*
G75*
G02*
X-8100000Y2506250I0J-218750D01*
G01*
G37*
%TD.AperFunction*%
%TO.P,D3,1*%
%TO.N,Net-(D3-Pad1)*%
%TA.AperFunction,SMDPad,CuDef*%
G36*
G01*
X-6525000Y2506250D02*
X-6525000Y1993750D01*
G75*
G02*
X-6743750Y1775000I-218750J0D01*
G01*
X-7181250Y1775000D01*
G75*
G02*
X-7400000Y1993750I0J218750D01*
G01*
X-7400000Y2506250D01*
G75*
G02*
X-7181250Y2725000I218750J0D01*
G01*
X-6743750Y2725000D01*
G75*
G02*
X-6525000Y2506250I0J-218750D01*
G01*
G37*
%TD.AperFunction*%
%TD*%
%TO.P,D2,1*%
%TO.N,Net-(D2-Pad1)*%
%TA.AperFunction,SMDPad,CuDef*%
G36*
G01*
X6525000Y1993750D02*
X6525000Y2506250D01*
G75*
G02*
X6743750Y2725000I218750J0D01*
G01*
X7181250Y2725000D01*
G75*
G02*
X7400000Y2506250I0J-218750D01*
G01*
X7400000Y1993750D01*
G75*
G02*
X7181250Y1775000I-218750J0D01*
G01*
X6743750Y1775000D01*
G75*
G02*
X6525000Y1993750I0J218750D01*
G01*
G37*
%TD.AperFunction*%
%TO.P,D2,2*%
%TO.N,+5V*%
%TA.AperFunction,SMDPad,CuDef*%
G36*
G01*
X8100000Y1993750D02*
X8100000Y2506250D01*
G75*
G02*
X8318750Y2725000I218750J0D01*
G01*
X8756250Y2725000D01*
G75*
G02*
X8975000Y2506250I0J-218750D01*
G01*
X8975000Y1993750D01*
G75*
G02*
X8756250Y1775000I-218750J0D01*
G01*
X8318750Y1775000D01*
G75*
G02*
X8100000Y1993750I0J218750D01*
G01*
G37*
%TD.AperFunction*%
%TD*%
D14*
%TO.P,TP2,1*%
%TO.N,USB_D+*%
X2000000Y-8500000D03*
%TD*%
%TO.P,TP1,1*%
%TO.N,USB_D-*%
X4000000Y-8500000D03*
%TD*%
D15*
%TO.P,U2,5*%
%TO.N,+3V3*%
X-4100000Y-6450000D03*
%TO.P,U2,4*%
%TO.N,Net-(U2-Pad4)*%
X-4100000Y-4550000D03*
%TO.P,U2,3*%
%TO.N,+5V*%
X-1900000Y-4550000D03*
%TO.P,U2,2*%
%TO.N,GND*%
X-1900000Y-5500000D03*
%TO.P,U2,1*%
%TO.N,+5V*%
X-1900000Y-6450000D03*
%TD*%
D16*
%TO.P,D1,2*%
%TO.N,USB_VBUS*%
X0Y-4450000D03*
%TO.P,D1,1*%
%TO.N,+5V*%
X0Y-6550000D03*
%TD*%
%TO.P,C3,2*%
%TO.N,+3V3*%
%TA.AperFunction,SMDPad,CuDef*%
G36*
G01*
X-4327500Y-8310000D02*
X-4672500Y-8310000D01*
G75*
G02*
X-4820000Y-8162500I0J147500D01*
G01*
X-4820000Y-7867500D01*
G75*
G02*
X-4672500Y-7720000I147500J0D01*
G01*
X-4327500Y-7720000D01*
G75*
G02*
X-4180000Y-7867500I0J-147500D01*
G01*
X-4180000Y-8162500D01*
G75*
G02*
X-4327500Y-8310000I-147500J0D01*
G01*
G37*
%TD.AperFunction*%
%TO.P,C3,1*%
%TO.N,GND*%
%TA.AperFunction,SMDPad,CuDef*%
G36*
G01*
X-4327500Y-9280000D02*
X-4672500Y-9280000D01*
G75*
G02*
X-4820000Y-9132500I0J147500D01*
G01*
X-4820000Y-8837500D01*
G75*
G02*
X-4672500Y-8690000I147500J0D01*
G01*
X-4327500Y-8690000D01*
G75*
G02*
X-4180000Y-8837500I0J-147500D01*
G01*
X-4180000Y-9132500D01*
G75*
G02*
X-4327500Y-9280000I-147500J0D01*
G01*
G37*
%TD.AperFunction*%
%TD*%
%TO.P,C1,2*%
%TO.N,+5V*%
%TA.AperFunction,SMDPad,CuDef*%
G36*
G01*
X-1327500Y-8310000D02*
X-1672500Y-8310000D01*
G75*
G02*
X-1820000Y-8162500I0J147500D01*
G01*
X-1820000Y-7867500D01*
G75*
G02*
X-1672500Y-7720000I147500J0D01*
G01*
X-1327500Y-7720000D01*
G75*
G02*
X-1180000Y-7867500I0J-147500D01*
G01*
X-1180000Y-8162500D01*
G75*
G02*
X-1327500Y-8310000I-147500J0D01*
G01*
G37*
%TD.AperFunction*%
%TO.P,C1,1*%
%TO.N,GND*%
%TA.AperFunction,SMDPad,CuDef*%
G36*
G01*
X-1327500Y-9280000D02*
X-1672500Y-9280000D01*
G75*
G02*
X-1820000Y-9132500I0J147500D01*
G01*
X-1820000Y-8837500D01*
G75*
G02*
X-1672500Y-8690000I147500J0D01*
G01*
X-1327500Y-8690000D01*
G75*
G02*
X-1180000Y-8837500I0J-147500D01*
G01*
X-1180000Y-9132500D01*
G75*
G02*
X-1327500Y-9280000I-147500J0D01*
G01*
G37*
%TD.AperFunction*%
%TD*%
%TO.P,R2,2*%
%TO.N,Net-(J1-PadA6)*%
%TA.AperFunction,SMDPad,CuDef*%
G36*
G01*
X1672500Y-4810000D02*
X1327500Y-4810000D01*
G75*
G02*
X1180000Y-4662500I0J147500D01*
G01*
X1180000Y-4367500D01*
G75*
G02*
X1327500Y-4220000I147500J0D01*
G01*
X1672500Y-4220000D01*
G75*
G02*
X1820000Y-4367500I0J-147500D01*
G01*
X1820000Y-4662500D01*
G75*
G02*
X1672500Y-4810000I-147500J0D01*
G01*
G37*
%TD.AperFunction*%
%TO.P,R2,1*%
%TO.N,USB_D+*%
%TA.AperFunction,SMDPad,CuDef*%
G36*
G01*
X1672500Y-5780000D02*
X1327500Y-5780000D01*
G75*
G02*
X1180000Y-5632500I0J147500D01*
G01*
X1180000Y-5337500D01*
G75*
G02*
X1327500Y-5190000I147500J0D01*
G01*
X1672500Y-5190000D01*
G75*
G02*
X1820000Y-5337500I0J-147500D01*
G01*
X1820000Y-5632500D01*
G75*
G02*
X1672500Y-5780000I-147500J0D01*
G01*
G37*
%TD.AperFunction*%
%TD*%
%TO.P,R1,2*%
%TO.N,Net-(J1-PadA7)*%
%TA.AperFunction,SMDPad,CuDef*%
G36*
G01*
X2672500Y-4810000D02*
X2327500Y-4810000D01*
G75*
G02*
X2180000Y-4662500I0J147500D01*
G01*
X2180000Y-4367500D01*
G75*
G02*
X2327500Y-4220000I147500J0D01*
G01*
X2672500Y-4220000D01*
G75*
G02*
X2820000Y-4367500I0J-147500D01*
G01*
X2820000Y-4662500D01*
G75*
G02*
X2672500Y-4810000I-147500J0D01*
G01*
G37*
%TD.AperFunction*%
%TO.P,R1,1*%
%TO.N,USB_D-*%
%TA.AperFunction,SMDPad,CuDef*%
G36*
G01*
X2672500Y-5780000D02*
X2327500Y-5780000D01*
G75*
G02*
X2180000Y-5632500I0J147500D01*
G01*
X2180000Y-5337500D01*
G75*
G02*
X2327500Y-5190000I147500J0D01*
G01*
X2672500Y-5190000D01*
G75*
G02*
X2820000Y-5337500I0J-147500D01*
G01*
X2820000Y-5632500D01*
G75*
G02*
X2672500Y-5780000I-147500J0D01*
G01*
G37*
%TD.AperFunction*%
%TD*%
%TO.P,C2,2*%
%TO.N,Net-(C2-Pad2)*%
%TA.AperFunction,SMDPad,CuDef*%
G36*
G01*
X-3487625Y-14506326D02*
X-3243673Y-14262375D01*
G75*
G02*
X-3035077Y-14262375I104298J-104298D01*
G01*
X-2826481Y-14470971D01*
G75*
G02*
X-2826481Y-14679567I-104298J-104298D01*
G01*
X-3070433Y-14923519D01*
G75*
G02*
X-3279029Y-14923519I-104298J104298D01*
G01*
X-3487625Y-14714923D01*
G75*
G02*
X-3487625Y-14506327I104298J104298D01*
G01*
G37*
%TD.AperFunction*%
%TO.P,C2,1*%
%TO.N,GND*%
%TA.AperFunction,SMDPad,CuDef*%
G36*
G01*
X-4173519Y-13820432D02*
X-3929567Y-13576481D01*
G75*
G02*
X-3720971Y-13576481I104298J-104298D01*
G01*
X-3512375Y-13785077D01*
G75*
G02*
X-3512375Y-13993673I-104298J-104298D01*
G01*
X-3756327Y-14237625D01*
G75*
G02*
X-3964923Y-14237625I-104298J104298D01*
G01*
X-4173519Y-14029029D01*
G75*
G02*
X-4173519Y-13820433I104298J104298D01*
G01*
G37*
%TD.AperFunction*%
%TD*%
D17*
%TO.P,J1,S1*%
%TO.N,GND*%
X4320000Y-1930000D03*
X-4320000Y-1930000D03*
D18*
X4320000Y2240000D03*
X-4320000Y2240000D03*
D19*
%TO.P,J1,B7*%
%TO.N,Net-(J1-PadA7)*%
X750000Y-2510000D03*
%TO.P,J1,A6*%
%TO.N,Net-(J1-PadA6)*%
X250000Y-2510000D03*
%TO.P,J1,A7*%
%TO.N,Net-(J1-PadA7)*%
X-250000Y-2510000D03*
%TO.P,J1,B8*%
%TO.N,Net-(J1-PadB8)*%
X1750000Y-2510000D03*
%TO.P,J1,A5*%
%TO.N,Net-(J1-PadA5)*%
X1250000Y-2510000D03*
%TO.P,J1,A8*%
%TO.N,Net-(J1-PadA8)*%
X-1250000Y-2510000D03*
%TO.P,J1,B6*%
%TO.N,Net-(J1-PadA6)*%
X-750000Y-2510000D03*
%TO.P,J1,B5*%
%TO.N,Net-(J1-PadB5)*%
X-1750000Y-2510000D03*
D20*
%TO.P,J1,A4*%
%TO.N,USB_VBUS*%
X2400000Y-2510000D03*
%TO.P,J1,B9*%
X2400000Y-2510000D03*
%TO.P,J1,A1*%
%TO.N,GND*%
X3200000Y-2510000D03*
%TO.P,J1,B12*%
X3200000Y-2510000D03*
%TO.P,J1,B4*%
%TO.N,USB_VBUS*%
X-2400000Y-2510000D03*
%TO.P,J1,B1*%
%TO.N,GND*%
X-3200000Y-2510000D03*
%TO.P,J1,A9*%
%TO.N,USB_VBUS*%
X-2400000Y-2510000D03*
%TO.P,J1,A12*%
%TO.N,GND*%
X-3200000Y-2510000D03*
%TD*%
D21*
%TO.N,GND*%
X4000000Y-10500000D03*
X-3100000Y-5500000D03*
X-500000Y-10500000D03*
X-4500000Y-43000000D03*
X-2500000Y-43000000D03*
X-500000Y-43000000D03*
X1500000Y-43000000D03*
X3500000Y-43000000D03*
X-4500000Y-39500000D03*
X-2500000Y-39500000D03*
X-500000Y-39500000D03*
X1500000Y-39500000D03*
X3500000Y-39500000D03*
X-4500000Y-36500000D03*
X-2500000Y-36500000D03*
X-500000Y-36500000D03*
X1500000Y-36500000D03*
X3500000Y-36500000D03*
X3500000Y-34000000D03*
X1500000Y-34000000D03*
X-500000Y-34000000D03*
X-2500000Y-34000000D03*
X1500000Y-27500000D03*
X3500000Y-27500000D03*
X3500000Y-25000000D03*
X0Y-18000000D03*
X-1414214Y-18000000D03*
X1500000Y-18000000D03*
X0Y-16500000D03*
X0Y-19500000D03*
X-3469669Y-13030331D03*
X-3500000Y-10500000D03*
X-5500000Y-5500000D03*
X1000000Y0D03*
X1000000Y2500000D03*
X-1000000Y0D03*
X-1000000Y2500000D03*
X-3000000Y0D03*
X3000000Y0D03*
X3000000Y2500000D03*
X-3000000Y2500000D03*
X-3500000Y-26500000D03*
X-6500000Y-21500000D03*
X-7500000Y3500000D03*
X7500000Y3500000D03*
%TO.N,USB_VBUS*%
X0Y-5600000D03*
X-1534259Y-13100000D03*
X850001Y-10350001D03*
%TO.N,~RESET*%
X-2149999Y-28000000D03*
%TO.N,+3V3*%
X-5700000Y-20700000D03*
X6400000Y-16200000D03*
X1714034Y-22860660D03*
X-6480417Y-19391630D03*
X4369969Y-12264950D03*
%TO.N,PE6*%
X-539569Y-12997065D03*
%TD*%
D22*
%TO.N,XTAL1*%
X-7470695Y-25400000D02*
X-7620000Y-25400000D01*
X-2430664Y-20359969D02*
X-7470695Y-25400000D01*
X-2359969Y-20359969D02*
X-2430664Y-20359969D01*
%TO.N,GND*%
X-3067076Y-19652862D02*
X-1414214Y-18000000D01*
X0Y-17222198D02*
X0Y-18000000D01*
X-1935720Y-15286478D02*
X0Y-17222198D01*
X-2006415Y-15286478D02*
X-1935720Y-15286478D01*
X592202Y-22057041D02*
X0Y-21464839D01*
X592202Y-22127736D02*
X592202Y-22057041D01*
X945755Y-14225818D02*
X0Y-15171573D01*
X3774182Y-17054245D02*
X2828427Y-18000000D01*
X4571374Y-16257053D02*
X3774182Y-17054245D01*
X4857053Y-16257053D02*
X4571374Y-16257053D01*
X-3740000Y-2510000D02*
X-4320000Y-1930000D01*
X-3200000Y-2510000D02*
X-3740000Y-2510000D01*
X3740000Y-2510000D02*
X4320000Y-1930000D01*
X3200000Y-2510000D02*
X3740000Y-2510000D01*
X0Y-18000000D02*
X-1414214Y-18000000D01*
X0Y-18000000D02*
X1500000Y-18000000D01*
X2828427Y-18000000D02*
X1500000Y-18000000D01*
X0Y-18000000D02*
X0Y-16500000D01*
X0Y-15171573D02*
X0Y-16500000D01*
X0Y-18000000D02*
X0Y-19500000D01*
X0Y-21464839D02*
X0Y-19500000D01*
X-3842947Y-13907053D02*
X-3842947Y-13403609D01*
X-3842947Y-13403609D02*
X-3469669Y-13030331D01*
X-3100000Y-5500000D02*
X-1900000Y-5500000D01*
X-6500000Y-21500000D02*
X-6000000Y-22000000D01*
X-5500000Y-22000000D02*
X-4842947Y-21342947D01*
X-6000000Y-22000000D02*
X-5500000Y-22000000D01*
%TO.N,Net-(C2-Pad2)*%
X-3157053Y-14842947D02*
X-3157053Y-14592947D01*
X-2359969Y-15640031D02*
X-3157053Y-14842947D01*
%TO.N,XTAL2*%
X-5567107Y-22860000D02*
X-7620000Y-22860000D01*
X-2713522Y-20006415D02*
X-5567107Y-22860000D01*
D23*
%TO.N,USB_VBUS*%
X-332122Y-4450000D02*
X0Y-4450000D01*
X-1990001Y-3849999D02*
X-932123Y-3849999D01*
X-2400000Y-3440000D02*
X-1990001Y-3849999D01*
X-932123Y-3849999D02*
X-332122Y-4450000D01*
X-2400000Y-2510000D02*
X-2400000Y-3440000D01*
X4000000Y-4956058D02*
X4000000Y-5000000D01*
X2400000Y-3356058D02*
X4000000Y-4956058D01*
X2400000Y-2510000D02*
X2400000Y-3356058D01*
X0Y-5600000D02*
X0Y-4450000D01*
D24*
X565685Y-5600000D02*
X0Y-5600000D01*
X850001Y-5884316D02*
X565685Y-5600000D01*
X850001Y-11091825D02*
X850001Y-10350001D01*
X-2847045Y-11347045D02*
X594781Y-11347045D01*
X-2713522Y-15993585D02*
X-4566731Y-14140376D01*
X594781Y-11347045D02*
X850001Y-11091825D01*
X-4566731Y-13066731D02*
X-2847045Y-11347045D01*
X-4566731Y-14140376D02*
X-4566731Y-13066731D01*
X850001Y-10350001D02*
X850001Y-5884316D01*
X-1534259Y-13637314D02*
X-1534259Y-13100000D01*
X-945755Y-14225818D02*
X-1534259Y-13637314D01*
D22*
%TO.N,Net-(J1-PadA6)*%
X1500000Y-4515000D02*
X1500000Y-4000000D01*
X250000Y-3461412D02*
X250000Y-2510000D01*
X1500000Y-4000000D02*
X788588Y-4000000D01*
X788588Y-4000000D02*
X250000Y-3461412D01*
X-613590Y-3461412D02*
X250000Y-3461412D01*
X-750000Y-3325002D02*
X-613590Y-3461412D01*
X-750000Y-2510000D02*
X-750000Y-3325002D01*
%TO.N,Net-(J1-PadA7)*%
X1695001Y-3415001D02*
X2500000Y-4220000D01*
X839999Y-3415001D02*
X1695001Y-3415001D01*
X2500000Y-4220000D02*
X2500000Y-4515000D01*
X750000Y-2510000D02*
X750000Y-3325002D01*
X750000Y-3325002D02*
X839999Y-3415001D01*
X-160001Y-1604999D02*
X-250000Y-1694998D01*
X-250000Y-1694998D02*
X-250000Y-2510000D01*
X674999Y-1604999D02*
X-160001Y-1604999D01*
X750000Y-1680000D02*
X674999Y-1604999D01*
X750000Y-2510000D02*
X750000Y-1680000D01*
%TO.N,USB_D-*%
X2500000Y-5485000D02*
X2500000Y-5500000D01*
X4000000Y-7000000D02*
X4000000Y-8500000D01*
X2500000Y-5500000D02*
X4000000Y-7000000D01*
X4000000Y-9250000D02*
X977935Y-12272065D01*
X4000000Y-8500000D02*
X4000000Y-9250000D01*
X-2259259Y-12694362D02*
X-2259259Y-13690115D01*
X977935Y-12272065D02*
X-1836962Y-12272065D01*
X-1836962Y-12272065D02*
X-2259259Y-12694362D01*
X-1678680Y-14200000D02*
X-1299309Y-14579371D01*
X-1749374Y-14200000D02*
X-1678680Y-14200000D01*
X-2259259Y-13690115D02*
X-1749374Y-14200000D01*
%TO.N,USB_D+*%
X1500000Y-5485000D02*
X1500000Y-6500000D01*
X2000000Y-7000000D02*
X2000000Y-8500000D01*
X1500000Y-6500000D02*
X2000000Y-7000000D01*
X-2709269Y-13876517D02*
X-2709268Y-12507961D01*
X-1652862Y-14932924D02*
X-2709269Y-13876517D01*
X-2709268Y-12507961D02*
X-2023362Y-11822055D01*
X-2023362Y-11822055D02*
X791535Y-11822055D01*
X2000000Y-10613590D02*
X2000000Y-8500000D01*
X791535Y-11822055D02*
X2000000Y-10613590D01*
%TO.N,~RESET*%
X-4571374Y-19742947D02*
X-4957053Y-19742947D01*
X-3774182Y-18945755D02*
X-4571374Y-19742947D01*
X-6393002Y-20320000D02*
X-7620000Y-20320000D01*
X-6042223Y-19969221D02*
X-6393002Y-20320000D01*
X-4957053Y-19742947D02*
X-5183327Y-19969221D01*
X-5183327Y-19969221D02*
X-6042223Y-19969221D01*
X-434003Y-31024999D02*
X1304999Y-31024999D01*
X-1235001Y-30224001D02*
X-434003Y-31024999D01*
X1304999Y-31024999D02*
X2480000Y-32200000D01*
X-1235001Y-28914998D02*
X-1235001Y-30224001D01*
X-2149999Y-28000000D02*
X-1235001Y-28914998D01*
%TO.N,SPI_MISO*%
X-4127736Y-17407798D02*
X-4127736Y-17372264D01*
X-6260000Y-15240000D02*
X-7620000Y-15240000D01*
X-4127736Y-17372264D02*
X-6260000Y-15240000D01*
%TO.N,SPI_MOSI*%
X-3774182Y-17054245D02*
X-3809345Y-17054245D01*
X-7620000Y-13243590D02*
X-7620000Y-12700000D01*
X-3809345Y-17054245D02*
X-7620000Y-13243590D01*
%TO.N,SPI_SCL*%
X-3420629Y-16700691D02*
X-6444999Y-13676321D01*
X-6444999Y-11335001D02*
X-7620000Y-10160000D01*
X-6444999Y-13676321D02*
X-6444999Y-11335001D01*
%TO.N,+3V3*%
X-7620000Y0D02*
X-7500000Y0D01*
D23*
X-8537500Y917500D02*
X-7620000Y0D01*
X-8537500Y2250000D02*
X-8537500Y917500D01*
D24*
X-3420629Y-19299309D02*
X-4000000Y-19878680D01*
X4127736Y-17407798D02*
X4519938Y-17800000D01*
X4685894Y-17800000D02*
X5542947Y-16942947D01*
X4519938Y-17800000D02*
X4685894Y-17800000D01*
X-4100000Y-7615000D02*
X-4500000Y-8015000D01*
X-4100000Y-6450000D02*
X-4100000Y-7615000D01*
X-3215000Y-8500000D02*
X-4100000Y-7615000D01*
X-3000000Y-8500000D02*
X-3215000Y-8500000D01*
X6285894Y-16200000D02*
X5542947Y-16942947D01*
X6400000Y-16200000D02*
X6285894Y-16200000D01*
X1714034Y-22507108D02*
X963431Y-21756505D01*
X1714034Y-22860660D02*
X1714034Y-22507108D01*
X-6300000Y0D02*
X-5300000Y-1000000D01*
X-7620000Y0D02*
X-6300000Y0D01*
X-4100000Y-6450000D02*
X-4100000Y-5800000D01*
X-4100000Y-5800000D02*
X-4600000Y-5300000D01*
X-5300000Y-4835002D02*
X-5300000Y-1000000D01*
X-4835002Y-5300000D02*
X-5300000Y-4835002D01*
X-4600000Y-5300000D02*
X-4835002Y-5300000D01*
X-5977524Y-19391630D02*
X-5642947Y-19057053D01*
X-6480417Y-19391630D02*
X-5977524Y-19391630D01*
X1299309Y-14579371D02*
X1334647Y-14579371D01*
X1031228Y-13433238D02*
X592202Y-13872264D01*
X1738335Y-13763268D02*
X1408305Y-13433238D01*
X1738335Y-14175683D02*
X1738335Y-13763268D01*
X1408305Y-13433238D02*
X1031228Y-13433238D01*
X1334647Y-14579371D02*
X1738335Y-14175683D01*
X3613730Y-12264950D02*
X1939340Y-13939340D01*
X4369969Y-12264950D02*
X3613730Y-12264950D01*
X1299309Y-14579371D02*
X1939340Y-13939340D01*
X1939340Y-13939340D02*
X2315589Y-13563091D01*
X-5619163Y-20619163D02*
X-5700000Y-20700000D01*
X-4194943Y-20619163D02*
X-5619163Y-20619163D01*
X-4157053Y-20657053D02*
X-4194943Y-20619163D01*
X-4000000Y-20500000D02*
X-4157053Y-20657053D01*
X-4000000Y-19878680D02*
X-4000000Y-20500000D01*
D22*
%TO.N,PD5*%
X-592202Y-22127736D02*
X-662897Y-22127736D01*
X-4349980Y-25885514D02*
X-592202Y-22127736D01*
X-4349980Y-34829980D02*
X-4349980Y-25885514D01*
X-7620000Y-38100000D02*
X-4349980Y-34829980D01*
%TO.N,PD3*%
X-1016450Y-21774182D02*
X-4799990Y-25557722D01*
X-945755Y-21774182D02*
X-1016450Y-21774182D01*
X-4799990Y-32739990D02*
X-7620000Y-35560000D01*
X-4799990Y-25557722D02*
X-4799990Y-32739990D01*
%TO.N,PD1*%
X-1652862Y-21067076D02*
X-5750000Y-25164214D01*
X-5750000Y-28610000D02*
X-7620000Y-30480000D01*
X-5750000Y-25164214D02*
X-5750000Y-28610000D01*
%TO.N,PD0*%
X-2006415Y-20713522D02*
X-2006415Y-20756415D01*
X-2006415Y-20713522D02*
X-6250000Y-24957107D01*
X-6250000Y-26570000D02*
X-7620000Y-27940000D01*
X-6250000Y-24957107D02*
X-6250000Y-26570000D01*
%TO.N,PB7*%
X-4939938Y-17780000D02*
X-4127736Y-18592202D01*
X-7620000Y-17780000D02*
X-4939938Y-17780000D01*
%TO.N,PB0*%
X-7620000Y-7620000D02*
X-6444999Y-8795001D01*
X-6444999Y-10698591D02*
X-5994989Y-11148601D01*
X-6444999Y-8795001D02*
X-6444999Y-10698591D01*
X-5994989Y-13419225D02*
X-3067076Y-16347138D01*
X-5994989Y-11148601D02*
X-5994989Y-13419225D01*
%TO.N,PE6*%
X-592202Y-13872264D02*
X-200000Y-13480062D01*
X-200000Y-13480062D02*
X-200000Y-13336634D01*
X-200000Y-13336634D02*
X-539569Y-12997065D01*
%TO.N,PD4*%
X4194949Y-34674949D02*
X7620000Y-38100000D01*
X4194949Y-24316269D02*
X4194949Y-34674949D01*
X800000Y-24800000D02*
X2739340Y-22860660D01*
X787500Y-24800000D02*
X800000Y-24800000D01*
X1299309Y-21420629D02*
X2739340Y-22860660D01*
X2739340Y-22860660D02*
X4194949Y-24316269D01*
%TO.N,PD6*%
X2256481Y-21600000D02*
X2327178Y-21600000D01*
X1652862Y-21067076D02*
X1723557Y-21067076D01*
X1723557Y-21067076D02*
X2256481Y-21600000D01*
X2327178Y-21600000D02*
X4644959Y-23917781D01*
X4644959Y-32584959D02*
X7620000Y-35560000D01*
X4644959Y-23917781D02*
X4644959Y-32584959D01*
%TO.N,PD7*%
X2077110Y-20713522D02*
X5094969Y-23731381D01*
X2006415Y-20713522D02*
X2077110Y-20713522D01*
X5094969Y-30494969D02*
X7620000Y-33020000D01*
X5094969Y-23731381D02*
X5094969Y-30494969D01*
%TO.N,PB4*%
X2359969Y-20359969D02*
X5544979Y-23544979D01*
X5544979Y-28404979D02*
X7620000Y-30480000D01*
X5544979Y-23544979D02*
X5544979Y-28404979D01*
%TO.N,PB5*%
X2784220Y-20006415D02*
X5994989Y-23217184D01*
X2713522Y-20006415D02*
X2784220Y-20006415D01*
X5994989Y-26314989D02*
X7620000Y-27940000D01*
X5994989Y-23217184D02*
X5994989Y-26314989D01*
%TO.N,PB6*%
X6444999Y-24224999D02*
X7620000Y-25400000D01*
X6444999Y-23030783D02*
X6444999Y-24224999D01*
X3067076Y-19652862D02*
X6444999Y-23030783D01*
%TO.N,PC6*%
X6910626Y-22860000D02*
X7620000Y-22860000D01*
X3420629Y-19370003D02*
X6910626Y-22860000D01*
X3420629Y-19299309D02*
X3420629Y-19370003D01*
%TO.N,PC7*%
X5148427Y-20320000D02*
X7620000Y-20320000D01*
X3774182Y-18945755D02*
X5148427Y-20320000D01*
%TO.N,PE2*%
X7000000Y-19200998D02*
X6400998Y-19800000D01*
X7620000Y-17780000D02*
X7000000Y-18400000D01*
X7000000Y-18400000D02*
X7000000Y-19200998D01*
X6400000Y-19800000D02*
X6330010Y-19869990D01*
X6400998Y-19800000D02*
X6400000Y-19800000D01*
X5405524Y-19869990D02*
X4127736Y-18592202D01*
X6330010Y-19869990D02*
X5405524Y-19869990D01*
%TO.N,PF7*%
X3420629Y-16629997D02*
X4810626Y-15240000D01*
X4810626Y-15240000D02*
X7620000Y-15240000D01*
X3420629Y-16700691D02*
X3420629Y-16629997D01*
%TO.N,PF6*%
X5530010Y-14789990D02*
X7620000Y-12700000D01*
X4624226Y-14789990D02*
X5530010Y-14789990D01*
X3067076Y-16347138D02*
X4624226Y-14789990D01*
%TO.N,PF5*%
X6444999Y-13238591D02*
X6444999Y-11335001D01*
X5343610Y-14339980D02*
X6444999Y-13238591D01*
X4296432Y-14339980D02*
X5343610Y-14339980D01*
X6444999Y-11335001D02*
X7620000Y-10160000D01*
X2713522Y-15922890D02*
X4296432Y-14339980D01*
X2713522Y-15993585D02*
X2713522Y-15922890D01*
%TO.N,PF4*%
X5110030Y-13889970D02*
X5994989Y-13005011D01*
X5994989Y-10046009D02*
X7620000Y-8420998D01*
X4110032Y-13889970D02*
X5110030Y-13889970D01*
X5994989Y-13005011D02*
X5994989Y-10046009D01*
X2359969Y-15640031D02*
X4110032Y-13889970D01*
X7620000Y-8420998D02*
X7620000Y-7620000D01*
%TO.N,PF1*%
X6444999Y-8955001D02*
X6444999Y-6255001D01*
X5544979Y-9855021D02*
X6444999Y-8955001D01*
X5544979Y-12818611D02*
X5544979Y-9855021D01*
X3852933Y-13439960D02*
X4923630Y-13439960D01*
X6444999Y-6255001D02*
X7620000Y-5080000D01*
X2006415Y-15286478D02*
X3852933Y-13439960D01*
X4923630Y-13439960D02*
X5544979Y-12818611D01*
%TO.N,PF0*%
X5094970Y-9668620D02*
X5994989Y-8768601D01*
X1723557Y-14932924D02*
X3666533Y-12989950D01*
X5994989Y-8768601D02*
X5994989Y-4165011D01*
X1652862Y-14932924D02*
X1723557Y-14932924D01*
X3666533Y-12989950D02*
X4737230Y-12989950D01*
X5094969Y-12632211D02*
X5094970Y-9668620D01*
X4737230Y-12989950D02*
X5094969Y-12632211D01*
X5994989Y-4165011D02*
X7620000Y-2540000D01*
%TO.N,+5V*%
X7620000Y1332500D02*
X8537500Y2250000D01*
X7620000Y0D02*
X7620000Y1332500D01*
D23*
X-1800000Y-6550000D02*
X-1900000Y-6450000D01*
X0Y-8500000D02*
X0Y-6550000D01*
X-1500000Y-8015000D02*
X-1500000Y-7700000D01*
X-1900000Y-7300000D02*
X-1900000Y-6450000D01*
X-1500000Y-7700000D02*
X-1900000Y-7300000D01*
D24*
X-1070000Y-4550000D02*
X-850000Y-4770000D01*
X-1900000Y-4550000D02*
X-1070000Y-4550000D01*
D23*
X0Y-6550000D02*
X-850000Y-6550000D01*
D24*
X-850000Y-4770000D02*
X-850000Y-6550000D01*
D23*
X-850000Y-6550000D02*
X-1800000Y-6550000D01*
D22*
%TO.N,PD2*%
X-1299309Y-21420629D02*
X-5250000Y-25371320D01*
X-5250000Y-30650000D02*
X-7620000Y-33020000D01*
X-5250000Y-25371320D02*
X-5250000Y-30650000D01*
%TO.N,Net-(D2-Pad1)*%
X6227500Y2985000D02*
X6962500Y2250000D01*
X5750000Y2985000D02*
X6227500Y2985000D01*
%TO.N,Net-(D3-Pad1)*%
X-6227500Y2985000D02*
X-5750000Y2985000D01*
X-6962500Y2250000D02*
X-6227500Y2985000D01*
%TO.N,Net-(D4-Pad1)*%
X-485000Y-25102500D02*
X-787500Y-24800000D01*
X-485000Y-26200000D02*
X-485000Y-25102500D01*
%TD*%
D25*
%TO.N,GND*%
G36*
X9340000Y-44467721D02*
G01*
X9330420Y-44565424D01*
X9311420Y-44628357D01*
X9280554Y-44686406D01*
X9239011Y-44737343D01*
X9188356Y-44779248D01*
X9130529Y-44810515D01*
X9067728Y-44829956D01*
X8972165Y-44840000D01*
X-8967721Y-44840000D01*
X-9065424Y-44830420D01*
X-9128357Y-44811420D01*
X-9186406Y-44780554D01*
X-9237343Y-44739011D01*
X-9279248Y-44688356D01*
X-9310515Y-44630529D01*
X-9329956Y-44567728D01*
X-9340000Y-44472165D01*
X-9340000Y-43536890D01*
X-9061476Y-43536890D01*
X-9016825Y-43684099D01*
X-8891641Y-43946920D01*
X-8717588Y-44180269D01*
X-8501355Y-44375178D01*
X-8251252Y-44524157D01*
X-7976891Y-44621481D01*
X-7747000Y-44500814D01*
X-7747000Y-43307000D01*
X-7493000Y-43307000D01*
X-7493000Y-44500814D01*
X-7263109Y-44621481D01*
X-6988748Y-44524157D01*
X-6738645Y-44375178D01*
X-6522412Y-44180269D01*
X-6348359Y-43946920D01*
X-6223175Y-43684099D01*
X-6178524Y-43536890D01*
X6178524Y-43536890D01*
X6223175Y-43684099D01*
X6348359Y-43946920D01*
X6522412Y-44180269D01*
X6738645Y-44375178D01*
X6988748Y-44524157D01*
X7263109Y-44621481D01*
X7493000Y-44500814D01*
X7493000Y-43307000D01*
X7747000Y-43307000D01*
X7747000Y-44500814D01*
X7976891Y-44621481D01*
X8251252Y-44524157D01*
X8501355Y-44375178D01*
X8717588Y-44180269D01*
X8891641Y-43946920D01*
X9016825Y-43684099D01*
X9061476Y-43536890D01*
X8940155Y-43307000D01*
X7747000Y-43307000D01*
X7493000Y-43307000D01*
X6299845Y-43307000D01*
X6178524Y-43536890D01*
X-6178524Y-43536890D01*
X-6299845Y-43307000D01*
X-7493000Y-43307000D01*
X-7747000Y-43307000D01*
X-8940155Y-43307000D01*
X-9061476Y-43536890D01*
X-9340000Y-43536890D01*
X-9340000Y801569D01*
X-9335779Y758712D01*
X-9326691Y728754D01*
X-9289462Y606027D01*
X-9214249Y465311D01*
X-9180572Y424276D01*
X-9113027Y341972D01*
X-9108072Y337906D01*
X-9108072Y-850000D01*
X-9095812Y-974482D01*
X-9059502Y-1094180D01*
X-9000537Y-1204494D01*
X-8921185Y-1301185D01*
X-8824494Y-1380537D01*
X-8714180Y-1439502D01*
X-8633534Y-1463966D01*
X-8717588Y-1539731D01*
X-8891641Y-1773080D01*
X-9016825Y-2035901D01*
X-9061476Y-2183110D01*
X-8940155Y-2413000D01*
X-7747000Y-2413000D01*
X-7747000Y-2393000D01*
X-7493000Y-2393000D01*
X-7493000Y-2413000D01*
X-6299845Y-2413000D01*
X-6178524Y-2183110D01*
X-6223175Y-2035901D01*
X-6348359Y-1773080D01*
X-6522412Y-1539731D01*
X-6606466Y-1463966D01*
X-6525820Y-1439502D01*
X-6415506Y-1380537D01*
X-6318815Y-1301185D01*
X-6239463Y-1204494D01*
X-6227689Y-1182468D01*
X-6084999Y-1325158D01*
X-6085000Y-4796449D01*
X-6088797Y-4835002D01*
X-6085000Y-4873555D01*
X-6085000Y-4873562D01*
X-6073641Y-4988888D01*
X-6028754Y-5136861D01*
X-5955862Y-5273234D01*
X-5857764Y-5392766D01*
X-5827810Y-5417349D01*
X-5417349Y-5827810D01*
X-5392766Y-5857764D01*
X-5273235Y-5955862D01*
X-5246587Y-5970106D01*
X-5255812Y-6000518D01*
X-5268072Y-6125000D01*
X-5268072Y-6775000D01*
X-5255812Y-6899482D01*
X-5219502Y-7019180D01*
X-5160537Y-7129494D01*
X-5096416Y-7207626D01*
X-5108940Y-7214321D01*
X-5227983Y-7312017D01*
X-5325679Y-7431060D01*
X-5398274Y-7566875D01*
X-5442977Y-7714243D01*
X-5458072Y-7867500D01*
X-5458072Y-8162500D01*
X-5442977Y-8315757D01*
X-5405688Y-8438684D01*
X-5409502Y-8445820D01*
X-5445812Y-8565518D01*
X-5458072Y-8690000D01*
X-5455000Y-8699250D01*
X-5296250Y-8858000D01*
X-5029763Y-8858000D01*
X-4973125Y-8888274D01*
X-4825757Y-8932977D01*
X-4672500Y-8948072D01*
X-4353000Y-8948072D01*
X-4353000Y-9112000D01*
X-4373000Y-9112000D01*
X-4373000Y-9756250D01*
X-4214250Y-9915000D01*
X-4180000Y-9918072D01*
X-4055518Y-9905812D01*
X-3935820Y-9869502D01*
X-3825506Y-9810537D01*
X-3728815Y-9731185D01*
X-3649463Y-9634494D01*
X-3641984Y-9620503D01*
X-3624482Y-9625812D01*
X-3500000Y-9638072D01*
X-2500000Y-9638072D01*
X-2375518Y-9625812D01*
X-2358016Y-9620503D01*
X-2350537Y-9634494D01*
X-2271185Y-9731185D01*
X-2174494Y-9810537D01*
X-2064180Y-9869502D01*
X-1944482Y-9905812D01*
X-1820000Y-9918072D01*
X-1785750Y-9915000D01*
X-1627000Y-9756250D01*
X-1627000Y-9112000D01*
X-1647000Y-9112000D01*
X-1647000Y-8948072D01*
X-1353000Y-8948072D01*
X-1353000Y-9112000D01*
X-1373000Y-9112000D01*
X-1373000Y-9756250D01*
X-1214250Y-9915000D01*
X-1180000Y-9918072D01*
X-1055518Y-9905812D01*
X-935820Y-9869502D01*
X-825506Y-9810537D01*
X-728815Y-9731185D01*
X-649463Y-9634494D01*
X-641984Y-9620503D01*
X-624482Y-9625812D01*
X-500000Y-9638072D01*
X65001Y-9638072D01*
X65001Y-9671290D01*
X46064Y-9690227D01*
X-67204Y-9859745D01*
X-145225Y-10048103D01*
X-184999Y-10248062D01*
X-184999Y-10451940D01*
X-163098Y-10562045D01*
X-2808493Y-10562045D01*
X-2847046Y-10558248D01*
X-2885599Y-10562045D01*
X-2885606Y-10562045D01*
X-2979814Y-10571324D01*
X-3000933Y-10573404D01*
X-3035373Y-10583851D01*
X-3148905Y-10618291D01*
X-3285278Y-10691183D01*
X-3325661Y-10724325D01*
X-3374858Y-10764700D01*
X-3374861Y-10764703D01*
X-3404809Y-10789281D01*
X-3429387Y-10819229D01*
X-5094546Y-12484389D01*
X-5124494Y-12508967D01*
X-5149072Y-12538915D01*
X-5149076Y-12538919D01*
X-5175451Y-12571057D01*
X-5222592Y-12628498D01*
X-5234989Y-12651691D01*
X-5234989Y-11185923D01*
X-5231313Y-11148600D01*
X-5234989Y-11111277D01*
X-5234989Y-11111268D01*
X-5245986Y-10999615D01*
X-5289443Y-10856354D01*
X-5360015Y-10724325D01*
X-5454988Y-10608600D01*
X-5483991Y-10584798D01*
X-5684999Y-10383790D01*
X-5684999Y-9280000D01*
X-5458072Y-9280000D01*
X-5445812Y-9404482D01*
X-5409502Y-9524180D01*
X-5350537Y-9634494D01*
X-5271185Y-9731185D01*
X-5174494Y-9810537D01*
X-5064180Y-9869502D01*
X-4944482Y-9905812D01*
X-4820000Y-9918072D01*
X-4785750Y-9915000D01*
X-4627000Y-9756250D01*
X-4627000Y-9112000D01*
X-5296250Y-9112000D01*
X-5455000Y-9270750D01*
X-5458072Y-9280000D01*
X-5684999Y-9280000D01*
X-5684999Y-8832323D01*
X-5681323Y-8795000D01*
X-5684999Y-8757677D01*
X-5684999Y-8757668D01*
X-5695996Y-8646015D01*
X-5739453Y-8502754D01*
X-5810025Y-8370725D01*
X-5904998Y-8255000D01*
X-5933995Y-8231203D01*
X-6178790Y-7986408D01*
X-6135000Y-7766260D01*
X-6135000Y-7473740D01*
X-6192068Y-7186842D01*
X-6304010Y-6916589D01*
X-6466525Y-6673368D01*
X-6673368Y-6466525D01*
X-6847760Y-6350000D01*
X-6673368Y-6233475D01*
X-6466525Y-6026632D01*
X-6304010Y-5783411D01*
X-6192068Y-5513158D01*
X-6135000Y-5226260D01*
X-6135000Y-4933740D01*
X-6192068Y-4646842D01*
X-6304010Y-4376589D01*
X-6466525Y-4133368D01*
X-6673368Y-3926525D01*
X-6855534Y-3804805D01*
X-6738645Y-3735178D01*
X-6522412Y-3540269D01*
X-6348359Y-3306920D01*
X-6223175Y-3044099D01*
X-6178524Y-2896890D01*
X-6299845Y-2667000D01*
X-7493000Y-2667000D01*
X-7493000Y-2687000D01*
X-7747000Y-2687000D01*
X-7747000Y-2667000D01*
X-8940155Y-2667000D01*
X-9061476Y-2896890D01*
X-9016825Y-3044099D01*
X-8891641Y-3306920D01*
X-8717588Y-3540269D01*
X-8501355Y-3735178D01*
X-8384466Y-3804805D01*
X-8566632Y-3926525D01*
X-8773475Y-4133368D01*
X-8935990Y-4376589D01*
X-9047932Y-4646842D01*
X-9105000Y-4933740D01*
X-9105000Y-5226260D01*
X-9047932Y-5513158D01*
X-8935990Y-5783411D01*
X-8773475Y-6026632D01*
X-8566632Y-6233475D01*
X-8392240Y-6350000D01*
X-8566632Y-6466525D01*
X-8773475Y-6673368D01*
X-8935990Y-6916589D01*
X-9047932Y-7186842D01*
X-9105000Y-7473740D01*
X-9105000Y-7766260D01*
X-9047932Y-8053158D01*
X-8935990Y-8323411D01*
X-8773475Y-8566632D01*
X-8566632Y-8773475D01*
X-8392240Y-8890000D01*
X-8566632Y-9006525D01*
X-8773475Y-9213368D01*
X-8935990Y-9456589D01*
X-9047932Y-9726842D01*
X-9105000Y-10013740D01*
X-9105000Y-10306260D01*
X-9047932Y-10593158D01*
X-8935990Y-10863411D01*
X-8773475Y-11106632D01*
X-8566632Y-11313475D01*
X-8392240Y-11430000D01*
X-8566632Y-11546525D01*
X-8773475Y-11753368D01*
X-8935990Y-11996589D01*
X-9047932Y-12266842D01*
X-9105000Y-12553740D01*
X-9105000Y-12846260D01*
X-9047932Y-13133158D01*
X-8935990Y-13403411D01*
X-8773475Y-13646632D01*
X-8566632Y-13853475D01*
X-8392240Y-13970000D01*
X-8566632Y-14086525D01*
X-8773475Y-14293368D01*
X-8935990Y-14536589D01*
X-9047932Y-14806842D01*
X-9105000Y-15093740D01*
X-9105000Y-15386260D01*
X-9047932Y-15673158D01*
X-8935990Y-15943411D01*
X-8773475Y-16186632D01*
X-8566632Y-16393475D01*
X-8392240Y-16510000D01*
X-8566632Y-16626525D01*
X-8773475Y-16833368D01*
X-8935990Y-17076589D01*
X-9047932Y-17346842D01*
X-9105000Y-17633740D01*
X-9105000Y-17926260D01*
X-9047932Y-18213158D01*
X-8935990Y-18483411D01*
X-8773475Y-18726632D01*
X-8566632Y-18933475D01*
X-8392240Y-19050000D01*
X-8566632Y-19166525D01*
X-8773475Y-19373368D01*
X-8935990Y-19616589D01*
X-9047932Y-19886842D01*
X-9105000Y-20173740D01*
X-9105000Y-20466260D01*
X-9047932Y-20753158D01*
X-8935990Y-21023411D01*
X-8773475Y-21266632D01*
X-8566632Y-21473475D01*
X-8392240Y-21590000D01*
X-8566632Y-21706525D01*
X-8773475Y-21913368D01*
X-8935990Y-22156589D01*
X-9047932Y-22426842D01*
X-9105000Y-22713740D01*
X-9105000Y-23006260D01*
X-9047932Y-23293158D01*
X-8935990Y-23563411D01*
X-8773475Y-23806632D01*
X-8566632Y-24013475D01*
X-8392240Y-24130000D01*
X-8566632Y-24246525D01*
X-8773475Y-24453368D01*
X-8935990Y-24696589D01*
X-9047932Y-24966842D01*
X-9105000Y-25253740D01*
X-9105000Y-25546260D01*
X-9047932Y-25833158D01*
X-8935990Y-26103411D01*
X-8773475Y-26346632D01*
X-8566632Y-26553475D01*
X-8392240Y-26670000D01*
X-8566632Y-26786525D01*
X-8773475Y-26993368D01*
X-8935990Y-27236589D01*
X-9047932Y-27506842D01*
X-9105000Y-27793740D01*
X-9105000Y-28086260D01*
X-9047932Y-28373158D01*
X-8935990Y-28643411D01*
X-8773475Y-28886632D01*
X-8566632Y-29093475D01*
X-8392240Y-29210000D01*
X-8566632Y-29326525D01*
X-8773475Y-29533368D01*
X-8935990Y-29776589D01*
X-9047932Y-30046842D01*
X-9105000Y-30333740D01*
X-9105000Y-30626260D01*
X-9047932Y-30913158D01*
X-8935990Y-31183411D01*
X-8773475Y-31426632D01*
X-8566632Y-31633475D01*
X-8392240Y-31750000D01*
X-8566632Y-31866525D01*
X-8773475Y-32073368D01*
X-8935990Y-32316589D01*
X-9047932Y-32586842D01*
X-9105000Y-32873740D01*
X-9105000Y-33166260D01*
X-9047932Y-33453158D01*
X-8935990Y-33723411D01*
X-8773475Y-33966632D01*
X-8566632Y-34173475D01*
X-8392240Y-34290000D01*
X-8566632Y-34406525D01*
X-8773475Y-34613368D01*
X-8935990Y-34856589D01*
X-9047932Y-35126842D01*
X-9105000Y-35413740D01*
X-9105000Y-35706260D01*
X-9047932Y-35993158D01*
X-8935990Y-36263411D01*
X-8773475Y-36506632D01*
X-8566632Y-36713475D01*
X-8392240Y-36830000D01*
X-8566632Y-36946525D01*
X-8773475Y-37153368D01*
X-8935990Y-37396589D01*
X-9047932Y-37666842D01*
X-9105000Y-37953740D01*
X-9105000Y-38246260D01*
X-9047932Y-38533158D01*
X-8935990Y-38803411D01*
X-8773475Y-39046632D01*
X-8566632Y-39253475D01*
X-8392240Y-39370000D01*
X-8566632Y-39486525D01*
X-8773475Y-39693368D01*
X-8935990Y-39936589D01*
X-9047932Y-40206842D01*
X-9105000Y-40493740D01*
X-9105000Y-40786260D01*
X-9047932Y-41073158D01*
X-8935990Y-41343411D01*
X-8773475Y-41586632D01*
X-8566632Y-41793475D01*
X-8384466Y-41915195D01*
X-8501355Y-41984822D01*
X-8717588Y-42179731D01*
X-8891641Y-42413080D01*
X-9016825Y-42675901D01*
X-9061476Y-42823110D01*
X-8940155Y-43053000D01*
X-7747000Y-43053000D01*
X-7747000Y-43033000D01*
X-7493000Y-43033000D01*
X-7493000Y-43053000D01*
X-6299845Y-43053000D01*
X-6178524Y-42823110D01*
X-6223175Y-42675901D01*
X-6348359Y-42413080D01*
X-6522412Y-42179731D01*
X-6738645Y-41984822D01*
X-6855534Y-41915195D01*
X-6673368Y-41793475D01*
X-6466525Y-41586632D01*
X-6304010Y-41343411D01*
X-6192068Y-41073158D01*
X-6135000Y-40786260D01*
X-6135000Y-40493740D01*
X-6192068Y-40206842D01*
X-6304010Y-39936589D01*
X-6466525Y-39693368D01*
X-6673368Y-39486525D01*
X-6847760Y-39370000D01*
X-6673368Y-39253475D01*
X-6466525Y-39046632D01*
X-6304010Y-38803411D01*
X-6192068Y-38533158D01*
X-6135000Y-38246260D01*
X-6135000Y-37953740D01*
X-6178791Y-37733592D01*
X-3838976Y-35393778D01*
X-3809979Y-35369981D01*
X-3715006Y-35254256D01*
X-3644434Y-35122227D01*
X-3600977Y-34978966D01*
X-3589980Y-34867313D01*
X-3589980Y-34867305D01*
X-3586304Y-34829980D01*
X-3589980Y-34792655D01*
X-3589980Y-33671111D01*
X-3574482Y-33675812D01*
X-3450000Y-33688072D01*
X-1750000Y-33688072D01*
X-1625518Y-33675812D01*
X-1505820Y-33639502D01*
X-1395506Y-33580537D01*
X-1298815Y-33501185D01*
X-1219463Y-33404494D01*
X-1160498Y-33294180D01*
X-1138487Y-33221620D01*
X-1006632Y-33353475D01*
X-763411Y-33515990D01*
X-493158Y-33627932D01*
X-206260Y-33685000D01*
X86260Y-33685000D01*
X373158Y-33627932D01*
X643411Y-33515990D01*
X886632Y-33353475D01*
X1093475Y-33146632D01*
X1210000Y-32972240D01*
X1326525Y-33146632D01*
X1533368Y-33353475D01*
X1776589Y-33515990D01*
X2046842Y-33627932D01*
X2333740Y-33685000D01*
X2626260Y-33685000D01*
X2913158Y-33627932D01*
X3183411Y-33515990D01*
X3426632Y-33353475D01*
X3434950Y-33345157D01*
X3434950Y-34637617D01*
X3431273Y-34674949D01*
X3445947Y-34823934D01*
X3489403Y-34967195D01*
X3559975Y-35099225D01*
X3631150Y-35185951D01*
X3654949Y-35214950D01*
X3683947Y-35238748D01*
X6178790Y-37733592D01*
X6135000Y-37953740D01*
X6135000Y-38246260D01*
X6192068Y-38533158D01*
X6304010Y-38803411D01*
X6466525Y-39046632D01*
X6673368Y-39253475D01*
X6847760Y-39370000D01*
X6673368Y-39486525D01*
X6466525Y-39693368D01*
X6304010Y-39936589D01*
X6192068Y-40206842D01*
X6135000Y-40493740D01*
X6135000Y-40786260D01*
X6192068Y-41073158D01*
X6304010Y-41343411D01*
X6466525Y-41586632D01*
X6673368Y-41793475D01*
X6855534Y-41915195D01*
X6738645Y-41984822D01*
X6522412Y-42179731D01*
X6348359Y-42413080D01*
X6223175Y-42675901D01*
X6178524Y-42823110D01*
X6299845Y-43053000D01*
X7493000Y-43053000D01*
X7493000Y-43033000D01*
X7747000Y-43033000D01*
X7747000Y-43053000D01*
X8940155Y-43053000D01*
X9061476Y-42823110D01*
X9016825Y-42675901D01*
X8891641Y-42413080D01*
X8717588Y-42179731D01*
X8501355Y-41984822D01*
X8384466Y-41915195D01*
X8566632Y-41793475D01*
X8773475Y-41586632D01*
X8935990Y-41343411D01*
X9047932Y-41073158D01*
X9105000Y-40786260D01*
X9105000Y-40493740D01*
X9047932Y-40206842D01*
X8935990Y-39936589D01*
X8773475Y-39693368D01*
X8566632Y-39486525D01*
X8392240Y-39370000D01*
X8566632Y-39253475D01*
X8773475Y-39046632D01*
X8935990Y-38803411D01*
X9047932Y-38533158D01*
X9105000Y-38246260D01*
X9105000Y-37953740D01*
X9047932Y-37666842D01*
X8935990Y-37396589D01*
X8773475Y-37153368D01*
X8566632Y-36946525D01*
X8392240Y-36830000D01*
X8566632Y-36713475D01*
X8773475Y-36506632D01*
X8935990Y-36263411D01*
X9047932Y-35993158D01*
X9105000Y-35706260D01*
X9105000Y-35413740D01*
X9047932Y-35126842D01*
X8935990Y-34856589D01*
X8773475Y-34613368D01*
X8566632Y-34406525D01*
X8392240Y-34290000D01*
X8566632Y-34173475D01*
X8773475Y-33966632D01*
X8935990Y-33723411D01*
X9047932Y-33453158D01*
X9105000Y-33166260D01*
X9105000Y-32873740D01*
X9047932Y-32586842D01*
X8935990Y-32316589D01*
X8773475Y-32073368D01*
X8566632Y-31866525D01*
X8392240Y-31750000D01*
X8566632Y-31633475D01*
X8773475Y-31426632D01*
X8935990Y-31183411D01*
X9047932Y-30913158D01*
X9105000Y-30626260D01*
X9105000Y-30333740D01*
X9047932Y-30046842D01*
X8935990Y-29776589D01*
X8773475Y-29533368D01*
X8566632Y-29326525D01*
X8392240Y-29210000D01*
X8566632Y-29093475D01*
X8773475Y-28886632D01*
X8935990Y-28643411D01*
X9047932Y-28373158D01*
X9105000Y-28086260D01*
X9105000Y-27793740D01*
X9047932Y-27506842D01*
X8935990Y-27236589D01*
X8773475Y-26993368D01*
X8566632Y-26786525D01*
X8392240Y-26670000D01*
X8566632Y-26553475D01*
X8773475Y-26346632D01*
X8935990Y-26103411D01*
X9047932Y-25833158D01*
X9105000Y-25546260D01*
X9105000Y-25253740D01*
X9047932Y-24966842D01*
X8935990Y-24696589D01*
X8773475Y-24453368D01*
X8566632Y-24246525D01*
X8392240Y-24130000D01*
X8566632Y-24013475D01*
X8773475Y-23806632D01*
X8935990Y-23563411D01*
X9047932Y-23293158D01*
X9105000Y-23006260D01*
X9105000Y-22713740D01*
X9047932Y-22426842D01*
X8935990Y-22156589D01*
X8773475Y-21913368D01*
X8566632Y-21706525D01*
X8392240Y-21590000D01*
X8566632Y-21473475D01*
X8773475Y-21266632D01*
X8935990Y-21023411D01*
X9047932Y-20753158D01*
X9105000Y-20466260D01*
X9105000Y-20173740D01*
X9047932Y-19886842D01*
X8935990Y-19616589D01*
X8773475Y-19373368D01*
X8566632Y-19166525D01*
X8392240Y-19050000D01*
X8566632Y-18933475D01*
X8773475Y-18726632D01*
X8935990Y-18483411D01*
X9047932Y-18213158D01*
X9105000Y-17926260D01*
X9105000Y-17633740D01*
X9047932Y-17346842D01*
X8935990Y-17076589D01*
X8773475Y-16833368D01*
X8566632Y-16626525D01*
X8392240Y-16510000D01*
X8566632Y-16393475D01*
X8773475Y-16186632D01*
X8935990Y-15943411D01*
X9047932Y-15673158D01*
X9105000Y-15386260D01*
X9105000Y-15093740D01*
X9047932Y-14806842D01*
X8935990Y-14536589D01*
X8773475Y-14293368D01*
X8566632Y-14086525D01*
X8392240Y-13970000D01*
X8566632Y-13853475D01*
X8773475Y-13646632D01*
X8935990Y-13403411D01*
X9047932Y-13133158D01*
X9105000Y-12846260D01*
X9105000Y-12553740D01*
X9047932Y-12266842D01*
X8935990Y-11996589D01*
X8773475Y-11753368D01*
X8566632Y-11546525D01*
X8392240Y-11430000D01*
X8566632Y-11313475D01*
X8773475Y-11106632D01*
X8935990Y-10863411D01*
X9047932Y-10593158D01*
X9105000Y-10306260D01*
X9105000Y-10013740D01*
X9047932Y-9726842D01*
X8935990Y-9456589D01*
X8773475Y-9213368D01*
X8566632Y-9006525D01*
X8392240Y-8890000D01*
X8566632Y-8773475D01*
X8773475Y-8566632D01*
X8935990Y-8323411D01*
X9047932Y-8053158D01*
X9105000Y-7766260D01*
X9105000Y-7473740D01*
X9047932Y-7186842D01*
X8935990Y-6916589D01*
X8773475Y-6673368D01*
X8566632Y-6466525D01*
X8392240Y-6350000D01*
X8566632Y-6233475D01*
X8773475Y-6026632D01*
X8935990Y-5783411D01*
X9047932Y-5513158D01*
X9105000Y-5226260D01*
X9105000Y-4933740D01*
X9047932Y-4646842D01*
X8935990Y-4376589D01*
X8773475Y-4133368D01*
X8566632Y-3926525D01*
X8392240Y-3810000D01*
X8566632Y-3693475D01*
X8773475Y-3486632D01*
X8935990Y-3243411D01*
X9047932Y-2973158D01*
X9105000Y-2686260D01*
X9105000Y-2393740D01*
X9047932Y-2106842D01*
X8935990Y-1836589D01*
X8773475Y-1593368D01*
X8641620Y-1461513D01*
X8714180Y-1439502D01*
X8824494Y-1380537D01*
X8921185Y-1301185D01*
X9000537Y-1204494D01*
X9059502Y-1094180D01*
X9095812Y-974482D01*
X9108072Y-850000D01*
X9108072Y850000D01*
X9095812Y974482D01*
X9059502Y1094180D01*
X9013280Y1180654D01*
X9084142Y1202150D01*
X9232275Y1281329D01*
X9340001Y1369737D01*
X9340000Y-44467721D01*
G37*
X9340000Y-44467721D02*
X9330420Y-44565424D01*
X9311420Y-44628357D01*
X9280554Y-44686406D01*
X9239011Y-44737343D01*
X9188356Y-44779248D01*
X9130529Y-44810515D01*
X9067728Y-44829956D01*
X8972165Y-44840000D01*
X-8967721Y-44840000D01*
X-9065424Y-44830420D01*
X-9128357Y-44811420D01*
X-9186406Y-44780554D01*
X-9237343Y-44739011D01*
X-9279248Y-44688356D01*
X-9310515Y-44630529D01*
X-9329956Y-44567728D01*
X-9340000Y-44472165D01*
X-9340000Y-43536890D01*
X-9061476Y-43536890D01*
X-9016825Y-43684099D01*
X-8891641Y-43946920D01*
X-8717588Y-44180269D01*
X-8501355Y-44375178D01*
X-8251252Y-44524157D01*
X-7976891Y-44621481D01*
X-7747000Y-44500814D01*
X-7747000Y-43307000D01*
X-7493000Y-43307000D01*
X-7493000Y-44500814D01*
X-7263109Y-44621481D01*
X-6988748Y-44524157D01*
X-6738645Y-44375178D01*
X-6522412Y-44180269D01*
X-6348359Y-43946920D01*
X-6223175Y-43684099D01*
X-6178524Y-43536890D01*
X6178524Y-43536890D01*
X6223175Y-43684099D01*
X6348359Y-43946920D01*
X6522412Y-44180269D01*
X6738645Y-44375178D01*
X6988748Y-44524157D01*
X7263109Y-44621481D01*
X7493000Y-44500814D01*
X7493000Y-43307000D01*
X7747000Y-43307000D01*
X7747000Y-44500814D01*
X7976891Y-44621481D01*
X8251252Y-44524157D01*
X8501355Y-44375178D01*
X8717588Y-44180269D01*
X8891641Y-43946920D01*
X9016825Y-43684099D01*
X9061476Y-43536890D01*
X8940155Y-43307000D01*
X7747000Y-43307000D01*
X7493000Y-43307000D01*
X6299845Y-43307000D01*
X6178524Y-43536890D01*
X-6178524Y-43536890D01*
X-6299845Y-43307000D01*
X-7493000Y-43307000D01*
X-7747000Y-43307000D01*
X-8940155Y-43307000D01*
X-9061476Y-43536890D01*
X-9340000Y-43536890D01*
X-9340000Y801569D01*
X-9335779Y758712D01*
X-9326691Y728754D01*
X-9289462Y606027D01*
X-9214249Y465311D01*
X-9180572Y424276D01*
X-9113027Y341972D01*
X-9108072Y337906D01*
X-9108072Y-850000D01*
X-9095812Y-974482D01*
X-9059502Y-1094180D01*
X-9000537Y-1204494D01*
X-8921185Y-1301185D01*
X-8824494Y-1380537D01*
X-8714180Y-1439502D01*
X-8633534Y-1463966D01*
X-8717588Y-1539731D01*
X-8891641Y-1773080D01*
X-9016825Y-2035901D01*
X-9061476Y-2183110D01*
X-8940155Y-2413000D01*
X-7747000Y-2413000D01*
X-7747000Y-2393000D01*
X-7493000Y-2393000D01*
X-7493000Y-2413000D01*
X-6299845Y-2413000D01*
X-6178524Y-2183110D01*
X-6223175Y-2035901D01*
X-6348359Y-1773080D01*
X-6522412Y-1539731D01*
X-6606466Y-1463966D01*
X-6525820Y-1439502D01*
X-6415506Y-1380537D01*
X-6318815Y-1301185D01*
X-6239463Y-1204494D01*
X-6227689Y-1182468D01*
X-6084999Y-1325158D01*
X-6085000Y-4796449D01*
X-6088797Y-4835002D01*
X-6085000Y-4873555D01*
X-6085000Y-4873562D01*
X-6073641Y-4988888D01*
X-6028754Y-5136861D01*
X-5955862Y-5273234D01*
X-5857764Y-5392766D01*
X-5827810Y-5417349D01*
X-5417349Y-5827810D01*
X-5392766Y-5857764D01*
X-5273235Y-5955862D01*
X-5246587Y-5970106D01*
X-5255812Y-6000518D01*
X-5268072Y-6125000D01*
X-5268072Y-6775000D01*
X-5255812Y-6899482D01*
X-5219502Y-7019180D01*
X-5160537Y-7129494D01*
X-5096416Y-7207626D01*
X-5108940Y-7214321D01*
X-5227983Y-7312017D01*
X-5325679Y-7431060D01*
X-5398274Y-7566875D01*
X-5442977Y-7714243D01*
X-5458072Y-7867500D01*
X-5458072Y-8162500D01*
X-5442977Y-8315757D01*
X-5405688Y-8438684D01*
X-5409502Y-8445820D01*
X-5445812Y-8565518D01*
X-5458072Y-8690000D01*
X-5455000Y-8699250D01*
X-5296250Y-8858000D01*
X-5029763Y-8858000D01*
X-4973125Y-8888274D01*
X-4825757Y-8932977D01*
X-4672500Y-8948072D01*
X-4353000Y-8948072D01*
X-4353000Y-9112000D01*
X-4373000Y-9112000D01*
X-4373000Y-9756250D01*
X-4214250Y-9915000D01*
X-4180000Y-9918072D01*
X-4055518Y-9905812D01*
X-3935820Y-9869502D01*
X-3825506Y-9810537D01*
X-3728815Y-9731185D01*
X-3649463Y-9634494D01*
X-3641984Y-9620503D01*
X-3624482Y-9625812D01*
X-3500000Y-9638072D01*
X-2500000Y-9638072D01*
X-2375518Y-9625812D01*
X-2358016Y-9620503D01*
X-2350537Y-9634494D01*
X-2271185Y-9731185D01*
X-2174494Y-9810537D01*
X-2064180Y-9869502D01*
X-1944482Y-9905812D01*
X-1820000Y-9918072D01*
X-1785750Y-9915000D01*
X-1627000Y-9756250D01*
X-1627000Y-9112000D01*
X-1647000Y-9112000D01*
X-1647000Y-8948072D01*
X-1353000Y-8948072D01*
X-1353000Y-9112000D01*
X-1373000Y-9112000D01*
X-1373000Y-9756250D01*
X-1214250Y-9915000D01*
X-1180000Y-9918072D01*
X-1055518Y-9905812D01*
X-935820Y-9869502D01*
X-825506Y-9810537D01*
X-728815Y-9731185D01*
X-649463Y-9634494D01*
X-641984Y-9620503D01*
X-624482Y-9625812D01*
X-500000Y-9638072D01*
X65001Y-9638072D01*
X65001Y-9671290D01*
X46064Y-9690227D01*
X-67204Y-9859745D01*
X-145225Y-10048103D01*
X-184999Y-10248062D01*
X-184999Y-10451940D01*
X-163098Y-10562045D01*
X-2808493Y-10562045D01*
X-2847046Y-10558248D01*
X-2885599Y-10562045D01*
X-2885606Y-10562045D01*
X-2979814Y-10571324D01*
X-3000933Y-10573404D01*
X-3035373Y-10583851D01*
X-3148905Y-10618291D01*
X-3285278Y-10691183D01*
X-3325661Y-10724325D01*
X-3374858Y-10764700D01*
X-3374861Y-10764703D01*
X-3404809Y-10789281D01*
X-3429387Y-10819229D01*
X-5094546Y-12484389D01*
X-5124494Y-12508967D01*
X-5149072Y-12538915D01*
X-5149076Y-12538919D01*
X-5175451Y-12571057D01*
X-5222592Y-12628498D01*
X-5234989Y-12651691D01*
X-5234989Y-11185923D01*
X-5231313Y-11148600D01*
X-5234989Y-11111277D01*
X-5234989Y-11111268D01*
X-5245986Y-10999615D01*
X-5289443Y-10856354D01*
X-5360015Y-10724325D01*
X-5454988Y-10608600D01*
X-5483991Y-10584798D01*
X-5684999Y-10383790D01*
X-5684999Y-9280000D01*
X-5458072Y-9280000D01*
X-5445812Y-9404482D01*
X-5409502Y-9524180D01*
X-5350537Y-9634494D01*
X-5271185Y-9731185D01*
X-5174494Y-9810537D01*
X-5064180Y-9869502D01*
X-4944482Y-9905812D01*
X-4820000Y-9918072D01*
X-4785750Y-9915000D01*
X-4627000Y-9756250D01*
X-4627000Y-9112000D01*
X-5296250Y-9112000D01*
X-5455000Y-9270750D01*
X-5458072Y-9280000D01*
X-5684999Y-9280000D01*
X-5684999Y-8832323D01*
X-5681323Y-8795000D01*
X-5684999Y-8757677D01*
X-5684999Y-8757668D01*
X-5695996Y-8646015D01*
X-5739453Y-8502754D01*
X-5810025Y-8370725D01*
X-5904998Y-8255000D01*
X-5933995Y-8231203D01*
X-6178790Y-7986408D01*
X-6135000Y-7766260D01*
X-6135000Y-7473740D01*
X-6192068Y-7186842D01*
X-6304010Y-6916589D01*
X-6466525Y-6673368D01*
X-6673368Y-6466525D01*
X-6847760Y-6350000D01*
X-6673368Y-6233475D01*
X-6466525Y-6026632D01*
X-6304010Y-5783411D01*
X-6192068Y-5513158D01*
X-6135000Y-5226260D01*
X-6135000Y-4933740D01*
X-6192068Y-4646842D01*
X-6304010Y-4376589D01*
X-6466525Y-4133368D01*
X-6673368Y-3926525D01*
X-6855534Y-3804805D01*
X-6738645Y-3735178D01*
X-6522412Y-3540269D01*
X-6348359Y-3306920D01*
X-6223175Y-3044099D01*
X-6178524Y-2896890D01*
X-6299845Y-2667000D01*
X-7493000Y-2667000D01*
X-7493000Y-2687000D01*
X-7747000Y-2687000D01*
X-7747000Y-2667000D01*
X-8940155Y-2667000D01*
X-9061476Y-2896890D01*
X-9016825Y-3044099D01*
X-8891641Y-3306920D01*
X-8717588Y-3540269D01*
X-8501355Y-3735178D01*
X-8384466Y-3804805D01*
X-8566632Y-3926525D01*
X-8773475Y-4133368D01*
X-8935990Y-4376589D01*
X-9047932Y-4646842D01*
X-9105000Y-4933740D01*
X-9105000Y-5226260D01*
X-9047932Y-5513158D01*
X-8935990Y-5783411D01*
X-8773475Y-6026632D01*
X-8566632Y-6233475D01*
X-8392240Y-6350000D01*
X-8566632Y-6466525D01*
X-8773475Y-6673368D01*
X-8935990Y-6916589D01*
X-9047932Y-7186842D01*
X-9105000Y-7473740D01*
X-9105000Y-7766260D01*
X-9047932Y-8053158D01*
X-8935990Y-8323411D01*
X-8773475Y-8566632D01*
X-8566632Y-8773475D01*
X-8392240Y-8890000D01*
X-8566632Y-9006525D01*
X-8773475Y-9213368D01*
X-8935990Y-9456589D01*
X-9047932Y-9726842D01*
X-9105000Y-10013740D01*
X-9105000Y-10306260D01*
X-9047932Y-10593158D01*
X-8935990Y-10863411D01*
X-8773475Y-11106632D01*
X-8566632Y-11313475D01*
X-8392240Y-11430000D01*
X-8566632Y-11546525D01*
X-8773475Y-11753368D01*
X-8935990Y-11996589D01*
X-9047932Y-12266842D01*
X-9105000Y-12553740D01*
X-9105000Y-12846260D01*
X-9047932Y-13133158D01*
X-8935990Y-13403411D01*
X-8773475Y-13646632D01*
X-8566632Y-13853475D01*
X-8392240Y-13970000D01*
X-8566632Y-14086525D01*
X-8773475Y-14293368D01*
X-8935990Y-14536589D01*
X-9047932Y-14806842D01*
X-9105000Y-15093740D01*
X-9105000Y-15386260D01*
X-9047932Y-15673158D01*
X-8935990Y-15943411D01*
X-8773475Y-16186632D01*
X-8566632Y-16393475D01*
X-8392240Y-16510000D01*
X-8566632Y-16626525D01*
X-8773475Y-16833368D01*
X-8935990Y-17076589D01*
X-9047932Y-17346842D01*
X-9105000Y-17633740D01*
X-9105000Y-17926260D01*
X-9047932Y-18213158D01*
X-8935990Y-18483411D01*
X-8773475Y-18726632D01*
X-8566632Y-18933475D01*
X-8392240Y-19050000D01*
X-8566632Y-19166525D01*
X-8773475Y-19373368D01*
X-8935990Y-19616589D01*
X-9047932Y-19886842D01*
X-9105000Y-20173740D01*
X-9105000Y-20466260D01*
X-9047932Y-20753158D01*
X-8935990Y-21023411D01*
X-8773475Y-21266632D01*
X-8566632Y-21473475D01*
X-8392240Y-21590000D01*
X-8566632Y-21706525D01*
X-8773475Y-21913368D01*
X-8935990Y-22156589D01*
X-9047932Y-22426842D01*
X-9105000Y-22713740D01*
X-9105000Y-23006260D01*
X-9047932Y-23293158D01*
X-8935990Y-23563411D01*
X-8773475Y-23806632D01*
X-8566632Y-24013475D01*
X-8392240Y-24130000D01*
X-8566632Y-24246525D01*
X-8773475Y-24453368D01*
X-8935990Y-24696589D01*
X-9047932Y-24966842D01*
X-9105000Y-25253740D01*
X-9105000Y-25546260D01*
X-9047932Y-25833158D01*
X-8935990Y-26103411D01*
X-8773475Y-26346632D01*
X-8566632Y-26553475D01*
X-8392240Y-26670000D01*
X-8566632Y-26786525D01*
X-8773475Y-26993368D01*
X-8935990Y-27236589D01*
X-9047932Y-27506842D01*
X-9105000Y-27793740D01*
X-9105000Y-28086260D01*
X-9047932Y-28373158D01*
X-8935990Y-28643411D01*
X-8773475Y-28886632D01*
X-8566632Y-29093475D01*
X-8392240Y-29210000D01*
X-8566632Y-29326525D01*
X-8773475Y-29533368D01*
X-8935990Y-29776589D01*
X-9047932Y-30046842D01*
X-9105000Y-30333740D01*
X-9105000Y-30626260D01*
X-9047932Y-30913158D01*
X-8935990Y-31183411D01*
X-8773475Y-31426632D01*
X-8566632Y-31633475D01*
X-8392240Y-31750000D01*
X-8566632Y-31866525D01*
X-8773475Y-32073368D01*
X-8935990Y-32316589D01*
X-9047932Y-32586842D01*
X-9105000Y-32873740D01*
X-9105000Y-33166260D01*
X-9047932Y-33453158D01*
X-8935990Y-33723411D01*
X-8773475Y-33966632D01*
X-8566632Y-34173475D01*
X-8392240Y-34290000D01*
X-8566632Y-34406525D01*
X-8773475Y-34613368D01*
X-8935990Y-34856589D01*
X-9047932Y-35126842D01*
X-9105000Y-35413740D01*
X-9105000Y-35706260D01*
X-9047932Y-35993158D01*
X-8935990Y-36263411D01*
X-8773475Y-36506632D01*
X-8566632Y-36713475D01*
X-8392240Y-36830000D01*
X-8566632Y-36946525D01*
X-8773475Y-37153368D01*
X-8935990Y-37396589D01*
X-9047932Y-37666842D01*
X-9105000Y-37953740D01*
X-9105000Y-38246260D01*
X-9047932Y-38533158D01*
X-8935990Y-38803411D01*
X-8773475Y-39046632D01*
X-8566632Y-39253475D01*
X-8392240Y-39370000D01*
X-8566632Y-39486525D01*
X-8773475Y-39693368D01*
X-8935990Y-39936589D01*
X-9047932Y-40206842D01*
X-9105000Y-40493740D01*
X-9105000Y-40786260D01*
X-9047932Y-41073158D01*
X-8935990Y-41343411D01*
X-8773475Y-41586632D01*
X-8566632Y-41793475D01*
X-8384466Y-41915195D01*
X-8501355Y-41984822D01*
X-8717588Y-42179731D01*
X-8891641Y-42413080D01*
X-9016825Y-42675901D01*
X-9061476Y-42823110D01*
X-8940155Y-43053000D01*
X-7747000Y-43053000D01*
X-7747000Y-43033000D01*
X-7493000Y-43033000D01*
X-7493000Y-43053000D01*
X-6299845Y-43053000D01*
X-6178524Y-42823110D01*
X-6223175Y-42675901D01*
X-6348359Y-42413080D01*
X-6522412Y-42179731D01*
X-6738645Y-41984822D01*
X-6855534Y-41915195D01*
X-6673368Y-41793475D01*
X-6466525Y-41586632D01*
X-6304010Y-41343411D01*
X-6192068Y-41073158D01*
X-6135000Y-40786260D01*
X-6135000Y-40493740D01*
X-6192068Y-40206842D01*
X-6304010Y-39936589D01*
X-6466525Y-39693368D01*
X-6673368Y-39486525D01*
X-6847760Y-39370000D01*
X-6673368Y-39253475D01*
X-6466525Y-39046632D01*
X-6304010Y-38803411D01*
X-6192068Y-38533158D01*
X-6135000Y-38246260D01*
X-6135000Y-37953740D01*
X-6178791Y-37733592D01*
X-3838976Y-35393778D01*
X-3809979Y-35369981D01*
X-3715006Y-35254256D01*
X-3644434Y-35122227D01*
X-3600977Y-34978966D01*
X-3589980Y-34867313D01*
X-3589980Y-34867305D01*
X-3586304Y-34829980D01*
X-3589980Y-34792655D01*
X-3589980Y-33671111D01*
X-3574482Y-33675812D01*
X-3450000Y-33688072D01*
X-1750000Y-33688072D01*
X-1625518Y-33675812D01*
X-1505820Y-33639502D01*
X-1395506Y-33580537D01*
X-1298815Y-33501185D01*
X-1219463Y-33404494D01*
X-1160498Y-33294180D01*
X-1138487Y-33221620D01*
X-1006632Y-33353475D01*
X-763411Y-33515990D01*
X-493158Y-33627932D01*
X-206260Y-33685000D01*
X86260Y-33685000D01*
X373158Y-33627932D01*
X643411Y-33515990D01*
X886632Y-33353475D01*
X1093475Y-33146632D01*
X1210000Y-32972240D01*
X1326525Y-33146632D01*
X1533368Y-33353475D01*
X1776589Y-33515990D01*
X2046842Y-33627932D01*
X2333740Y-33685000D01*
X2626260Y-33685000D01*
X2913158Y-33627932D01*
X3183411Y-33515990D01*
X3426632Y-33353475D01*
X3434950Y-33345157D01*
X3434950Y-34637617D01*
X3431273Y-34674949D01*
X3445947Y-34823934D01*
X3489403Y-34967195D01*
X3559975Y-35099225D01*
X3631150Y-35185951D01*
X3654949Y-35214950D01*
X3683947Y-35238748D01*
X6178790Y-37733592D01*
X6135000Y-37953740D01*
X6135000Y-38246260D01*
X6192068Y-38533158D01*
X6304010Y-38803411D01*
X6466525Y-39046632D01*
X6673368Y-39253475D01*
X6847760Y-39370000D01*
X6673368Y-39486525D01*
X6466525Y-39693368D01*
X6304010Y-39936589D01*
X6192068Y-40206842D01*
X6135000Y-40493740D01*
X6135000Y-40786260D01*
X6192068Y-41073158D01*
X6304010Y-41343411D01*
X6466525Y-41586632D01*
X6673368Y-41793475D01*
X6855534Y-41915195D01*
X6738645Y-41984822D01*
X6522412Y-42179731D01*
X6348359Y-42413080D01*
X6223175Y-42675901D01*
X6178524Y-42823110D01*
X6299845Y-43053000D01*
X7493000Y-43053000D01*
X7493000Y-43033000D01*
X7747000Y-43033000D01*
X7747000Y-43053000D01*
X8940155Y-43053000D01*
X9061476Y-42823110D01*
X9016825Y-42675901D01*
X8891641Y-42413080D01*
X8717588Y-42179731D01*
X8501355Y-41984822D01*
X8384466Y-41915195D01*
X8566632Y-41793475D01*
X8773475Y-41586632D01*
X8935990Y-41343411D01*
X9047932Y-41073158D01*
X9105000Y-40786260D01*
X9105000Y-40493740D01*
X9047932Y-40206842D01*
X8935990Y-39936589D01*
X8773475Y-39693368D01*
X8566632Y-39486525D01*
X8392240Y-39370000D01*
X8566632Y-39253475D01*
X8773475Y-39046632D01*
X8935990Y-38803411D01*
X9047932Y-38533158D01*
X9105000Y-38246260D01*
X9105000Y-37953740D01*
X9047932Y-37666842D01*
X8935990Y-37396589D01*
X8773475Y-37153368D01*
X8566632Y-36946525D01*
X8392240Y-36830000D01*
X8566632Y-36713475D01*
X8773475Y-36506632D01*
X8935990Y-36263411D01*
X9047932Y-35993158D01*
X9105000Y-35706260D01*
X9105000Y-35413740D01*
X9047932Y-35126842D01*
X8935990Y-34856589D01*
X8773475Y-34613368D01*
X8566632Y-34406525D01*
X8392240Y-34290000D01*
X8566632Y-34173475D01*
X8773475Y-33966632D01*
X8935990Y-33723411D01*
X9047932Y-33453158D01*
X9105000Y-33166260D01*
X9105000Y-32873740D01*
X9047932Y-32586842D01*
X8935990Y-32316589D01*
X8773475Y-32073368D01*
X8566632Y-31866525D01*
X8392240Y-31750000D01*
X8566632Y-31633475D01*
X8773475Y-31426632D01*
X8935990Y-31183411D01*
X9047932Y-30913158D01*
X9105000Y-30626260D01*
X9105000Y-30333740D01*
X9047932Y-30046842D01*
X8935990Y-29776589D01*
X8773475Y-29533368D01*
X8566632Y-29326525D01*
X8392240Y-29210000D01*
X8566632Y-29093475D01*
X8773475Y-28886632D01*
X8935990Y-28643411D01*
X9047932Y-28373158D01*
X9105000Y-28086260D01*
X9105000Y-27793740D01*
X9047932Y-27506842D01*
X8935990Y-27236589D01*
X8773475Y-26993368D01*
X8566632Y-26786525D01*
X8392240Y-26670000D01*
X8566632Y-26553475D01*
X8773475Y-26346632D01*
X8935990Y-26103411D01*
X9047932Y-25833158D01*
X9105000Y-25546260D01*
X9105000Y-25253740D01*
X9047932Y-24966842D01*
X8935990Y-24696589D01*
X8773475Y-24453368D01*
X8566632Y-24246525D01*
X8392240Y-24130000D01*
X8566632Y-24013475D01*
X8773475Y-23806632D01*
X8935990Y-23563411D01*
X9047932Y-23293158D01*
X9105000Y-23006260D01*
X9105000Y-22713740D01*
X9047932Y-22426842D01*
X8935990Y-22156589D01*
X8773475Y-21913368D01*
X8566632Y-21706525D01*
X8392240Y-21590000D01*
X8566632Y-21473475D01*
X8773475Y-21266632D01*
X8935990Y-21023411D01*
X9047932Y-20753158D01*
X9105000Y-20466260D01*
X9105000Y-20173740D01*
X9047932Y-19886842D01*
X8935990Y-19616589D01*
X8773475Y-19373368D01*
X8566632Y-19166525D01*
X8392240Y-19050000D01*
X8566632Y-18933475D01*
X8773475Y-18726632D01*
X8935990Y-18483411D01*
X9047932Y-18213158D01*
X9105000Y-17926260D01*
X9105000Y-17633740D01*
X9047932Y-17346842D01*
X8935990Y-17076589D01*
X8773475Y-16833368D01*
X8566632Y-16626525D01*
X8392240Y-16510000D01*
X8566632Y-16393475D01*
X8773475Y-16186632D01*
X8935990Y-15943411D01*
X9047932Y-15673158D01*
X9105000Y-15386260D01*
X9105000Y-15093740D01*
X9047932Y-14806842D01*
X8935990Y-14536589D01*
X8773475Y-14293368D01*
X8566632Y-14086525D01*
X8392240Y-13970000D01*
X8566632Y-13853475D01*
X8773475Y-13646632D01*
X8935990Y-13403411D01*
X9047932Y-13133158D01*
X9105000Y-12846260D01*
X9105000Y-12553740D01*
X9047932Y-12266842D01*
X8935990Y-11996589D01*
X8773475Y-11753368D01*
X8566632Y-11546525D01*
X8392240Y-11430000D01*
X8566632Y-11313475D01*
X8773475Y-11106632D01*
X8935990Y-10863411D01*
X9047932Y-10593158D01*
X9105000Y-10306260D01*
X9105000Y-10013740D01*
X9047932Y-9726842D01*
X8935990Y-9456589D01*
X8773475Y-9213368D01*
X8566632Y-9006525D01*
X8392240Y-8890000D01*
X8566632Y-8773475D01*
X8773475Y-8566632D01*
X8935990Y-8323411D01*
X9047932Y-8053158D01*
X9105000Y-7766260D01*
X9105000Y-7473740D01*
X9047932Y-7186842D01*
X8935990Y-6916589D01*
X8773475Y-6673368D01*
X8566632Y-6466525D01*
X8392240Y-6350000D01*
X8566632Y-6233475D01*
X8773475Y-6026632D01*
X8935990Y-5783411D01*
X9047932Y-5513158D01*
X9105000Y-5226260D01*
X9105000Y-4933740D01*
X9047932Y-4646842D01*
X8935990Y-4376589D01*
X8773475Y-4133368D01*
X8566632Y-3926525D01*
X8392240Y-3810000D01*
X8566632Y-3693475D01*
X8773475Y-3486632D01*
X8935990Y-3243411D01*
X9047932Y-2973158D01*
X9105000Y-2686260D01*
X9105000Y-2393740D01*
X9047932Y-2106842D01*
X8935990Y-1836589D01*
X8773475Y-1593368D01*
X8641620Y-1461513D01*
X8714180Y-1439502D01*
X8824494Y-1380537D01*
X8921185Y-1301185D01*
X9000537Y-1204494D01*
X9059502Y-1094180D01*
X9095812Y-974482D01*
X9108072Y-850000D01*
X9108072Y850000D01*
X9095812Y974482D01*
X9059502Y1094180D01*
X9013280Y1180654D01*
X9084142Y1202150D01*
X9232275Y1281329D01*
X9340001Y1369737D01*
X9340000Y-44467721D01*
G36*
X3434949Y-24631071D02*
G01*
X3434949Y-28528609D01*
X3246920Y-28388359D01*
X2984099Y-28263175D01*
X2836890Y-28218524D01*
X2607000Y-28339845D01*
X2607000Y-29533000D01*
X2627000Y-29533000D01*
X2627000Y-29787000D01*
X2607000Y-29787000D01*
X2607000Y-29807000D01*
X2353000Y-29807000D01*
X2353000Y-29787000D01*
X2333000Y-29787000D01*
X2333000Y-29533000D01*
X2353000Y-29533000D01*
X2353000Y-28339845D01*
X2123110Y-28218524D01*
X1975901Y-28263175D01*
X1713080Y-28388359D01*
X1479731Y-28562412D01*
X1284822Y-28778645D01*
X1215195Y-28895534D01*
X1093475Y-28713368D01*
X886632Y-28506525D01*
X643411Y-28344010D01*
X373158Y-28232068D01*
X86260Y-28175000D01*
X-206260Y-28175000D01*
X-493158Y-28232068D01*
X-740625Y-28334572D01*
X-1114999Y-27960198D01*
X-1114999Y-27898061D01*
X-1154773Y-27698102D01*
X-1232794Y-27509744D01*
X-1346062Y-27340226D01*
X-1490225Y-27196063D01*
X-1659743Y-27082795D01*
X-1848101Y-27004774D01*
X-2048060Y-26965000D01*
X-2251938Y-26965000D01*
X-2451897Y-27004774D01*
X-2640255Y-27082795D01*
X-2809773Y-27196063D01*
X-2953936Y-27340226D01*
X-3067204Y-27509744D01*
X-3145225Y-27698102D01*
X-3184999Y-27898061D01*
X-3184999Y-28101939D01*
X-3149527Y-28280269D01*
X-3303411Y-28344010D01*
X-3546632Y-28506525D01*
X-3589980Y-28549873D01*
X-3589980Y-26200315D01*
X-1855387Y-24465722D01*
X-1863072Y-24543750D01*
X-1863072Y-25056250D01*
X-1846608Y-25223408D01*
X-1797850Y-25384142D01*
X-1718671Y-25532275D01*
X-1612115Y-25662115D01*
X-1482275Y-25768671D01*
X-1386484Y-25819872D01*
X-1402977Y-25874243D01*
X-1418072Y-26027500D01*
X-1418072Y-26372500D01*
X-1402977Y-26525757D01*
X-1358274Y-26673125D01*
X-1285679Y-26808940D01*
X-1187983Y-26927983D01*
X-1068940Y-27025679D01*
X-933125Y-27098274D01*
X-785757Y-27142977D01*
X-632500Y-27158072D01*
X-337500Y-27158072D01*
X-184243Y-27142977D01*
X-61316Y-27105688D01*
X-54180Y-27109502D01*
X65518Y-27145812D01*
X190000Y-27158072D01*
X199250Y-27155000D01*
X358000Y-26996250D01*
X358000Y-26729763D01*
X388274Y-26673125D01*
X432977Y-26525757D01*
X448072Y-26372500D01*
X448072Y-26327000D01*
X612000Y-26327000D01*
X612000Y-26996250D01*
X770750Y-27155000D01*
X780000Y-27158072D01*
X904482Y-27145812D01*
X1024180Y-27109502D01*
X1134494Y-27050537D01*
X1231185Y-26971185D01*
X1310537Y-26874494D01*
X1369502Y-26764180D01*
X1405812Y-26644482D01*
X1418072Y-26520000D01*
X1415000Y-26485750D01*
X1256250Y-26327000D01*
X612000Y-26327000D01*
X448072Y-26327000D01*
X448072Y-26053000D01*
X612000Y-26053000D01*
X612000Y-26073000D01*
X1256250Y-26073000D01*
X1415000Y-25914250D01*
X1418072Y-25880000D01*
X1410867Y-25806840D01*
X1482275Y-25768671D01*
X1612115Y-25662115D01*
X1718671Y-25532275D01*
X1797850Y-25384142D01*
X1846608Y-25223408D01*
X1863072Y-25056250D01*
X1863072Y-24811729D01*
X2739340Y-23935462D01*
X3434949Y-24631071D01*
G37*
X3434949Y-24631071D02*
X3434949Y-28528609D01*
X3246920Y-28388359D01*
X2984099Y-28263175D01*
X2836890Y-28218524D01*
X2607000Y-28339845D01*
X2607000Y-29533000D01*
X2627000Y-29533000D01*
X2627000Y-29787000D01*
X2607000Y-29787000D01*
X2607000Y-29807000D01*
X2353000Y-29807000D01*
X2353000Y-29787000D01*
X2333000Y-29787000D01*
X2333000Y-29533000D01*
X2353000Y-29533000D01*
X2353000Y-28339845D01*
X2123110Y-28218524D01*
X1975901Y-28263175D01*
X1713080Y-28388359D01*
X1479731Y-28562412D01*
X1284822Y-28778645D01*
X1215195Y-28895534D01*
X1093475Y-28713368D01*
X886632Y-28506525D01*
X643411Y-28344010D01*
X373158Y-28232068D01*
X86260Y-28175000D01*
X-206260Y-28175000D01*
X-493158Y-28232068D01*
X-740625Y-28334572D01*
X-1114999Y-27960198D01*
X-1114999Y-27898061D01*
X-1154773Y-27698102D01*
X-1232794Y-27509744D01*
X-1346062Y-27340226D01*
X-1490225Y-27196063D01*
X-1659743Y-27082795D01*
X-1848101Y-27004774D01*
X-2048060Y-26965000D01*
X-2251938Y-26965000D01*
X-2451897Y-27004774D01*
X-2640255Y-27082795D01*
X-2809773Y-27196063D01*
X-2953936Y-27340226D01*
X-3067204Y-27509744D01*
X-3145225Y-27698102D01*
X-3184999Y-27898061D01*
X-3184999Y-28101939D01*
X-3149527Y-28280269D01*
X-3303411Y-28344010D01*
X-3546632Y-28506525D01*
X-3589980Y-28549873D01*
X-3589980Y-26200315D01*
X-1855387Y-24465722D01*
X-1863072Y-24543750D01*
X-1863072Y-25056250D01*
X-1846608Y-25223408D01*
X-1797850Y-25384142D01*
X-1718671Y-25532275D01*
X-1612115Y-25662115D01*
X-1482275Y-25768671D01*
X-1386484Y-25819872D01*
X-1402977Y-25874243D01*
X-1418072Y-26027500D01*
X-1418072Y-26372500D01*
X-1402977Y-26525757D01*
X-1358274Y-26673125D01*
X-1285679Y-26808940D01*
X-1187983Y-26927983D01*
X-1068940Y-27025679D01*
X-933125Y-27098274D01*
X-785757Y-27142977D01*
X-632500Y-27158072D01*
X-337500Y-27158072D01*
X-184243Y-27142977D01*
X-61316Y-27105688D01*
X-54180Y-27109502D01*
X65518Y-27145812D01*
X190000Y-27158072D01*
X199250Y-27155000D01*
X358000Y-26996250D01*
X358000Y-26729763D01*
X388274Y-26673125D01*
X432977Y-26525757D01*
X448072Y-26372500D01*
X448072Y-26327000D01*
X612000Y-26327000D01*
X612000Y-26996250D01*
X770750Y-27155000D01*
X780000Y-27158072D01*
X904482Y-27145812D01*
X1024180Y-27109502D01*
X1134494Y-27050537D01*
X1231185Y-26971185D01*
X1310537Y-26874494D01*
X1369502Y-26764180D01*
X1405812Y-26644482D01*
X1418072Y-26520000D01*
X1415000Y-26485750D01*
X1256250Y-26327000D01*
X612000Y-26327000D01*
X448072Y-26327000D01*
X448072Y-26053000D01*
X612000Y-26053000D01*
X612000Y-26073000D01*
X1256250Y-26073000D01*
X1415000Y-25914250D01*
X1418072Y-25880000D01*
X1410867Y-25806840D01*
X1482275Y-25768671D01*
X1612115Y-25662115D01*
X1718671Y-25532275D01*
X1797850Y-25384142D01*
X1846608Y-25223408D01*
X1863072Y-25056250D01*
X1863072Y-24811729D01*
X2739340Y-23935462D01*
X3434949Y-24631071D01*
G36*
X-6503937Y-21359774D02*
G01*
X-6359774Y-21503937D01*
X-6190256Y-21617205D01*
X-6001898Y-21695226D01*
X-5801939Y-21735000D01*
X-5763024Y-21735000D01*
X-5729003Y-21776454D01*
X-5702612Y-21798501D01*
X-5580409Y-21798501D01*
X-5881908Y-22100000D01*
X-6341822Y-22100000D01*
X-6466525Y-21913368D01*
X-6673368Y-21706525D01*
X-6847760Y-21590000D01*
X-6673368Y-21473475D01*
X-6526259Y-21326366D01*
X-6503937Y-21359774D01*
G37*
X-6503937Y-21359774D02*
X-6359774Y-21503937D01*
X-6190256Y-21617205D01*
X-6001898Y-21695226D01*
X-5801939Y-21735000D01*
X-5763024Y-21735000D01*
X-5729003Y-21776454D01*
X-5702612Y-21798501D01*
X-5580409Y-21798501D01*
X-5881908Y-22100000D01*
X-6341822Y-22100000D01*
X-6466525Y-21913368D01*
X-6673368Y-21706525D01*
X-6847760Y-21590000D01*
X-6673368Y-21473475D01*
X-6526259Y-21326366D01*
X-6503937Y-21359774D01*
G36*
X193748Y-17985858D02*
G01*
X179605Y-18000000D01*
X193748Y-18014143D01*
X14143Y-18193748D01*
X0Y-18179605D01*
X-14143Y-18193748D01*
X-193748Y-18014143D01*
X-179605Y-18000000D01*
X-193748Y-17985858D01*
X-14143Y-17806253D01*
X0Y-17820395D01*
X14143Y-17806253D01*
X193748Y-17985858D01*
G37*
X193748Y-17985858D02*
X179605Y-18000000D01*
X193748Y-18014143D01*
X14143Y-18193748D01*
X0Y-18179605D01*
X-14143Y-18193748D01*
X-193748Y-18014143D01*
X-179605Y-18000000D01*
X-193748Y-17985858D01*
X-14143Y-17806253D01*
X0Y-17820395D01*
X14143Y-17806253D01*
X193748Y-17985858D01*
G36*
X4987111Y-16179221D02*
G01*
X4779221Y-16387111D01*
X4758769Y-16366659D01*
X4966659Y-16158769D01*
X4987111Y-16179221D01*
G37*
X4987111Y-16179221D02*
X4779221Y-16387111D01*
X4758769Y-16366659D01*
X4966659Y-16158769D01*
X4987111Y-16179221D01*
G36*
X-3712889Y-13829221D02*
G01*
X-3740309Y-13856641D01*
X-3781731Y-13815219D01*
X-3781731Y-13760379D01*
X-3712889Y-13829221D01*
G37*
X-3712889Y-13829221D02*
X-3740309Y-13856641D01*
X-3781731Y-13815219D01*
X-3781731Y-13760379D01*
X-3712889Y-13829221D01*
G36*
X4334970Y-11229950D02*
G01*
X4268030Y-11229950D01*
X4068071Y-11269724D01*
X3879713Y-11347745D01*
X3710195Y-11461013D01*
X3691258Y-11479950D01*
X3652282Y-11479950D01*
X3613729Y-11476153D01*
X3575176Y-11479950D01*
X3575169Y-11479950D01*
X3459843Y-11491309D01*
X3311870Y-11536196D01*
X3175497Y-11609088D01*
X3153371Y-11627247D01*
X3085917Y-11682605D01*
X3085914Y-11682608D01*
X3055966Y-11707186D01*
X3031388Y-11737134D01*
X1925963Y-12842560D01*
X1846538Y-12777376D01*
X1710165Y-12704484D01*
X1641229Y-12683572D01*
X4334971Y-9989831D01*
X4334970Y-11229950D01*
G37*
X4334970Y-11229950D02*
X4268030Y-11229950D01*
X4068071Y-11269724D01*
X3879713Y-11347745D01*
X3710195Y-11461013D01*
X3691258Y-11479950D01*
X3652282Y-11479950D01*
X3613729Y-11476153D01*
X3575176Y-11479950D01*
X3575169Y-11479950D01*
X3459843Y-11491309D01*
X3311870Y-11536196D01*
X3175497Y-11609088D01*
X3153371Y-11627247D01*
X3085917Y-11682605D01*
X3085914Y-11682608D01*
X3055966Y-11707186D01*
X3031388Y-11737134D01*
X1925963Y-12842560D01*
X1846538Y-12777376D01*
X1710165Y-12704484D01*
X1641229Y-12683572D01*
X4334971Y-9989831D01*
X4334970Y-11229950D01*
G36*
X3366191Y3172545D02*
G01*
X3280624Y2976233D01*
X3235000Y2767000D01*
X3235000Y2367000D01*
X4193000Y2367000D01*
X4193000Y2387000D01*
X4447000Y2387000D01*
X4447000Y2367000D01*
X4467000Y2367000D01*
X4467000Y2113000D01*
X4447000Y2113000D01*
X4447000Y922498D01*
X4614001Y795592D01*
X4817197Y867298D01*
X4997408Y982986D01*
X5151587Y1131609D01*
X5160297Y1144141D01*
X5185820Y1130498D01*
X5305518Y1094188D01*
X5430000Y1081928D01*
X5464250Y1085000D01*
X5623000Y1243750D01*
X5623000Y1888000D01*
X5603000Y1888000D01*
X5603000Y2051928D01*
X5886928Y2051928D01*
X5886928Y1993750D01*
X5897000Y1891493D01*
X5897000Y1888000D01*
X5877000Y1888000D01*
X5877000Y1243750D01*
X6035750Y1085000D01*
X6070000Y1081928D01*
X6180070Y1092769D01*
X6144188Y974482D01*
X6131928Y850000D01*
X6131928Y-850000D01*
X6144188Y-974482D01*
X6180498Y-1094180D01*
X6239463Y-1204494D01*
X6318815Y-1301185D01*
X6415506Y-1380537D01*
X6525820Y-1439502D01*
X6598380Y-1461513D01*
X6466525Y-1593368D01*
X6304010Y-1836589D01*
X6192068Y-2106842D01*
X6135000Y-2393740D01*
X6135000Y-2686260D01*
X6178791Y-2906408D01*
X5483987Y-3601212D01*
X5454989Y-3625010D01*
X5431191Y-3654008D01*
X5431190Y-3654009D01*
X5360015Y-3740735D01*
X5289443Y-3872765D01*
X5272763Y-3927754D01*
X5245987Y-4016025D01*
X5242643Y-4049975D01*
X5231313Y-4165011D01*
X5234990Y-4202343D01*
X5234989Y-8453799D01*
X5138072Y-8550716D01*
X5138072Y-8000000D01*
X5125812Y-7875518D01*
X5089502Y-7755820D01*
X5030537Y-7645506D01*
X4951185Y-7548815D01*
X4854494Y-7469463D01*
X4760000Y-7418954D01*
X4760000Y-7037322D01*
X4763676Y-6999999D01*
X4760000Y-6962676D01*
X4760000Y-6962667D01*
X4749003Y-6851014D01*
X4705546Y-6707753D01*
X4634974Y-6575724D01*
X4540001Y-6459999D01*
X4511004Y-6436202D01*
X4212874Y-6138072D01*
X4500000Y-6138072D01*
X4624482Y-6125812D01*
X4744180Y-6089502D01*
X4854494Y-6030537D01*
X4951185Y-5951185D01*
X5030537Y-5854494D01*
X5089502Y-5744180D01*
X5125812Y-5624482D01*
X5138072Y-5500000D01*
X5138072Y-4500000D01*
X5125812Y-4375518D01*
X5089502Y-4255820D01*
X5030537Y-4145506D01*
X4951185Y-4048815D01*
X4854494Y-3969463D01*
X4744180Y-3910498D01*
X4624482Y-3874188D01*
X4500000Y-3861928D01*
X4051383Y-3861928D01*
X3825493Y-3636039D01*
X3854494Y-3620537D01*
X3951185Y-3541185D01*
X3978663Y-3507703D01*
X4025999Y-3524408D01*
X4193000Y-3397502D01*
X4193000Y-2057000D01*
X4447000Y-2057000D01*
X4447000Y-3397502D01*
X4614001Y-3524408D01*
X4817197Y-3452702D01*
X4997408Y-3337014D01*
X5151587Y-3188391D01*
X5273809Y-3012545D01*
X5359376Y-2816233D01*
X5405000Y-2607000D01*
X5405000Y-2057000D01*
X4447000Y-2057000D01*
X4193000Y-2057000D01*
X4173000Y-2057000D01*
X4173000Y-1803000D01*
X4193000Y-1803000D01*
X4193000Y-462498D01*
X4447000Y-462498D01*
X4447000Y-1803000D01*
X5405000Y-1803000D01*
X5405000Y-1253000D01*
X5359376Y-1043767D01*
X5273809Y-847455D01*
X5151587Y-671609D01*
X4997408Y-522986D01*
X4817197Y-407298D01*
X4614001Y-335592D01*
X4447000Y-462498D01*
X4193000Y-462498D01*
X4025999Y-335592D01*
X3822803Y-407298D01*
X3642592Y-522986D01*
X3488413Y-671609D01*
X3462915Y-708294D01*
X3332889Y-621414D01*
X3162729Y-550932D01*
X2982089Y-515000D01*
X2797911Y-515000D01*
X2617271Y-550932D01*
X2447111Y-621414D01*
X2293972Y-723738D01*
X2163738Y-853972D01*
X2061414Y-1007111D01*
X1990932Y-1177271D01*
X1966816Y-1298509D01*
X1900000Y-1291928D01*
X1600000Y-1291928D01*
X1500000Y-1301777D01*
X1404566Y-1292378D01*
X1384974Y-1255724D01*
X1290001Y-1139999D01*
X1261001Y-1116199D01*
X1238801Y-1093999D01*
X1215000Y-1064998D01*
X1099275Y-970025D01*
X967246Y-899453D01*
X823985Y-855996D01*
X712332Y-844999D01*
X712321Y-844999D01*
X674999Y-841323D01*
X637677Y-844999D01*
X-122678Y-844999D01*
X-160001Y-841323D01*
X-197323Y-844999D01*
X-197334Y-844999D01*
X-308987Y-855996D01*
X-452248Y-899453D01*
X-584277Y-970025D01*
X-700002Y-1064998D01*
X-723805Y-1094002D01*
X-760997Y-1131194D01*
X-790001Y-1154997D01*
X-842679Y-1219186D01*
X-884974Y-1270722D01*
X-896309Y-1291928D01*
X-900000Y-1291928D01*
X-1000000Y-1301777D01*
X-1100000Y-1291928D01*
X-1400000Y-1291928D01*
X-1500000Y-1301777D01*
X-1600000Y-1291928D01*
X-1900000Y-1291928D01*
X-1966816Y-1298509D01*
X-1990932Y-1177271D01*
X-2061414Y-1007111D01*
X-2163738Y-853972D01*
X-2293972Y-723738D01*
X-2447111Y-621414D01*
X-2617271Y-550932D01*
X-2797911Y-515000D01*
X-2982089Y-515000D01*
X-3162729Y-550932D01*
X-3332889Y-621414D01*
X-3462915Y-708294D01*
X-3488413Y-671609D01*
X-3642592Y-522986D01*
X-3822803Y-407298D01*
X-4025999Y-335592D01*
X-4193000Y-462498D01*
X-4193000Y-1803000D01*
X-4173000Y-1803000D01*
X-4173000Y-2057000D01*
X-4193000Y-2057000D01*
X-4193000Y-3397502D01*
X-4025999Y-3524408D01*
X-3978663Y-3507703D01*
X-3951185Y-3541185D01*
X-3895447Y-3586928D01*
X-4515000Y-3586928D01*
X-4515000Y-3449176D01*
X-4447000Y-3397502D01*
X-4447000Y-2057000D01*
X-4467000Y-2057000D01*
X-4467000Y-1803000D01*
X-4447000Y-1803000D01*
X-4447000Y-462498D01*
X-4614001Y-335592D01*
X-4791584Y-398259D01*
X-5717653Y527810D01*
X-5742236Y557764D01*
X-5861767Y655862D01*
X-5998140Y728754D01*
X-6131928Y769338D01*
X-6131928Y850000D01*
X-6144188Y974482D01*
X-6180070Y1092769D01*
X-6070000Y1081928D01*
X-6035750Y1085000D01*
X-5877000Y1243750D01*
X-5877000Y1888000D01*
X-5897000Y1888000D01*
X-5897000Y1891493D01*
X-5886928Y1993750D01*
X-5886928Y2051928D01*
X-5603000Y2051928D01*
X-5603000Y1888000D01*
X-5623000Y1888000D01*
X-5623000Y1243750D01*
X-5464250Y1085000D01*
X-5430000Y1081928D01*
X-5305518Y1094188D01*
X-5185820Y1130498D01*
X-5160297Y1144141D01*
X-5151587Y1131609D01*
X-4997408Y982986D01*
X-4817197Y867298D01*
X-4614001Y795592D01*
X-4447000Y922498D01*
X-4447000Y2113000D01*
X-4193000Y2113000D01*
X-4193000Y922498D01*
X-4025999Y795592D01*
X-3822803Y867298D01*
X-3642592Y982986D01*
X-3488413Y1131609D01*
X-3366191Y1307455D01*
X-3280624Y1503767D01*
X-3235000Y1713000D01*
X-3235000Y2113000D01*
X3235000Y2113000D01*
X3235000Y1713000D01*
X3280624Y1503767D01*
X3366191Y1307455D01*
X3488413Y1131609D01*
X3642592Y982986D01*
X3822803Y867298D01*
X4025999Y795592D01*
X4193000Y922498D01*
X4193000Y2113000D01*
X3235000Y2113000D01*
X-3235000Y2113000D01*
X-4193000Y2113000D01*
X-4447000Y2113000D01*
X-4467000Y2113000D01*
X-4467000Y2367000D01*
X-4447000Y2367000D01*
X-4447000Y2387000D01*
X-4193000Y2387000D01*
X-4193000Y2367000D01*
X-3235000Y2367000D01*
X-3235000Y2767000D01*
X-3280624Y2976233D01*
X-3366191Y3172545D01*
X-3482581Y3340000D01*
X3482581Y3340000D01*
X3366191Y3172545D01*
G37*
X3366191Y3172545D02*
X3280624Y2976233D01*
X3235000Y2767000D01*
X3235000Y2367000D01*
X4193000Y2367000D01*
X4193000Y2387000D01*
X4447000Y2387000D01*
X4447000Y2367000D01*
X4467000Y2367000D01*
X4467000Y2113000D01*
X4447000Y2113000D01*
X4447000Y922498D01*
X4614001Y795592D01*
X4817197Y867298D01*
X4997408Y982986D01*
X5151587Y1131609D01*
X5160297Y1144141D01*
X5185820Y1130498D01*
X5305518Y1094188D01*
X5430000Y1081928D01*
X5464250Y1085000D01*
X5623000Y1243750D01*
X5623000Y1888000D01*
X5603000Y1888000D01*
X5603000Y2051928D01*
X5886928Y2051928D01*
X5886928Y1993750D01*
X5897000Y1891493D01*
X5897000Y1888000D01*
X5877000Y1888000D01*
X5877000Y1243750D01*
X6035750Y1085000D01*
X6070000Y1081928D01*
X6180070Y1092769D01*
X6144188Y974482D01*
X6131928Y850000D01*
X6131928Y-850000D01*
X6144188Y-974482D01*
X6180498Y-1094180D01*
X6239463Y-1204494D01*
X6318815Y-1301185D01*
X6415506Y-1380537D01*
X6525820Y-1439502D01*
X6598380Y-1461513D01*
X6466525Y-1593368D01*
X6304010Y-1836589D01*
X6192068Y-2106842D01*
X6135000Y-2393740D01*
X6135000Y-2686260D01*
X6178791Y-2906408D01*
X5483987Y-3601212D01*
X5454989Y-3625010D01*
X5431191Y-3654008D01*
X5431190Y-3654009D01*
X5360015Y-3740735D01*
X5289443Y-3872765D01*
X5272763Y-3927754D01*
X5245987Y-4016025D01*
X5242643Y-4049975D01*
X5231313Y-4165011D01*
X5234990Y-4202343D01*
X5234989Y-8453799D01*
X5138072Y-8550716D01*
X5138072Y-8000000D01*
X5125812Y-7875518D01*
X5089502Y-7755820D01*
X5030537Y-7645506D01*
X4951185Y-7548815D01*
X4854494Y-7469463D01*
X4760000Y-7418954D01*
X4760000Y-7037322D01*
X4763676Y-6999999D01*
X4760000Y-6962676D01*
X4760000Y-6962667D01*
X4749003Y-6851014D01*
X4705546Y-6707753D01*
X4634974Y-6575724D01*
X4540001Y-6459999D01*
X4511004Y-6436202D01*
X4212874Y-6138072D01*
X4500000Y-6138072D01*
X4624482Y-6125812D01*
X4744180Y-6089502D01*
X4854494Y-6030537D01*
X4951185Y-5951185D01*
X5030537Y-5854494D01*
X5089502Y-5744180D01*
X5125812Y-5624482D01*
X5138072Y-5500000D01*
X5138072Y-4500000D01*
X5125812Y-4375518D01*
X5089502Y-4255820D01*
X5030537Y-4145506D01*
X4951185Y-4048815D01*
X4854494Y-3969463D01*
X4744180Y-3910498D01*
X4624482Y-3874188D01*
X4500000Y-3861928D01*
X4051383Y-3861928D01*
X3825493Y-3636039D01*
X3854494Y-3620537D01*
X3951185Y-3541185D01*
X3978663Y-3507703D01*
X4025999Y-3524408D01*
X4193000Y-3397502D01*
X4193000Y-2057000D01*
X4447000Y-2057000D01*
X4447000Y-3397502D01*
X4614001Y-3524408D01*
X4817197Y-3452702D01*
X4997408Y-3337014D01*
X5151587Y-3188391D01*
X5273809Y-3012545D01*
X5359376Y-2816233D01*
X5405000Y-2607000D01*
X5405000Y-2057000D01*
X4447000Y-2057000D01*
X4193000Y-2057000D01*
X4173000Y-2057000D01*
X4173000Y-1803000D01*
X4193000Y-1803000D01*
X4193000Y-462498D01*
X4447000Y-462498D01*
X4447000Y-1803000D01*
X5405000Y-1803000D01*
X5405000Y-1253000D01*
X5359376Y-1043767D01*
X5273809Y-847455D01*
X5151587Y-671609D01*
X4997408Y-522986D01*
X4817197Y-407298D01*
X4614001Y-335592D01*
X4447000Y-462498D01*
X4193000Y-462498D01*
X4025999Y-335592D01*
X3822803Y-407298D01*
X3642592Y-522986D01*
X3488413Y-671609D01*
X3462915Y-708294D01*
X3332889Y-621414D01*
X3162729Y-550932D01*
X2982089Y-515000D01*
X2797911Y-515000D01*
X2617271Y-550932D01*
X2447111Y-621414D01*
X2293972Y-723738D01*
X2163738Y-853972D01*
X2061414Y-1007111D01*
X1990932Y-1177271D01*
X1966816Y-1298509D01*
X1900000Y-1291928D01*
X1600000Y-1291928D01*
X1500000Y-1301777D01*
X1404566Y-1292378D01*
X1384974Y-1255724D01*
X1290001Y-1139999D01*
X1261001Y-1116199D01*
X1238801Y-1093999D01*
X1215000Y-1064998D01*
X1099275Y-970025D01*
X967246Y-899453D01*
X823985Y-855996D01*
X712332Y-844999D01*
X712321Y-844999D01*
X674999Y-841323D01*
X637677Y-844999D01*
X-122678Y-844999D01*
X-160001Y-841323D01*
X-197323Y-844999D01*
X-197334Y-844999D01*
X-308987Y-855996D01*
X-452248Y-899453D01*
X-584277Y-970025D01*
X-700002Y-1064998D01*
X-723805Y-1094002D01*
X-760997Y-1131194D01*
X-790001Y-1154997D01*
X-842679Y-1219186D01*
X-884974Y-1270722D01*
X-896309Y-1291928D01*
X-900000Y-1291928D01*
X-1000000Y-1301777D01*
X-1100000Y-1291928D01*
X-1400000Y-1291928D01*
X-1500000Y-1301777D01*
X-1600000Y-1291928D01*
X-1900000Y-1291928D01*
X-1966816Y-1298509D01*
X-1990932Y-1177271D01*
X-2061414Y-1007111D01*
X-2163738Y-853972D01*
X-2293972Y-723738D01*
X-2447111Y-621414D01*
X-2617271Y-550932D01*
X-2797911Y-515000D01*
X-2982089Y-515000D01*
X-3162729Y-550932D01*
X-3332889Y-621414D01*
X-3462915Y-708294D01*
X-3488413Y-671609D01*
X-3642592Y-522986D01*
X-3822803Y-407298D01*
X-4025999Y-335592D01*
X-4193000Y-462498D01*
X-4193000Y-1803000D01*
X-4173000Y-1803000D01*
X-4173000Y-2057000D01*
X-4193000Y-2057000D01*
X-4193000Y-3397502D01*
X-4025999Y-3524408D01*
X-3978663Y-3507703D01*
X-3951185Y-3541185D01*
X-3895447Y-3586928D01*
X-4515000Y-3586928D01*
X-4515000Y-3449176D01*
X-4447000Y-3397502D01*
X-4447000Y-2057000D01*
X-4467000Y-2057000D01*
X-4467000Y-1803000D01*
X-4447000Y-1803000D01*
X-4447000Y-462498D01*
X-4614001Y-335592D01*
X-4791584Y-398259D01*
X-5717653Y527810D01*
X-5742236Y557764D01*
X-5861767Y655862D01*
X-5998140Y728754D01*
X-6131928Y769338D01*
X-6131928Y850000D01*
X-6144188Y974482D01*
X-6180070Y1092769D01*
X-6070000Y1081928D01*
X-6035750Y1085000D01*
X-5877000Y1243750D01*
X-5877000Y1888000D01*
X-5897000Y1888000D01*
X-5897000Y1891493D01*
X-5886928Y1993750D01*
X-5886928Y2051928D01*
X-5603000Y2051928D01*
X-5603000Y1888000D01*
X-5623000Y1888000D01*
X-5623000Y1243750D01*
X-5464250Y1085000D01*
X-5430000Y1081928D01*
X-5305518Y1094188D01*
X-5185820Y1130498D01*
X-5160297Y1144141D01*
X-5151587Y1131609D01*
X-4997408Y982986D01*
X-4817197Y867298D01*
X-4614001Y795592D01*
X-4447000Y922498D01*
X-4447000Y2113000D01*
X-4193000Y2113000D01*
X-4193000Y922498D01*
X-4025999Y795592D01*
X-3822803Y867298D01*
X-3642592Y982986D01*
X-3488413Y1131609D01*
X-3366191Y1307455D01*
X-3280624Y1503767D01*
X-3235000Y1713000D01*
X-3235000Y2113000D01*
X3235000Y2113000D01*
X3235000Y1713000D01*
X3280624Y1503767D01*
X3366191Y1307455D01*
X3488413Y1131609D01*
X3642592Y982986D01*
X3822803Y867298D01*
X4025999Y795592D01*
X4193000Y922498D01*
X4193000Y2113000D01*
X3235000Y2113000D01*
X-3235000Y2113000D01*
X-4193000Y2113000D01*
X-4447000Y2113000D01*
X-4467000Y2113000D01*
X-4467000Y2367000D01*
X-4447000Y2367000D01*
X-4447000Y2387000D01*
X-4193000Y2387000D01*
X-4193000Y2367000D01*
X-3235000Y2367000D01*
X-3235000Y2767000D01*
X-3280624Y2976233D01*
X-3366191Y3172545D01*
X-3482581Y3340000D01*
X3482581Y3340000D01*
X3366191Y3172545D01*
G36*
X-2906250Y-5373000D02*
G01*
X-2824141Y-5373000D01*
X-2784494Y-5405537D01*
X-2674180Y-5464502D01*
X-2557159Y-5500000D01*
X-2674180Y-5535498D01*
X-2784494Y-5594463D01*
X-2824141Y-5627000D01*
X-2906250Y-5627000D01*
X-3044103Y-5764853D01*
X-3118815Y-5673815D01*
X-3215506Y-5594463D01*
X-3325820Y-5535498D01*
X-3363369Y-5524108D01*
X-3371246Y-5498140D01*
X-3380380Y-5481052D01*
X-3325820Y-5464502D01*
X-3215506Y-5405537D01*
X-3118815Y-5326185D01*
X-3044103Y-5235147D01*
X-2906250Y-5373000D01*
G37*
X-2906250Y-5373000D02*
X-2824141Y-5373000D01*
X-2784494Y-5405537D01*
X-2674180Y-5464502D01*
X-2557159Y-5500000D01*
X-2674180Y-5535498D01*
X-2784494Y-5594463D01*
X-2824141Y-5627000D01*
X-2906250Y-5627000D01*
X-3044103Y-5764853D01*
X-3118815Y-5673815D01*
X-3215506Y-5594463D01*
X-3325820Y-5535498D01*
X-3363369Y-5524108D01*
X-3371246Y-5498140D01*
X-3380380Y-5481052D01*
X-3325820Y-5464502D01*
X-3215506Y-5405537D01*
X-3118815Y-5326185D01*
X-3044103Y-5235147D01*
X-2906250Y-5373000D01*
G36*
X9065424Y4330420D02*
G01*
X9128356Y4311420D01*
X9186405Y4280555D01*
X9237343Y4239011D01*
X9279248Y4188356D01*
X9310515Y4130529D01*
X9329956Y4067728D01*
X9340001Y3972155D01*
X9340001Y3130263D01*
X9232275Y3218671D01*
X9084142Y3297850D01*
X8923408Y3346608D01*
X8756250Y3363072D01*
X8318750Y3363072D01*
X8151592Y3346608D01*
X7990858Y3297850D01*
X7842725Y3218671D01*
X7750000Y3142574D01*
X7657275Y3218671D01*
X7509142Y3297850D01*
X7348408Y3346608D01*
X7181250Y3363072D01*
X6924229Y3363072D01*
X6791303Y3495998D01*
X6767501Y3525001D01*
X6651776Y3619974D01*
X6519747Y3690546D01*
X6448540Y3712146D01*
X6358940Y3785679D01*
X6223125Y3858274D01*
X6075757Y3902977D01*
X5922500Y3918072D01*
X5577500Y3918072D01*
X5497440Y3910187D01*
X5499208Y3913456D01*
X5545020Y3999617D01*
X5567809Y4054909D01*
X5591378Y4109898D01*
X5594103Y4118701D01*
X5622308Y4212119D01*
X5633933Y4270826D01*
X5646365Y4329316D01*
X5647327Y4338470D01*
X5647328Y4338476D01*
X5647328Y4338481D01*
X5647477Y4340000D01*
X8967721Y4340000D01*
X9065424Y4330420D01*
G37*
X9065424Y4330420D02*
X9128356Y4311420D01*
X9186405Y4280555D01*
X9237343Y4239011D01*
X9279248Y4188356D01*
X9310515Y4130529D01*
X9329956Y4067728D01*
X9340001Y3972155D01*
X9340001Y3130263D01*
X9232275Y3218671D01*
X9084142Y3297850D01*
X8923408Y3346608D01*
X8756250Y3363072D01*
X8318750Y3363072D01*
X8151592Y3346608D01*
X7990858Y3297850D01*
X7842725Y3218671D01*
X7750000Y3142574D01*
X7657275Y3218671D01*
X7509142Y3297850D01*
X7348408Y3346608D01*
X7181250Y3363072D01*
X6924229Y3363072D01*
X6791303Y3495998D01*
X6767501Y3525001D01*
X6651776Y3619974D01*
X6519747Y3690546D01*
X6448540Y3712146D01*
X6358940Y3785679D01*
X6223125Y3858274D01*
X6075757Y3902977D01*
X5922500Y3918072D01*
X5577500Y3918072D01*
X5497440Y3910187D01*
X5499208Y3913456D01*
X5545020Y3999617D01*
X5567809Y4054909D01*
X5591378Y4109898D01*
X5594103Y4118701D01*
X5622308Y4212119D01*
X5633933Y4270826D01*
X5646365Y4329316D01*
X5647327Y4338470D01*
X5647328Y4338476D01*
X5647328Y4338481D01*
X5647477Y4340000D01*
X8967721Y4340000D01*
X9065424Y4330420D01*
G36*
X-5646173Y4330473D02*
G01*
X-5634139Y4271848D01*
X-5622936Y4213116D01*
X-5620272Y4204294D01*
X-5591416Y4111075D01*
X-5568233Y4055925D01*
X-5545825Y4000463D01*
X-5541498Y3992327D01*
X-5497065Y3910150D01*
X-5577500Y3918072D01*
X-5922500Y3918072D01*
X-6075757Y3902977D01*
X-6223125Y3858274D01*
X-6358940Y3785679D01*
X-6448540Y3712146D01*
X-6511423Y3693071D01*
X-6519747Y3690546D01*
X-6651777Y3619974D01*
X-6716423Y3566920D01*
X-6767501Y3525001D01*
X-6791299Y3496002D01*
X-6924230Y3363072D01*
X-7181250Y3363072D01*
X-7348408Y3346608D01*
X-7509142Y3297850D01*
X-7657275Y3218671D01*
X-7750000Y3142574D01*
X-7842725Y3218671D01*
X-7990858Y3297850D01*
X-8151592Y3346608D01*
X-8318750Y3363072D01*
X-8756250Y3363072D01*
X-8923408Y3346608D01*
X-9084142Y3297850D01*
X-9232275Y3218671D01*
X-9340000Y3130264D01*
X-9340000Y3967721D01*
X-9330420Y4065424D01*
X-9311420Y4128356D01*
X-9280555Y4186405D01*
X-9239011Y4237343D01*
X-9188356Y4279248D01*
X-9130529Y4310515D01*
X-9067728Y4329956D01*
X-8972165Y4340000D01*
X-5647174Y4340000D01*
X-5646173Y4330473D01*
G37*
X-5646173Y4330473D02*
X-5634139Y4271848D01*
X-5622936Y4213116D01*
X-5620272Y4204294D01*
X-5591416Y4111075D01*
X-5568233Y4055925D01*
X-5545825Y4000463D01*
X-5541498Y3992327D01*
X-5497065Y3910150D01*
X-5577500Y3918072D01*
X-5922500Y3918072D01*
X-6075757Y3902977D01*
X-6223125Y3858274D01*
X-6358940Y3785679D01*
X-6448540Y3712146D01*
X-6511423Y3693071D01*
X-6519747Y3690546D01*
X-6651777Y3619974D01*
X-6716423Y3566920D01*
X-6767501Y3525001D01*
X-6791299Y3496002D01*
X-6924230Y3363072D01*
X-7181250Y3363072D01*
X-7348408Y3346608D01*
X-7509142Y3297850D01*
X-7657275Y3218671D01*
X-7750000Y3142574D01*
X-7842725Y3218671D01*
X-7990858Y3297850D01*
X-8151592Y3346608D01*
X-8318750Y3363072D01*
X-8756250Y3363072D01*
X-8923408Y3346608D01*
X-9084142Y3297850D01*
X-9232275Y3218671D01*
X-9340000Y3130264D01*
X-9340000Y3967721D01*
X-9330420Y4065424D01*
X-9311420Y4128356D01*
X-9280555Y4186405D01*
X-9239011Y4237343D01*
X-9188356Y4279248D01*
X-9130529Y4310515D01*
X-9067728Y4329956D01*
X-8972165Y4340000D01*
X-5647174Y4340000D01*
X-5646173Y4330473D01*
%TD*%
M02*
