%TF.GenerationSoftware,KiCad,Pcbnew,5.1.6-c6e7f7d~87~ubuntu18.04.1*%
%TF.CreationDate,2020-08-19T11:44:15-04:00*%
%TF.ProjectId,atmegaXu4_breakout,61746d65-6761-4587-9534-5f627265616b,rev?*%
%TF.SameCoordinates,Original*%
%TF.FileFunction,Soldermask,Top*%
%TF.FilePolarity,Negative*%
%FSLAX46Y46*%
G04 Gerber Fmt 4.6, Leading zero omitted, Abs format (unit mm)*
G04 Created by KiCad (PCBNEW 5.1.6-c6e7f7d~87~ubuntu18.04.1) date 2020-08-19 11:44:15*
%MOMM*%
%LPD*%
G01*
G04 APERTURE LIST*
%ADD10R,1.100000X1.100000*%
%ADD11C,0.100000*%
%ADD12O,1.800000X1.800000*%
%ADD13R,1.800000X1.800000*%
%ADD14R,1.160000X0.750000*%
%ADD15R,0.550000X0.700000*%
%ADD16O,1.000000X2.100000*%
%ADD17O,1.000000X1.800000*%
%ADD18R,0.400000X1.260000*%
%ADD19C,0.700000*%
%ADD20R,0.700000X1.260000*%
G04 APERTURE END LIST*
D10*
%TO.C,TP5*%
X-3000000Y-8500000D03*
%TD*%
%TO.C,TP4*%
X0Y-8500000D03*
%TD*%
%TO.C,TP3*%
X4000000Y-5000000D03*
%TD*%
%TO.C,R6*%
G36*
G01*
X-5259342Y-19161351D02*
X-5538649Y-19440659D01*
G75*
G02*
X-5782601Y-19440659I-121976J121976D01*
G01*
X-6026553Y-19196707D01*
G75*
G02*
X-6026553Y-18952755I121976J121976D01*
G01*
X-5747245Y-18673447D01*
G75*
G02*
X-5503293Y-18673447I121976J-121976D01*
G01*
X-5259341Y-18917399D01*
G75*
G02*
X-5259341Y-19161351I-121976J-121976D01*
G01*
G37*
G36*
G01*
X-4573448Y-19847245D02*
X-4852755Y-20126553D01*
G75*
G02*
X-5096707Y-20126553I-121976J121976D01*
G01*
X-5340659Y-19882601D01*
G75*
G02*
X-5340659Y-19638649I121976J121976D01*
G01*
X-5061351Y-19359341D01*
G75*
G02*
X-4817399Y-19359341I121976J-121976D01*
G01*
X-4573447Y-19603293D01*
G75*
G02*
X-4573447Y-19847245I-121976J-121976D01*
G01*
G37*
%TD*%
%TO.C,C5*%
G36*
G01*
X-4261351Y-21040658D02*
X-4540659Y-20761351D01*
G75*
G02*
X-4540659Y-20517399I121976J121976D01*
G01*
X-4296707Y-20273447D01*
G75*
G02*
X-4052755Y-20273447I121976J-121976D01*
G01*
X-3773447Y-20552755D01*
G75*
G02*
X-3773447Y-20796707I-121976J-121976D01*
G01*
X-4017399Y-21040659D01*
G75*
G02*
X-4261351Y-21040659I-121976J121976D01*
G01*
G37*
G36*
G01*
X-4947245Y-21726552D02*
X-5226553Y-21447245D01*
G75*
G02*
X-5226553Y-21203293I121976J121976D01*
G01*
X-4982601Y-20959341D01*
G75*
G02*
X-4738649Y-20959341I121976J-121976D01*
G01*
X-4459341Y-21238649D01*
G75*
G02*
X-4459341Y-21482601I-121976J-121976D01*
G01*
X-4703293Y-21726553D01*
G75*
G02*
X-4947245Y-21726553I-121976J121976D01*
G01*
G37*
%TD*%
%TO.C,C4*%
G36*
G01*
X5159342Y-16838649D02*
X5438649Y-16559341D01*
G75*
G02*
X5682601Y-16559341I121976J-121976D01*
G01*
X5926553Y-16803293D01*
G75*
G02*
X5926553Y-17047245I-121976J-121976D01*
G01*
X5647245Y-17326553D01*
G75*
G02*
X5403293Y-17326553I-121976J121976D01*
G01*
X5159341Y-17082601D01*
G75*
G02*
X5159341Y-16838649I121976J121976D01*
G01*
G37*
G36*
G01*
X4473448Y-16152755D02*
X4752755Y-15873447D01*
G75*
G02*
X4996707Y-15873447I121976J-121976D01*
G01*
X5240659Y-16117399D01*
G75*
G02*
X5240659Y-16361351I-121976J-121976D01*
G01*
X4961351Y-16640659D01*
G75*
G02*
X4717399Y-16640659I-121976J121976D01*
G01*
X4473447Y-16396707D01*
G75*
G02*
X4473447Y-16152755I121976J121976D01*
G01*
G37*
%TD*%
%TO.C,U1*%
G36*
G01*
X-1069499Y-13518711D02*
X-945756Y-13394967D01*
G75*
G02*
X-822012Y-13394967I61872J-61872D01*
G01*
X-114905Y-14102074D01*
G75*
G02*
X-114905Y-14225818I-61872J-61872D01*
G01*
X-238648Y-14349561D01*
G75*
G02*
X-362392Y-14349561I-61872J61872D01*
G01*
X-1069499Y-13642454D01*
G75*
G02*
X-1069499Y-13518710I61872J61872D01*
G01*
G37*
G36*
G01*
X-1423052Y-13872265D02*
X-1299309Y-13748521D01*
G75*
G02*
X-1175565Y-13748521I61872J-61872D01*
G01*
X-468458Y-14455628D01*
G75*
G02*
X-468458Y-14579372I-61872J-61872D01*
G01*
X-592201Y-14703115D01*
G75*
G02*
X-715945Y-14703115I-61872J61872D01*
G01*
X-1423052Y-13996008D01*
G75*
G02*
X-1423052Y-13872264I61872J61872D01*
G01*
G37*
G36*
G01*
X-1776606Y-14225818D02*
X-1652863Y-14102074D01*
G75*
G02*
X-1529119Y-14102074I61872J-61872D01*
G01*
X-822012Y-14809181D01*
G75*
G02*
X-822012Y-14932925I-61872J-61872D01*
G01*
X-945755Y-15056668D01*
G75*
G02*
X-1069499Y-15056668I-61872J61872D01*
G01*
X-1776606Y-14349561D01*
G75*
G02*
X-1776606Y-14225817I61872J61872D01*
G01*
G37*
G36*
G01*
X-2130159Y-14579371D02*
X-2006416Y-14455627D01*
G75*
G02*
X-1882672Y-14455627I61872J-61872D01*
G01*
X-1175565Y-15162734D01*
G75*
G02*
X-1175565Y-15286478I-61872J-61872D01*
G01*
X-1299308Y-15410221D01*
G75*
G02*
X-1423052Y-15410221I-61872J61872D01*
G01*
X-2130159Y-14703114D01*
G75*
G02*
X-2130159Y-14579370I61872J61872D01*
G01*
G37*
G36*
G01*
X-2483712Y-14932925D02*
X-2359969Y-14809181D01*
G75*
G02*
X-2236225Y-14809181I61872J-61872D01*
G01*
X-1529118Y-15516288D01*
G75*
G02*
X-1529118Y-15640032I-61872J-61872D01*
G01*
X-1652861Y-15763775D01*
G75*
G02*
X-1776605Y-15763775I-61872J61872D01*
G01*
X-2483712Y-15056668D01*
G75*
G02*
X-2483712Y-14932924I61872J61872D01*
G01*
G37*
G36*
G01*
X-2837266Y-15286478D02*
X-2713523Y-15162734D01*
G75*
G02*
X-2589779Y-15162734I61872J-61872D01*
G01*
X-1882672Y-15869841D01*
G75*
G02*
X-1882672Y-15993585I-61872J-61872D01*
G01*
X-2006415Y-16117328D01*
G75*
G02*
X-2130159Y-16117328I-61872J61872D01*
G01*
X-2837266Y-15410221D01*
G75*
G02*
X-2837266Y-15286477I61872J61872D01*
G01*
G37*
G36*
G01*
X-3190819Y-15640032D02*
X-3067076Y-15516288D01*
G75*
G02*
X-2943332Y-15516288I61872J-61872D01*
G01*
X-2236225Y-16223395D01*
G75*
G02*
X-2236225Y-16347139I-61872J-61872D01*
G01*
X-2359968Y-16470882D01*
G75*
G02*
X-2483712Y-16470882I-61872J61872D01*
G01*
X-3190819Y-15763775D01*
G75*
G02*
X-3190819Y-15640031I61872J61872D01*
G01*
G37*
G36*
G01*
X-3544373Y-15993585D02*
X-3420630Y-15869841D01*
G75*
G02*
X-3296886Y-15869841I61872J-61872D01*
G01*
X-2589779Y-16576948D01*
G75*
G02*
X-2589779Y-16700692I-61872J-61872D01*
G01*
X-2713522Y-16824435D01*
G75*
G02*
X-2837266Y-16824435I-61872J61872D01*
G01*
X-3544373Y-16117328D01*
G75*
G02*
X-3544373Y-15993584I61872J61872D01*
G01*
G37*
G36*
G01*
X-3897926Y-16347138D02*
X-3774183Y-16223394D01*
G75*
G02*
X-3650439Y-16223394I61872J-61872D01*
G01*
X-2943332Y-16930501D01*
G75*
G02*
X-2943332Y-17054245I-61872J-61872D01*
G01*
X-3067075Y-17177988D01*
G75*
G02*
X-3190819Y-17177988I-61872J61872D01*
G01*
X-3897926Y-16470881D01*
G75*
G02*
X-3897926Y-16347137I61872J61872D01*
G01*
G37*
G36*
G01*
X-4251479Y-16700692D02*
X-4127736Y-16576948D01*
G75*
G02*
X-4003992Y-16576948I61872J-61872D01*
G01*
X-3296885Y-17284055D01*
G75*
G02*
X-3296885Y-17407799I-61872J-61872D01*
G01*
X-3420628Y-17531542D01*
G75*
G02*
X-3544372Y-17531542I-61872J61872D01*
G01*
X-4251479Y-16824435D01*
G75*
G02*
X-4251479Y-16700691I61872J61872D01*
G01*
G37*
G36*
G01*
X-4605033Y-17054245D02*
X-4481290Y-16930501D01*
G75*
G02*
X-4357546Y-16930501I61872J-61872D01*
G01*
X-3650439Y-17637608D01*
G75*
G02*
X-3650439Y-17761352I-61872J-61872D01*
G01*
X-3774182Y-17885095D01*
G75*
G02*
X-3897926Y-17885095I-61872J61872D01*
G01*
X-4605033Y-17177988D01*
G75*
G02*
X-4605033Y-17054244I61872J61872D01*
G01*
G37*
G36*
G01*
X-4605033Y-18822012D02*
X-3897926Y-18114905D01*
G75*
G02*
X-3774182Y-18114905I61872J-61872D01*
G01*
X-3650439Y-18238648D01*
G75*
G02*
X-3650439Y-18362392I-61872J-61872D01*
G01*
X-4357546Y-19069499D01*
G75*
G02*
X-4481290Y-19069499I-61872J61872D01*
G01*
X-4605033Y-18945756D01*
G75*
G02*
X-4605033Y-18822012I61872J61872D01*
G01*
G37*
G36*
G01*
X-4251479Y-19175565D02*
X-3544372Y-18468458D01*
G75*
G02*
X-3420628Y-18468458I61872J-61872D01*
G01*
X-3296885Y-18592201D01*
G75*
G02*
X-3296885Y-18715945I-61872J-61872D01*
G01*
X-4003992Y-19423052D01*
G75*
G02*
X-4127736Y-19423052I-61872J61872D01*
G01*
X-4251479Y-19299309D01*
G75*
G02*
X-4251479Y-19175565I61872J61872D01*
G01*
G37*
G36*
G01*
X-3897926Y-19529119D02*
X-3190819Y-18822012D01*
G75*
G02*
X-3067075Y-18822012I61872J-61872D01*
G01*
X-2943332Y-18945755D01*
G75*
G02*
X-2943332Y-19069499I-61872J-61872D01*
G01*
X-3650439Y-19776606D01*
G75*
G02*
X-3774183Y-19776606I-61872J61872D01*
G01*
X-3897926Y-19652863D01*
G75*
G02*
X-3897926Y-19529119I61872J61872D01*
G01*
G37*
G36*
G01*
X-3544373Y-19882672D02*
X-2837266Y-19175565D01*
G75*
G02*
X-2713522Y-19175565I61872J-61872D01*
G01*
X-2589779Y-19299308D01*
G75*
G02*
X-2589779Y-19423052I-61872J-61872D01*
G01*
X-3296886Y-20130159D01*
G75*
G02*
X-3420630Y-20130159I-61872J61872D01*
G01*
X-3544373Y-20006416D01*
G75*
G02*
X-3544373Y-19882672I61872J61872D01*
G01*
G37*
G36*
G01*
X-3190819Y-20236225D02*
X-2483712Y-19529118D01*
G75*
G02*
X-2359968Y-19529118I61872J-61872D01*
G01*
X-2236225Y-19652861D01*
G75*
G02*
X-2236225Y-19776605I-61872J-61872D01*
G01*
X-2943332Y-20483712D01*
G75*
G02*
X-3067076Y-20483712I-61872J61872D01*
G01*
X-3190819Y-20359969D01*
G75*
G02*
X-3190819Y-20236225I61872J61872D01*
G01*
G37*
G36*
G01*
X-2837266Y-20589779D02*
X-2130159Y-19882672D01*
G75*
G02*
X-2006415Y-19882672I61872J-61872D01*
G01*
X-1882672Y-20006415D01*
G75*
G02*
X-1882672Y-20130159I-61872J-61872D01*
G01*
X-2589779Y-20837266D01*
G75*
G02*
X-2713523Y-20837266I-61872J61872D01*
G01*
X-2837266Y-20713523D01*
G75*
G02*
X-2837266Y-20589779I61872J61872D01*
G01*
G37*
G36*
G01*
X-2483712Y-20943332D02*
X-1776605Y-20236225D01*
G75*
G02*
X-1652861Y-20236225I61872J-61872D01*
G01*
X-1529118Y-20359968D01*
G75*
G02*
X-1529118Y-20483712I-61872J-61872D01*
G01*
X-2236225Y-21190819D01*
G75*
G02*
X-2359969Y-21190819I-61872J61872D01*
G01*
X-2483712Y-21067076D01*
G75*
G02*
X-2483712Y-20943332I61872J61872D01*
G01*
G37*
G36*
G01*
X-2130159Y-21296886D02*
X-1423052Y-20589779D01*
G75*
G02*
X-1299308Y-20589779I61872J-61872D01*
G01*
X-1175565Y-20713522D01*
G75*
G02*
X-1175565Y-20837266I-61872J-61872D01*
G01*
X-1882672Y-21544373D01*
G75*
G02*
X-2006416Y-21544373I-61872J61872D01*
G01*
X-2130159Y-21420630D01*
G75*
G02*
X-2130159Y-21296886I61872J61872D01*
G01*
G37*
G36*
G01*
X-1776606Y-21650439D02*
X-1069499Y-20943332D01*
G75*
G02*
X-945755Y-20943332I61872J-61872D01*
G01*
X-822012Y-21067075D01*
G75*
G02*
X-822012Y-21190819I-61872J-61872D01*
G01*
X-1529119Y-21897926D01*
G75*
G02*
X-1652863Y-21897926I-61872J61872D01*
G01*
X-1776606Y-21774183D01*
G75*
G02*
X-1776606Y-21650439I61872J61872D01*
G01*
G37*
G36*
G01*
X-1423052Y-22003992D02*
X-715945Y-21296885D01*
G75*
G02*
X-592201Y-21296885I61872J-61872D01*
G01*
X-468458Y-21420628D01*
G75*
G02*
X-468458Y-21544372I-61872J-61872D01*
G01*
X-1175565Y-22251479D01*
G75*
G02*
X-1299309Y-22251479I-61872J61872D01*
G01*
X-1423052Y-22127736D01*
G75*
G02*
X-1423052Y-22003992I61872J61872D01*
G01*
G37*
G36*
G01*
X-1069499Y-22357546D02*
X-362392Y-21650439D01*
G75*
G02*
X-238648Y-21650439I61872J-61872D01*
G01*
X-114905Y-21774182D01*
G75*
G02*
X-114905Y-21897926I-61872J-61872D01*
G01*
X-822012Y-22605033D01*
G75*
G02*
X-945756Y-22605033I-61872J61872D01*
G01*
X-1069499Y-22481290D01*
G75*
G02*
X-1069499Y-22357546I61872J61872D01*
G01*
G37*
G36*
G01*
X114905Y-21774183D02*
X238648Y-21650439D01*
G75*
G02*
X362392Y-21650439I61872J-61872D01*
G01*
X1069499Y-22357546D01*
G75*
G02*
X1069499Y-22481290I-61872J-61872D01*
G01*
X945756Y-22605033D01*
G75*
G02*
X822012Y-22605033I-61872J61872D01*
G01*
X114905Y-21897926D01*
G75*
G02*
X114905Y-21774182I61872J61872D01*
G01*
G37*
G36*
G01*
X468458Y-21420629D02*
X592201Y-21296885D01*
G75*
G02*
X715945Y-21296885I61872J-61872D01*
G01*
X1423052Y-22003992D01*
G75*
G02*
X1423052Y-22127736I-61872J-61872D01*
G01*
X1299309Y-22251479D01*
G75*
G02*
X1175565Y-22251479I-61872J61872D01*
G01*
X468458Y-21544372D01*
G75*
G02*
X468458Y-21420628I61872J61872D01*
G01*
G37*
G36*
G01*
X822012Y-21067076D02*
X945755Y-20943332D01*
G75*
G02*
X1069499Y-20943332I61872J-61872D01*
G01*
X1776606Y-21650439D01*
G75*
G02*
X1776606Y-21774183I-61872J-61872D01*
G01*
X1652863Y-21897926D01*
G75*
G02*
X1529119Y-21897926I-61872J61872D01*
G01*
X822012Y-21190819D01*
G75*
G02*
X822012Y-21067075I61872J61872D01*
G01*
G37*
G36*
G01*
X1175565Y-20713523D02*
X1299308Y-20589779D01*
G75*
G02*
X1423052Y-20589779I61872J-61872D01*
G01*
X2130159Y-21296886D01*
G75*
G02*
X2130159Y-21420630I-61872J-61872D01*
G01*
X2006416Y-21544373D01*
G75*
G02*
X1882672Y-21544373I-61872J61872D01*
G01*
X1175565Y-20837266D01*
G75*
G02*
X1175565Y-20713522I61872J61872D01*
G01*
G37*
G36*
G01*
X1529118Y-20359969D02*
X1652861Y-20236225D01*
G75*
G02*
X1776605Y-20236225I61872J-61872D01*
G01*
X2483712Y-20943332D01*
G75*
G02*
X2483712Y-21067076I-61872J-61872D01*
G01*
X2359969Y-21190819D01*
G75*
G02*
X2236225Y-21190819I-61872J61872D01*
G01*
X1529118Y-20483712D01*
G75*
G02*
X1529118Y-20359968I61872J61872D01*
G01*
G37*
G36*
G01*
X1882672Y-20006416D02*
X2006415Y-19882672D01*
G75*
G02*
X2130159Y-19882672I61872J-61872D01*
G01*
X2837266Y-20589779D01*
G75*
G02*
X2837266Y-20713523I-61872J-61872D01*
G01*
X2713523Y-20837266D01*
G75*
G02*
X2589779Y-20837266I-61872J61872D01*
G01*
X1882672Y-20130159D01*
G75*
G02*
X1882672Y-20006415I61872J61872D01*
G01*
G37*
G36*
G01*
X2236225Y-19652862D02*
X2359968Y-19529118D01*
G75*
G02*
X2483712Y-19529118I61872J-61872D01*
G01*
X3190819Y-20236225D01*
G75*
G02*
X3190819Y-20359969I-61872J-61872D01*
G01*
X3067076Y-20483712D01*
G75*
G02*
X2943332Y-20483712I-61872J61872D01*
G01*
X2236225Y-19776605D01*
G75*
G02*
X2236225Y-19652861I61872J61872D01*
G01*
G37*
G36*
G01*
X2589779Y-19299309D02*
X2713522Y-19175565D01*
G75*
G02*
X2837266Y-19175565I61872J-61872D01*
G01*
X3544373Y-19882672D01*
G75*
G02*
X3544373Y-20006416I-61872J-61872D01*
G01*
X3420630Y-20130159D01*
G75*
G02*
X3296886Y-20130159I-61872J61872D01*
G01*
X2589779Y-19423052D01*
G75*
G02*
X2589779Y-19299308I61872J61872D01*
G01*
G37*
G36*
G01*
X2943332Y-18945756D02*
X3067075Y-18822012D01*
G75*
G02*
X3190819Y-18822012I61872J-61872D01*
G01*
X3897926Y-19529119D01*
G75*
G02*
X3897926Y-19652863I-61872J-61872D01*
G01*
X3774183Y-19776606D01*
G75*
G02*
X3650439Y-19776606I-61872J61872D01*
G01*
X2943332Y-19069499D01*
G75*
G02*
X2943332Y-18945755I61872J61872D01*
G01*
G37*
G36*
G01*
X3296885Y-18592202D02*
X3420628Y-18468458D01*
G75*
G02*
X3544372Y-18468458I61872J-61872D01*
G01*
X4251479Y-19175565D01*
G75*
G02*
X4251479Y-19299309I-61872J-61872D01*
G01*
X4127736Y-19423052D01*
G75*
G02*
X4003992Y-19423052I-61872J61872D01*
G01*
X3296885Y-18715945D01*
G75*
G02*
X3296885Y-18592201I61872J61872D01*
G01*
G37*
G36*
G01*
X3650439Y-18238649D02*
X3774182Y-18114905D01*
G75*
G02*
X3897926Y-18114905I61872J-61872D01*
G01*
X4605033Y-18822012D01*
G75*
G02*
X4605033Y-18945756I-61872J-61872D01*
G01*
X4481290Y-19069499D01*
G75*
G02*
X4357546Y-19069499I-61872J61872D01*
G01*
X3650439Y-18362392D01*
G75*
G02*
X3650439Y-18238648I61872J61872D01*
G01*
G37*
G36*
G01*
X3650439Y-17637608D02*
X4357546Y-16930501D01*
G75*
G02*
X4481290Y-16930501I61872J-61872D01*
G01*
X4605033Y-17054244D01*
G75*
G02*
X4605033Y-17177988I-61872J-61872D01*
G01*
X3897926Y-17885095D01*
G75*
G02*
X3774182Y-17885095I-61872J61872D01*
G01*
X3650439Y-17761352D01*
G75*
G02*
X3650439Y-17637608I61872J61872D01*
G01*
G37*
G36*
G01*
X3296885Y-17284055D02*
X4003992Y-16576948D01*
G75*
G02*
X4127736Y-16576948I61872J-61872D01*
G01*
X4251479Y-16700691D01*
G75*
G02*
X4251479Y-16824435I-61872J-61872D01*
G01*
X3544372Y-17531542D01*
G75*
G02*
X3420628Y-17531542I-61872J61872D01*
G01*
X3296885Y-17407799D01*
G75*
G02*
X3296885Y-17284055I61872J61872D01*
G01*
G37*
G36*
G01*
X2943332Y-16930501D02*
X3650439Y-16223394D01*
G75*
G02*
X3774183Y-16223394I61872J-61872D01*
G01*
X3897926Y-16347137D01*
G75*
G02*
X3897926Y-16470881I-61872J-61872D01*
G01*
X3190819Y-17177988D01*
G75*
G02*
X3067075Y-17177988I-61872J61872D01*
G01*
X2943332Y-17054245D01*
G75*
G02*
X2943332Y-16930501I61872J61872D01*
G01*
G37*
G36*
G01*
X2589779Y-16576948D02*
X3296886Y-15869841D01*
G75*
G02*
X3420630Y-15869841I61872J-61872D01*
G01*
X3544373Y-15993584D01*
G75*
G02*
X3544373Y-16117328I-61872J-61872D01*
G01*
X2837266Y-16824435D01*
G75*
G02*
X2713522Y-16824435I-61872J61872D01*
G01*
X2589779Y-16700692D01*
G75*
G02*
X2589779Y-16576948I61872J61872D01*
G01*
G37*
G36*
G01*
X2236225Y-16223395D02*
X2943332Y-15516288D01*
G75*
G02*
X3067076Y-15516288I61872J-61872D01*
G01*
X3190819Y-15640031D01*
G75*
G02*
X3190819Y-15763775I-61872J-61872D01*
G01*
X2483712Y-16470882D01*
G75*
G02*
X2359968Y-16470882I-61872J61872D01*
G01*
X2236225Y-16347139D01*
G75*
G02*
X2236225Y-16223395I61872J61872D01*
G01*
G37*
G36*
G01*
X1882672Y-15869841D02*
X2589779Y-15162734D01*
G75*
G02*
X2713523Y-15162734I61872J-61872D01*
G01*
X2837266Y-15286477D01*
G75*
G02*
X2837266Y-15410221I-61872J-61872D01*
G01*
X2130159Y-16117328D01*
G75*
G02*
X2006415Y-16117328I-61872J61872D01*
G01*
X1882672Y-15993585D01*
G75*
G02*
X1882672Y-15869841I61872J61872D01*
G01*
G37*
G36*
G01*
X1529118Y-15516288D02*
X2236225Y-14809181D01*
G75*
G02*
X2359969Y-14809181I61872J-61872D01*
G01*
X2483712Y-14932924D01*
G75*
G02*
X2483712Y-15056668I-61872J-61872D01*
G01*
X1776605Y-15763775D01*
G75*
G02*
X1652861Y-15763775I-61872J61872D01*
G01*
X1529118Y-15640032D01*
G75*
G02*
X1529118Y-15516288I61872J61872D01*
G01*
G37*
G36*
G01*
X1175565Y-15162734D02*
X1882672Y-14455627D01*
G75*
G02*
X2006416Y-14455627I61872J-61872D01*
G01*
X2130159Y-14579370D01*
G75*
G02*
X2130159Y-14703114I-61872J-61872D01*
G01*
X1423052Y-15410221D01*
G75*
G02*
X1299308Y-15410221I-61872J61872D01*
G01*
X1175565Y-15286478D01*
G75*
G02*
X1175565Y-15162734I61872J61872D01*
G01*
G37*
G36*
G01*
X822012Y-14809181D02*
X1529119Y-14102074D01*
G75*
G02*
X1652863Y-14102074I61872J-61872D01*
G01*
X1776606Y-14225817D01*
G75*
G02*
X1776606Y-14349561I-61872J-61872D01*
G01*
X1069499Y-15056668D01*
G75*
G02*
X945755Y-15056668I-61872J61872D01*
G01*
X822012Y-14932925D01*
G75*
G02*
X822012Y-14809181I61872J61872D01*
G01*
G37*
G36*
G01*
X468458Y-14455628D02*
X1175565Y-13748521D01*
G75*
G02*
X1299309Y-13748521I61872J-61872D01*
G01*
X1423052Y-13872264D01*
G75*
G02*
X1423052Y-13996008I-61872J-61872D01*
G01*
X715945Y-14703115D01*
G75*
G02*
X592201Y-14703115I-61872J61872D01*
G01*
X468458Y-14579372D01*
G75*
G02*
X468458Y-14455628I61872J61872D01*
G01*
G37*
G36*
G01*
X114905Y-14102074D02*
X822012Y-13394967D01*
G75*
G02*
X945756Y-13394967I61872J-61872D01*
G01*
X1069499Y-13518710D01*
G75*
G02*
X1069499Y-13642454I-61872J-61872D01*
G01*
X362392Y-14349561D01*
G75*
G02*
X238648Y-14349561I-61872J61872D01*
G01*
X114905Y-14225818D01*
G75*
G02*
X114905Y-14102074I61872J61872D01*
G01*
G37*
D11*
G36*
X-3747666Y-18000000D02*
G01*
X0Y-14252334D01*
X3747666Y-18000000D01*
X0Y-21747666D01*
X-3747666Y-18000000D01*
G37*
%TD*%
D12*
%TO.C,J4*%
X2480000Y-29660000D03*
X2480000Y-32200000D03*
X-60000Y-29660000D03*
X-60000Y-32200000D03*
X-2600000Y-29660000D03*
D13*
X-2600000Y-32200000D03*
%TD*%
D12*
%TO.C,J3*%
X7620000Y-43180000D03*
X7620000Y-40640000D03*
X7620000Y-38100000D03*
X7620000Y-35560000D03*
X7620000Y-33020000D03*
X7620000Y-30480000D03*
X7620000Y-27940000D03*
X7620000Y-25400000D03*
X7620000Y-22860000D03*
X7620000Y-20320000D03*
X7620000Y-17780000D03*
X7620000Y-15240000D03*
X7620000Y-12700000D03*
X7620000Y-10160000D03*
X7620000Y-7620000D03*
X7620000Y-5080000D03*
X7620000Y-2540000D03*
D13*
X7620000Y0D03*
%TD*%
D12*
%TO.C,J2*%
X-7620000Y-43180000D03*
X-7620000Y-40640000D03*
X-7620000Y-38100000D03*
X-7620000Y-35560000D03*
X-7620000Y-33020000D03*
X-7620000Y-30480000D03*
X-7620000Y-27940000D03*
X-7620000Y-25400000D03*
X-7620000Y-22860000D03*
X-7620000Y-20320000D03*
X-7620000Y-17780000D03*
X-7620000Y-15240000D03*
X-7620000Y-12700000D03*
X-7620000Y-10160000D03*
X-7620000Y-7620000D03*
X-7620000Y-5080000D03*
X-7620000Y-2540000D03*
D13*
X-7620000Y0D03*
%TD*%
%TO.C,R5*%
G36*
G01*
X-140000Y-26002500D02*
X-140000Y-26397500D01*
G75*
G02*
X-312500Y-26570000I-172500J0D01*
G01*
X-657500Y-26570000D01*
G75*
G02*
X-830000Y-26397500I0J172500D01*
G01*
X-830000Y-26002500D01*
G75*
G02*
X-657500Y-25830000I172500J0D01*
G01*
X-312500Y-25830000D01*
G75*
G02*
X-140000Y-26002500I0J-172500D01*
G01*
G37*
G36*
G01*
X830000Y-26002500D02*
X830000Y-26397500D01*
G75*
G02*
X657500Y-26570000I-172500J0D01*
G01*
X312500Y-26570000D01*
G75*
G02*
X140000Y-26397500I0J172500D01*
G01*
X140000Y-26002500D01*
G75*
G02*
X312500Y-25830000I172500J0D01*
G01*
X657500Y-25830000D01*
G75*
G02*
X830000Y-26002500I0J-172500D01*
G01*
G37*
%TD*%
%TO.C,R4*%
G36*
G01*
X-5552500Y2640000D02*
X-5947500Y2640000D01*
G75*
G02*
X-6120000Y2812500I0J172500D01*
G01*
X-6120000Y3157500D01*
G75*
G02*
X-5947500Y3330000I172500J0D01*
G01*
X-5552500Y3330000D01*
G75*
G02*
X-5380000Y3157500I0J-172500D01*
G01*
X-5380000Y2812500D01*
G75*
G02*
X-5552500Y2640000I-172500J0D01*
G01*
G37*
G36*
G01*
X-5552500Y1670000D02*
X-5947500Y1670000D01*
G75*
G02*
X-6120000Y1842500I0J172500D01*
G01*
X-6120000Y2187500D01*
G75*
G02*
X-5947500Y2360000I172500J0D01*
G01*
X-5552500Y2360000D01*
G75*
G02*
X-5380000Y2187500I0J-172500D01*
G01*
X-5380000Y1842500D01*
G75*
G02*
X-5552500Y1670000I-172500J0D01*
G01*
G37*
%TD*%
%TO.C,R3*%
G36*
G01*
X5947500Y2640000D02*
X5552500Y2640000D01*
G75*
G02*
X5380000Y2812500I0J172500D01*
G01*
X5380000Y3157500D01*
G75*
G02*
X5552500Y3330000I172500J0D01*
G01*
X5947500Y3330000D01*
G75*
G02*
X6120000Y3157500I0J-172500D01*
G01*
X6120000Y2812500D01*
G75*
G02*
X5947500Y2640000I-172500J0D01*
G01*
G37*
G36*
G01*
X5947500Y1670000D02*
X5552500Y1670000D01*
G75*
G02*
X5380000Y1842500I0J172500D01*
G01*
X5380000Y2187500D01*
G75*
G02*
X5552500Y2360000I172500J0D01*
G01*
X5947500Y2360000D01*
G75*
G02*
X6120000Y2187500I0J-172500D01*
G01*
X6120000Y1842500D01*
G75*
G02*
X5947500Y1670000I-172500J0D01*
G01*
G37*
%TD*%
%TO.C,D4*%
G36*
G01*
X300000Y-25081250D02*
X300000Y-24518750D01*
G75*
G02*
X543750Y-24275000I243750J0D01*
G01*
X1031250Y-24275000D01*
G75*
G02*
X1275000Y-24518750I0J-243750D01*
G01*
X1275000Y-25081250D01*
G75*
G02*
X1031250Y-25325000I-243750J0D01*
G01*
X543750Y-25325000D01*
G75*
G02*
X300000Y-25081250I0J243750D01*
G01*
G37*
G36*
G01*
X-1275000Y-25081250D02*
X-1275000Y-24518750D01*
G75*
G02*
X-1031250Y-24275000I243750J0D01*
G01*
X-543750Y-24275000D01*
G75*
G02*
X-300000Y-24518750I0J-243750D01*
G01*
X-300000Y-25081250D01*
G75*
G02*
X-543750Y-25325000I-243750J0D01*
G01*
X-1031250Y-25325000D01*
G75*
G02*
X-1275000Y-25081250I0J243750D01*
G01*
G37*
%TD*%
%TO.C,D3*%
G36*
G01*
X-8050000Y2531250D02*
X-8050000Y1968750D01*
G75*
G02*
X-8293750Y1725000I-243750J0D01*
G01*
X-8781250Y1725000D01*
G75*
G02*
X-9025000Y1968750I0J243750D01*
G01*
X-9025000Y2531250D01*
G75*
G02*
X-8781250Y2775000I243750J0D01*
G01*
X-8293750Y2775000D01*
G75*
G02*
X-8050000Y2531250I0J-243750D01*
G01*
G37*
G36*
G01*
X-6475000Y2531250D02*
X-6475000Y1968750D01*
G75*
G02*
X-6718750Y1725000I-243750J0D01*
G01*
X-7206250Y1725000D01*
G75*
G02*
X-7450000Y1968750I0J243750D01*
G01*
X-7450000Y2531250D01*
G75*
G02*
X-7206250Y2775000I243750J0D01*
G01*
X-6718750Y2775000D01*
G75*
G02*
X-6475000Y2531250I0J-243750D01*
G01*
G37*
%TD*%
%TO.C,D2*%
G36*
G01*
X6475000Y1968750D02*
X6475000Y2531250D01*
G75*
G02*
X6718750Y2775000I243750J0D01*
G01*
X7206250Y2775000D01*
G75*
G02*
X7450000Y2531250I0J-243750D01*
G01*
X7450000Y1968750D01*
G75*
G02*
X7206250Y1725000I-243750J0D01*
G01*
X6718750Y1725000D01*
G75*
G02*
X6475000Y1968750I0J243750D01*
G01*
G37*
G36*
G01*
X8050000Y1968750D02*
X8050000Y2531250D01*
G75*
G02*
X8293750Y2775000I243750J0D01*
G01*
X8781250Y2775000D01*
G75*
G02*
X9025000Y2531250I0J-243750D01*
G01*
X9025000Y1968750D01*
G75*
G02*
X8781250Y1725000I-243750J0D01*
G01*
X8293750Y1725000D01*
G75*
G02*
X8050000Y1968750I0J243750D01*
G01*
G37*
%TD*%
D10*
%TO.C,TP2*%
X2000000Y-8500000D03*
%TD*%
%TO.C,TP1*%
X4000000Y-8500000D03*
%TD*%
D14*
%TO.C,U2*%
X-4100000Y-6450000D03*
X-4100000Y-4550000D03*
X-1900000Y-4550000D03*
X-1900000Y-5500000D03*
X-1900000Y-6450000D03*
%TD*%
D15*
%TO.C,D1*%
X0Y-4450000D03*
X0Y-6550000D03*
%TD*%
%TO.C,C3*%
G36*
G01*
X-4302500Y-8360000D02*
X-4697500Y-8360000D01*
G75*
G02*
X-4870000Y-8187500I0J172500D01*
G01*
X-4870000Y-7842500D01*
G75*
G02*
X-4697500Y-7670000I172500J0D01*
G01*
X-4302500Y-7670000D01*
G75*
G02*
X-4130000Y-7842500I0J-172500D01*
G01*
X-4130000Y-8187500D01*
G75*
G02*
X-4302500Y-8360000I-172500J0D01*
G01*
G37*
G36*
G01*
X-4302500Y-9330000D02*
X-4697500Y-9330000D01*
G75*
G02*
X-4870000Y-9157500I0J172500D01*
G01*
X-4870000Y-8812500D01*
G75*
G02*
X-4697500Y-8640000I172500J0D01*
G01*
X-4302500Y-8640000D01*
G75*
G02*
X-4130000Y-8812500I0J-172500D01*
G01*
X-4130000Y-9157500D01*
G75*
G02*
X-4302500Y-9330000I-172500J0D01*
G01*
G37*
%TD*%
%TO.C,C1*%
G36*
G01*
X-1302500Y-8360000D02*
X-1697500Y-8360000D01*
G75*
G02*
X-1870000Y-8187500I0J172500D01*
G01*
X-1870000Y-7842500D01*
G75*
G02*
X-1697500Y-7670000I172500J0D01*
G01*
X-1302500Y-7670000D01*
G75*
G02*
X-1130000Y-7842500I0J-172500D01*
G01*
X-1130000Y-8187500D01*
G75*
G02*
X-1302500Y-8360000I-172500J0D01*
G01*
G37*
G36*
G01*
X-1302500Y-9330000D02*
X-1697500Y-9330000D01*
G75*
G02*
X-1870000Y-9157500I0J172500D01*
G01*
X-1870000Y-8812500D01*
G75*
G02*
X-1697500Y-8640000I172500J0D01*
G01*
X-1302500Y-8640000D01*
G75*
G02*
X-1130000Y-8812500I0J-172500D01*
G01*
X-1130000Y-9157500D01*
G75*
G02*
X-1302500Y-9330000I-172500J0D01*
G01*
G37*
%TD*%
%TO.C,R2*%
G36*
G01*
X1697500Y-4860000D02*
X1302500Y-4860000D01*
G75*
G02*
X1130000Y-4687500I0J172500D01*
G01*
X1130000Y-4342500D01*
G75*
G02*
X1302500Y-4170000I172500J0D01*
G01*
X1697500Y-4170000D01*
G75*
G02*
X1870000Y-4342500I0J-172500D01*
G01*
X1870000Y-4687500D01*
G75*
G02*
X1697500Y-4860000I-172500J0D01*
G01*
G37*
G36*
G01*
X1697500Y-5830000D02*
X1302500Y-5830000D01*
G75*
G02*
X1130000Y-5657500I0J172500D01*
G01*
X1130000Y-5312500D01*
G75*
G02*
X1302500Y-5140000I172500J0D01*
G01*
X1697500Y-5140000D01*
G75*
G02*
X1870000Y-5312500I0J-172500D01*
G01*
X1870000Y-5657500D01*
G75*
G02*
X1697500Y-5830000I-172500J0D01*
G01*
G37*
%TD*%
%TO.C,R1*%
G36*
G01*
X2697500Y-4860000D02*
X2302500Y-4860000D01*
G75*
G02*
X2130000Y-4687500I0J172500D01*
G01*
X2130000Y-4342500D01*
G75*
G02*
X2302500Y-4170000I172500J0D01*
G01*
X2697500Y-4170000D01*
G75*
G02*
X2870000Y-4342500I0J-172500D01*
G01*
X2870000Y-4687500D01*
G75*
G02*
X2697500Y-4860000I-172500J0D01*
G01*
G37*
G36*
G01*
X2697500Y-5830000D02*
X2302500Y-5830000D01*
G75*
G02*
X2130000Y-5657500I0J172500D01*
G01*
X2130000Y-5312500D01*
G75*
G02*
X2302500Y-5140000I172500J0D01*
G01*
X2697500Y-5140000D01*
G75*
G02*
X2870000Y-5312500I0J-172500D01*
G01*
X2870000Y-5657500D01*
G75*
G02*
X2697500Y-5830000I-172500J0D01*
G01*
G37*
%TD*%
%TO.C,C2*%
G36*
G01*
X-3540658Y-14488649D02*
X-3261351Y-14209341D01*
G75*
G02*
X-3017399Y-14209341I121976J-121976D01*
G01*
X-2773447Y-14453293D01*
G75*
G02*
X-2773447Y-14697245I-121976J-121976D01*
G01*
X-3052755Y-14976553D01*
G75*
G02*
X-3296707Y-14976553I-121976J121976D01*
G01*
X-3540659Y-14732601D01*
G75*
G02*
X-3540659Y-14488649I121976J121976D01*
G01*
G37*
G36*
G01*
X-4226552Y-13802755D02*
X-3947245Y-13523447D01*
G75*
G02*
X-3703293Y-13523447I121976J-121976D01*
G01*
X-3459341Y-13767399D01*
G75*
G02*
X-3459341Y-14011351I-121976J-121976D01*
G01*
X-3738649Y-14290659D01*
G75*
G02*
X-3982601Y-14290659I-121976J121976D01*
G01*
X-4226553Y-14046707D01*
G75*
G02*
X-4226553Y-13802755I121976J121976D01*
G01*
G37*
%TD*%
D16*
%TO.C,J1*%
X4320000Y-1930000D03*
X-4320000Y-1930000D03*
D17*
X4320000Y2240000D03*
X-4320000Y2240000D03*
D18*
X750000Y-2510000D03*
X250000Y-2510000D03*
X-250000Y-2510000D03*
X1750000Y-2510000D03*
X1250000Y-2510000D03*
X-1250000Y-2510000D03*
X-750000Y-2510000D03*
X-1750000Y-2510000D03*
D19*
X-2890000Y-1450000D03*
X2890000Y-1450000D03*
D20*
X2400000Y-2510000D03*
X2400000Y-2510000D03*
X3200000Y-2510000D03*
X3200000Y-2510000D03*
X-2400000Y-2510000D03*
X-3200000Y-2510000D03*
X-2400000Y-2510000D03*
X-3200000Y-2510000D03*
%TD*%
M02*
