%TF.GenerationSoftware,KiCad,Pcbnew,5.1.6-c6e7f7d~87~ubuntu18.04.1*%
%TF.CreationDate,2020-08-19T11:44:15-04:00*%
%TF.ProjectId,atmegaXu4_breakout,61746d65-6761-4587-9534-5f627265616b,rev?*%
%TF.SameCoordinates,Original*%
%TF.FileFunction,Paste,Top*%
%TF.FilePolarity,Positive*%
%FSLAX46Y46*%
G04 Gerber Fmt 4.6, Leading zero omitted, Abs format (unit mm)*
G04 Created by KiCad (PCBNEW 5.1.6-c6e7f7d~87~ubuntu18.04.1) date 2020-08-19 11:44:15*
%MOMM*%
%LPD*%
G01*
G04 APERTURE LIST*
%ADD10R,1.060000X0.650000*%
%ADD11R,0.450000X0.600000*%
%ADD12R,0.300000X1.160000*%
%ADD13R,0.600000X1.160000*%
G04 APERTURE END LIST*
%TO.C,R6*%
G36*
G01*
X-5312375Y-19143674D02*
X-5556327Y-19387625D01*
G75*
G02*
X-5764923Y-19387625I-104298J104298D01*
G01*
X-5973519Y-19179029D01*
G75*
G02*
X-5973519Y-18970433I104298J104298D01*
G01*
X-5729567Y-18726481D01*
G75*
G02*
X-5520971Y-18726481I104298J-104298D01*
G01*
X-5312375Y-18935077D01*
G75*
G02*
X-5312375Y-19143673I-104298J-104298D01*
G01*
G37*
G36*
G01*
X-4626481Y-19829568D02*
X-4870433Y-20073519D01*
G75*
G02*
X-5079029Y-20073519I-104298J104298D01*
G01*
X-5287625Y-19864923D01*
G75*
G02*
X-5287625Y-19656327I104298J104298D01*
G01*
X-5043673Y-19412375D01*
G75*
G02*
X-4835077Y-19412375I104298J-104298D01*
G01*
X-4626481Y-19620971D01*
G75*
G02*
X-4626481Y-19829567I-104298J-104298D01*
G01*
G37*
%TD*%
%TO.C,C5*%
G36*
G01*
X-4243674Y-20987625D02*
X-4487625Y-20743673D01*
G75*
G02*
X-4487625Y-20535077I104298J104298D01*
G01*
X-4279029Y-20326481D01*
G75*
G02*
X-4070433Y-20326481I104298J-104298D01*
G01*
X-3826481Y-20570433D01*
G75*
G02*
X-3826481Y-20779029I-104298J-104298D01*
G01*
X-4035077Y-20987625D01*
G75*
G02*
X-4243673Y-20987625I-104298J104298D01*
G01*
G37*
G36*
G01*
X-4929568Y-21673519D02*
X-5173519Y-21429567D01*
G75*
G02*
X-5173519Y-21220971I104298J104298D01*
G01*
X-4964923Y-21012375D01*
G75*
G02*
X-4756327Y-21012375I104298J-104298D01*
G01*
X-4512375Y-21256327D01*
G75*
G02*
X-4512375Y-21464923I-104298J-104298D01*
G01*
X-4720971Y-21673519D01*
G75*
G02*
X-4929567Y-21673519I-104298J104298D01*
G01*
G37*
%TD*%
%TO.C,C4*%
G36*
G01*
X5212375Y-16856326D02*
X5456327Y-16612375D01*
G75*
G02*
X5664923Y-16612375I104298J-104298D01*
G01*
X5873519Y-16820971D01*
G75*
G02*
X5873519Y-17029567I-104298J-104298D01*
G01*
X5629567Y-17273519D01*
G75*
G02*
X5420971Y-17273519I-104298J104298D01*
G01*
X5212375Y-17064923D01*
G75*
G02*
X5212375Y-16856327I104298J104298D01*
G01*
G37*
G36*
G01*
X4526481Y-16170432D02*
X4770433Y-15926481D01*
G75*
G02*
X4979029Y-15926481I104298J-104298D01*
G01*
X5187625Y-16135077D01*
G75*
G02*
X5187625Y-16343673I-104298J-104298D01*
G01*
X4943673Y-16587625D01*
G75*
G02*
X4735077Y-16587625I-104298J104298D01*
G01*
X4526481Y-16379029D01*
G75*
G02*
X4526481Y-16170433I104298J104298D01*
G01*
G37*
%TD*%
%TO.C,U1*%
G36*
G01*
X-1016466Y-13536388D02*
X-928078Y-13448000D01*
G75*
G02*
X-839690Y-13448000I44194J-44194D01*
G01*
X-167938Y-14119752D01*
G75*
G02*
X-167938Y-14208140I-44194J-44194D01*
G01*
X-256326Y-14296528D01*
G75*
G02*
X-344714Y-14296528I-44194J44194D01*
G01*
X-1016466Y-13624776D01*
G75*
G02*
X-1016466Y-13536388I44194J44194D01*
G01*
G37*
G36*
G01*
X-1370019Y-13889942D02*
X-1281631Y-13801554D01*
G75*
G02*
X-1193243Y-13801554I44194J-44194D01*
G01*
X-521491Y-14473306D01*
G75*
G02*
X-521491Y-14561694I-44194J-44194D01*
G01*
X-609879Y-14650082D01*
G75*
G02*
X-698267Y-14650082I-44194J44194D01*
G01*
X-1370019Y-13978330D01*
G75*
G02*
X-1370019Y-13889942I44194J44194D01*
G01*
G37*
G36*
G01*
X-1723573Y-14243495D02*
X-1635185Y-14155107D01*
G75*
G02*
X-1546797Y-14155107I44194J-44194D01*
G01*
X-875045Y-14826859D01*
G75*
G02*
X-875045Y-14915247I-44194J-44194D01*
G01*
X-963433Y-15003635D01*
G75*
G02*
X-1051821Y-15003635I-44194J44194D01*
G01*
X-1723573Y-14331883D01*
G75*
G02*
X-1723573Y-14243495I44194J44194D01*
G01*
G37*
G36*
G01*
X-2077126Y-14597048D02*
X-1988738Y-14508660D01*
G75*
G02*
X-1900350Y-14508660I44194J-44194D01*
G01*
X-1228598Y-15180412D01*
G75*
G02*
X-1228598Y-15268800I-44194J-44194D01*
G01*
X-1316986Y-15357188D01*
G75*
G02*
X-1405374Y-15357188I-44194J44194D01*
G01*
X-2077126Y-14685436D01*
G75*
G02*
X-2077126Y-14597048I44194J44194D01*
G01*
G37*
G36*
G01*
X-2430679Y-14950602D02*
X-2342291Y-14862214D01*
G75*
G02*
X-2253903Y-14862214I44194J-44194D01*
G01*
X-1582151Y-15533966D01*
G75*
G02*
X-1582151Y-15622354I-44194J-44194D01*
G01*
X-1670539Y-15710742D01*
G75*
G02*
X-1758927Y-15710742I-44194J44194D01*
G01*
X-2430679Y-15038990D01*
G75*
G02*
X-2430679Y-14950602I44194J44194D01*
G01*
G37*
G36*
G01*
X-2784233Y-15304155D02*
X-2695845Y-15215767D01*
G75*
G02*
X-2607457Y-15215767I44194J-44194D01*
G01*
X-1935705Y-15887519D01*
G75*
G02*
X-1935705Y-15975907I-44194J-44194D01*
G01*
X-2024093Y-16064295D01*
G75*
G02*
X-2112481Y-16064295I-44194J44194D01*
G01*
X-2784233Y-15392543D01*
G75*
G02*
X-2784233Y-15304155I44194J44194D01*
G01*
G37*
G36*
G01*
X-3137786Y-15657709D02*
X-3049398Y-15569321D01*
G75*
G02*
X-2961010Y-15569321I44194J-44194D01*
G01*
X-2289258Y-16241073D01*
G75*
G02*
X-2289258Y-16329461I-44194J-44194D01*
G01*
X-2377646Y-16417849D01*
G75*
G02*
X-2466034Y-16417849I-44194J44194D01*
G01*
X-3137786Y-15746097D01*
G75*
G02*
X-3137786Y-15657709I44194J44194D01*
G01*
G37*
G36*
G01*
X-3491340Y-16011262D02*
X-3402952Y-15922874D01*
G75*
G02*
X-3314564Y-15922874I44194J-44194D01*
G01*
X-2642812Y-16594626D01*
G75*
G02*
X-2642812Y-16683014I-44194J-44194D01*
G01*
X-2731200Y-16771402D01*
G75*
G02*
X-2819588Y-16771402I-44194J44194D01*
G01*
X-3491340Y-16099650D01*
G75*
G02*
X-3491340Y-16011262I44194J44194D01*
G01*
G37*
G36*
G01*
X-3844893Y-16364815D02*
X-3756505Y-16276427D01*
G75*
G02*
X-3668117Y-16276427I44194J-44194D01*
G01*
X-2996365Y-16948179D01*
G75*
G02*
X-2996365Y-17036567I-44194J-44194D01*
G01*
X-3084753Y-17124955D01*
G75*
G02*
X-3173141Y-17124955I-44194J44194D01*
G01*
X-3844893Y-16453203D01*
G75*
G02*
X-3844893Y-16364815I44194J44194D01*
G01*
G37*
G36*
G01*
X-4198446Y-16718369D02*
X-4110058Y-16629981D01*
G75*
G02*
X-4021670Y-16629981I44194J-44194D01*
G01*
X-3349918Y-17301733D01*
G75*
G02*
X-3349918Y-17390121I-44194J-44194D01*
G01*
X-3438306Y-17478509D01*
G75*
G02*
X-3526694Y-17478509I-44194J44194D01*
G01*
X-4198446Y-16806757D01*
G75*
G02*
X-4198446Y-16718369I44194J44194D01*
G01*
G37*
G36*
G01*
X-4552000Y-17071922D02*
X-4463612Y-16983534D01*
G75*
G02*
X-4375224Y-16983534I44194J-44194D01*
G01*
X-3703472Y-17655286D01*
G75*
G02*
X-3703472Y-17743674I-44194J-44194D01*
G01*
X-3791860Y-17832062D01*
G75*
G02*
X-3880248Y-17832062I-44194J44194D01*
G01*
X-4552000Y-17160310D01*
G75*
G02*
X-4552000Y-17071922I44194J44194D01*
G01*
G37*
G36*
G01*
X-4552000Y-18839689D02*
X-3880248Y-18167938D01*
G75*
G02*
X-3791860Y-18167938I44194J-44194D01*
G01*
X-3703472Y-18256326D01*
G75*
G02*
X-3703472Y-18344714I-44194J-44194D01*
G01*
X-4375224Y-19016466D01*
G75*
G02*
X-4463612Y-19016466I-44194J44194D01*
G01*
X-4552000Y-18928078D01*
G75*
G02*
X-4552000Y-18839690I44194J44194D01*
G01*
G37*
G36*
G01*
X-4198446Y-19193242D02*
X-3526694Y-18521491D01*
G75*
G02*
X-3438306Y-18521491I44194J-44194D01*
G01*
X-3349918Y-18609879D01*
G75*
G02*
X-3349918Y-18698267I-44194J-44194D01*
G01*
X-4021670Y-19370019D01*
G75*
G02*
X-4110058Y-19370019I-44194J44194D01*
G01*
X-4198446Y-19281631D01*
G75*
G02*
X-4198446Y-19193243I44194J44194D01*
G01*
G37*
G36*
G01*
X-3844893Y-19546796D02*
X-3173141Y-18875045D01*
G75*
G02*
X-3084753Y-18875045I44194J-44194D01*
G01*
X-2996365Y-18963433D01*
G75*
G02*
X-2996365Y-19051821I-44194J-44194D01*
G01*
X-3668117Y-19723573D01*
G75*
G02*
X-3756505Y-19723573I-44194J44194D01*
G01*
X-3844893Y-19635185D01*
G75*
G02*
X-3844893Y-19546797I44194J44194D01*
G01*
G37*
G36*
G01*
X-3491340Y-19900349D02*
X-2819588Y-19228598D01*
G75*
G02*
X-2731200Y-19228598I44194J-44194D01*
G01*
X-2642812Y-19316986D01*
G75*
G02*
X-2642812Y-19405374I-44194J-44194D01*
G01*
X-3314564Y-20077126D01*
G75*
G02*
X-3402952Y-20077126I-44194J44194D01*
G01*
X-3491340Y-19988738D01*
G75*
G02*
X-3491340Y-19900350I44194J44194D01*
G01*
G37*
G36*
G01*
X-3137786Y-20253902D02*
X-2466034Y-19582151D01*
G75*
G02*
X-2377646Y-19582151I44194J-44194D01*
G01*
X-2289258Y-19670539D01*
G75*
G02*
X-2289258Y-19758927I-44194J-44194D01*
G01*
X-2961010Y-20430679D01*
G75*
G02*
X-3049398Y-20430679I-44194J44194D01*
G01*
X-3137786Y-20342291D01*
G75*
G02*
X-3137786Y-20253903I44194J44194D01*
G01*
G37*
G36*
G01*
X-2784233Y-20607456D02*
X-2112481Y-19935705D01*
G75*
G02*
X-2024093Y-19935705I44194J-44194D01*
G01*
X-1935705Y-20024093D01*
G75*
G02*
X-1935705Y-20112481I-44194J-44194D01*
G01*
X-2607457Y-20784233D01*
G75*
G02*
X-2695845Y-20784233I-44194J44194D01*
G01*
X-2784233Y-20695845D01*
G75*
G02*
X-2784233Y-20607457I44194J44194D01*
G01*
G37*
G36*
G01*
X-2430679Y-20961009D02*
X-1758927Y-20289258D01*
G75*
G02*
X-1670539Y-20289258I44194J-44194D01*
G01*
X-1582151Y-20377646D01*
G75*
G02*
X-1582151Y-20466034I-44194J-44194D01*
G01*
X-2253903Y-21137786D01*
G75*
G02*
X-2342291Y-21137786I-44194J44194D01*
G01*
X-2430679Y-21049398D01*
G75*
G02*
X-2430679Y-20961010I44194J44194D01*
G01*
G37*
G36*
G01*
X-2077126Y-21314563D02*
X-1405374Y-20642812D01*
G75*
G02*
X-1316986Y-20642812I44194J-44194D01*
G01*
X-1228598Y-20731200D01*
G75*
G02*
X-1228598Y-20819588I-44194J-44194D01*
G01*
X-1900350Y-21491340D01*
G75*
G02*
X-1988738Y-21491340I-44194J44194D01*
G01*
X-2077126Y-21402952D01*
G75*
G02*
X-2077126Y-21314564I44194J44194D01*
G01*
G37*
G36*
G01*
X-1723573Y-21668116D02*
X-1051821Y-20996365D01*
G75*
G02*
X-963433Y-20996365I44194J-44194D01*
G01*
X-875045Y-21084753D01*
G75*
G02*
X-875045Y-21173141I-44194J-44194D01*
G01*
X-1546797Y-21844893D01*
G75*
G02*
X-1635185Y-21844893I-44194J44194D01*
G01*
X-1723573Y-21756505D01*
G75*
G02*
X-1723573Y-21668117I44194J44194D01*
G01*
G37*
G36*
G01*
X-1370019Y-22021669D02*
X-698267Y-21349918D01*
G75*
G02*
X-609879Y-21349918I44194J-44194D01*
G01*
X-521491Y-21438306D01*
G75*
G02*
X-521491Y-21526694I-44194J-44194D01*
G01*
X-1193243Y-22198446D01*
G75*
G02*
X-1281631Y-22198446I-44194J44194D01*
G01*
X-1370019Y-22110058D01*
G75*
G02*
X-1370019Y-22021670I44194J44194D01*
G01*
G37*
G36*
G01*
X-1016466Y-22375223D02*
X-344714Y-21703472D01*
G75*
G02*
X-256326Y-21703472I44194J-44194D01*
G01*
X-167938Y-21791860D01*
G75*
G02*
X-167938Y-21880248I-44194J-44194D01*
G01*
X-839690Y-22552000D01*
G75*
G02*
X-928078Y-22552000I-44194J44194D01*
G01*
X-1016466Y-22463612D01*
G75*
G02*
X-1016466Y-22375224I44194J44194D01*
G01*
G37*
G36*
G01*
X167938Y-21791860D02*
X256326Y-21703472D01*
G75*
G02*
X344714Y-21703472I44194J-44194D01*
G01*
X1016466Y-22375224D01*
G75*
G02*
X1016466Y-22463612I-44194J-44194D01*
G01*
X928078Y-22552000D01*
G75*
G02*
X839690Y-22552000I-44194J44194D01*
G01*
X167938Y-21880248D01*
G75*
G02*
X167938Y-21791860I44194J44194D01*
G01*
G37*
G36*
G01*
X521491Y-21438306D02*
X609879Y-21349918D01*
G75*
G02*
X698267Y-21349918I44194J-44194D01*
G01*
X1370019Y-22021670D01*
G75*
G02*
X1370019Y-22110058I-44194J-44194D01*
G01*
X1281631Y-22198446D01*
G75*
G02*
X1193243Y-22198446I-44194J44194D01*
G01*
X521491Y-21526694D01*
G75*
G02*
X521491Y-21438306I44194J44194D01*
G01*
G37*
G36*
G01*
X875045Y-21084753D02*
X963433Y-20996365D01*
G75*
G02*
X1051821Y-20996365I44194J-44194D01*
G01*
X1723573Y-21668117D01*
G75*
G02*
X1723573Y-21756505I-44194J-44194D01*
G01*
X1635185Y-21844893D01*
G75*
G02*
X1546797Y-21844893I-44194J44194D01*
G01*
X875045Y-21173141D01*
G75*
G02*
X875045Y-21084753I44194J44194D01*
G01*
G37*
G36*
G01*
X1228598Y-20731200D02*
X1316986Y-20642812D01*
G75*
G02*
X1405374Y-20642812I44194J-44194D01*
G01*
X2077126Y-21314564D01*
G75*
G02*
X2077126Y-21402952I-44194J-44194D01*
G01*
X1988738Y-21491340D01*
G75*
G02*
X1900350Y-21491340I-44194J44194D01*
G01*
X1228598Y-20819588D01*
G75*
G02*
X1228598Y-20731200I44194J44194D01*
G01*
G37*
G36*
G01*
X1582151Y-20377646D02*
X1670539Y-20289258D01*
G75*
G02*
X1758927Y-20289258I44194J-44194D01*
G01*
X2430679Y-20961010D01*
G75*
G02*
X2430679Y-21049398I-44194J-44194D01*
G01*
X2342291Y-21137786D01*
G75*
G02*
X2253903Y-21137786I-44194J44194D01*
G01*
X1582151Y-20466034D01*
G75*
G02*
X1582151Y-20377646I44194J44194D01*
G01*
G37*
G36*
G01*
X1935705Y-20024093D02*
X2024093Y-19935705D01*
G75*
G02*
X2112481Y-19935705I44194J-44194D01*
G01*
X2784233Y-20607457D01*
G75*
G02*
X2784233Y-20695845I-44194J-44194D01*
G01*
X2695845Y-20784233D01*
G75*
G02*
X2607457Y-20784233I-44194J44194D01*
G01*
X1935705Y-20112481D01*
G75*
G02*
X1935705Y-20024093I44194J44194D01*
G01*
G37*
G36*
G01*
X2289258Y-19670539D02*
X2377646Y-19582151D01*
G75*
G02*
X2466034Y-19582151I44194J-44194D01*
G01*
X3137786Y-20253903D01*
G75*
G02*
X3137786Y-20342291I-44194J-44194D01*
G01*
X3049398Y-20430679D01*
G75*
G02*
X2961010Y-20430679I-44194J44194D01*
G01*
X2289258Y-19758927D01*
G75*
G02*
X2289258Y-19670539I44194J44194D01*
G01*
G37*
G36*
G01*
X2642812Y-19316986D02*
X2731200Y-19228598D01*
G75*
G02*
X2819588Y-19228598I44194J-44194D01*
G01*
X3491340Y-19900350D01*
G75*
G02*
X3491340Y-19988738I-44194J-44194D01*
G01*
X3402952Y-20077126D01*
G75*
G02*
X3314564Y-20077126I-44194J44194D01*
G01*
X2642812Y-19405374D01*
G75*
G02*
X2642812Y-19316986I44194J44194D01*
G01*
G37*
G36*
G01*
X2996365Y-18963433D02*
X3084753Y-18875045D01*
G75*
G02*
X3173141Y-18875045I44194J-44194D01*
G01*
X3844893Y-19546797D01*
G75*
G02*
X3844893Y-19635185I-44194J-44194D01*
G01*
X3756505Y-19723573D01*
G75*
G02*
X3668117Y-19723573I-44194J44194D01*
G01*
X2996365Y-19051821D01*
G75*
G02*
X2996365Y-18963433I44194J44194D01*
G01*
G37*
G36*
G01*
X3349918Y-18609879D02*
X3438306Y-18521491D01*
G75*
G02*
X3526694Y-18521491I44194J-44194D01*
G01*
X4198446Y-19193243D01*
G75*
G02*
X4198446Y-19281631I-44194J-44194D01*
G01*
X4110058Y-19370019D01*
G75*
G02*
X4021670Y-19370019I-44194J44194D01*
G01*
X3349918Y-18698267D01*
G75*
G02*
X3349918Y-18609879I44194J44194D01*
G01*
G37*
G36*
G01*
X3703472Y-18256326D02*
X3791860Y-18167938D01*
G75*
G02*
X3880248Y-18167938I44194J-44194D01*
G01*
X4552000Y-18839690D01*
G75*
G02*
X4552000Y-18928078I-44194J-44194D01*
G01*
X4463612Y-19016466D01*
G75*
G02*
X4375224Y-19016466I-44194J44194D01*
G01*
X3703472Y-18344714D01*
G75*
G02*
X3703472Y-18256326I44194J44194D01*
G01*
G37*
G36*
G01*
X3703472Y-17655285D02*
X4375224Y-16983534D01*
G75*
G02*
X4463612Y-16983534I44194J-44194D01*
G01*
X4552000Y-17071922D01*
G75*
G02*
X4552000Y-17160310I-44194J-44194D01*
G01*
X3880248Y-17832062D01*
G75*
G02*
X3791860Y-17832062I-44194J44194D01*
G01*
X3703472Y-17743674D01*
G75*
G02*
X3703472Y-17655286I44194J44194D01*
G01*
G37*
G36*
G01*
X3349918Y-17301732D02*
X4021670Y-16629981D01*
G75*
G02*
X4110058Y-16629981I44194J-44194D01*
G01*
X4198446Y-16718369D01*
G75*
G02*
X4198446Y-16806757I-44194J-44194D01*
G01*
X3526694Y-17478509D01*
G75*
G02*
X3438306Y-17478509I-44194J44194D01*
G01*
X3349918Y-17390121D01*
G75*
G02*
X3349918Y-17301733I44194J44194D01*
G01*
G37*
G36*
G01*
X2996365Y-16948178D02*
X3668117Y-16276427D01*
G75*
G02*
X3756505Y-16276427I44194J-44194D01*
G01*
X3844893Y-16364815D01*
G75*
G02*
X3844893Y-16453203I-44194J-44194D01*
G01*
X3173141Y-17124955D01*
G75*
G02*
X3084753Y-17124955I-44194J44194D01*
G01*
X2996365Y-17036567D01*
G75*
G02*
X2996365Y-16948179I44194J44194D01*
G01*
G37*
G36*
G01*
X2642812Y-16594625D02*
X3314564Y-15922874D01*
G75*
G02*
X3402952Y-15922874I44194J-44194D01*
G01*
X3491340Y-16011262D01*
G75*
G02*
X3491340Y-16099650I-44194J-44194D01*
G01*
X2819588Y-16771402D01*
G75*
G02*
X2731200Y-16771402I-44194J44194D01*
G01*
X2642812Y-16683014D01*
G75*
G02*
X2642812Y-16594626I44194J44194D01*
G01*
G37*
G36*
G01*
X2289258Y-16241072D02*
X2961010Y-15569321D01*
G75*
G02*
X3049398Y-15569321I44194J-44194D01*
G01*
X3137786Y-15657709D01*
G75*
G02*
X3137786Y-15746097I-44194J-44194D01*
G01*
X2466034Y-16417849D01*
G75*
G02*
X2377646Y-16417849I-44194J44194D01*
G01*
X2289258Y-16329461D01*
G75*
G02*
X2289258Y-16241073I44194J44194D01*
G01*
G37*
G36*
G01*
X1935705Y-15887518D02*
X2607457Y-15215767D01*
G75*
G02*
X2695845Y-15215767I44194J-44194D01*
G01*
X2784233Y-15304155D01*
G75*
G02*
X2784233Y-15392543I-44194J-44194D01*
G01*
X2112481Y-16064295D01*
G75*
G02*
X2024093Y-16064295I-44194J44194D01*
G01*
X1935705Y-15975907D01*
G75*
G02*
X1935705Y-15887519I44194J44194D01*
G01*
G37*
G36*
G01*
X1582151Y-15533965D02*
X2253903Y-14862214D01*
G75*
G02*
X2342291Y-14862214I44194J-44194D01*
G01*
X2430679Y-14950602D01*
G75*
G02*
X2430679Y-15038990I-44194J-44194D01*
G01*
X1758927Y-15710742D01*
G75*
G02*
X1670539Y-15710742I-44194J44194D01*
G01*
X1582151Y-15622354D01*
G75*
G02*
X1582151Y-15533966I44194J44194D01*
G01*
G37*
G36*
G01*
X1228598Y-15180411D02*
X1900350Y-14508660D01*
G75*
G02*
X1988738Y-14508660I44194J-44194D01*
G01*
X2077126Y-14597048D01*
G75*
G02*
X2077126Y-14685436I-44194J-44194D01*
G01*
X1405374Y-15357188D01*
G75*
G02*
X1316986Y-15357188I-44194J44194D01*
G01*
X1228598Y-15268800D01*
G75*
G02*
X1228598Y-15180412I44194J44194D01*
G01*
G37*
G36*
G01*
X875045Y-14826858D02*
X1546797Y-14155107D01*
G75*
G02*
X1635185Y-14155107I44194J-44194D01*
G01*
X1723573Y-14243495D01*
G75*
G02*
X1723573Y-14331883I-44194J-44194D01*
G01*
X1051821Y-15003635D01*
G75*
G02*
X963433Y-15003635I-44194J44194D01*
G01*
X875045Y-14915247D01*
G75*
G02*
X875045Y-14826859I44194J44194D01*
G01*
G37*
G36*
G01*
X521491Y-14473305D02*
X1193243Y-13801554D01*
G75*
G02*
X1281631Y-13801554I44194J-44194D01*
G01*
X1370019Y-13889942D01*
G75*
G02*
X1370019Y-13978330I-44194J-44194D01*
G01*
X698267Y-14650082D01*
G75*
G02*
X609879Y-14650082I-44194J44194D01*
G01*
X521491Y-14561694D01*
G75*
G02*
X521491Y-14473306I44194J44194D01*
G01*
G37*
G36*
G01*
X167938Y-14119751D02*
X839690Y-13448000D01*
G75*
G02*
X928078Y-13448000I44194J-44194D01*
G01*
X1016466Y-13536388D01*
G75*
G02*
X1016466Y-13624776I-44194J-44194D01*
G01*
X344714Y-14296528D01*
G75*
G02*
X256326Y-14296528I-44194J44194D01*
G01*
X167938Y-14208140D01*
G75*
G02*
X167938Y-14119752I44194J44194D01*
G01*
G37*
G36*
G01*
X-565686Y-15065508D02*
X-176776Y-14676598D01*
G75*
G02*
X176776Y-14676598I176776J-176776D01*
G01*
X565686Y-15065508D01*
G75*
G02*
X565686Y-15419060I-176776J-176776D01*
G01*
X176776Y-15807970D01*
G75*
G02*
X-176776Y-15807970I-176776J176776D01*
G01*
X-565686Y-15419060D01*
G75*
G02*
X-565686Y-15065508I176776J176776D01*
G01*
G37*
G36*
G01*
X-1484925Y-15984746D02*
X-1096015Y-15595836D01*
G75*
G02*
X-742463Y-15595836I176776J-176776D01*
G01*
X-353553Y-15984746D01*
G75*
G02*
X-353553Y-16338298I-176776J-176776D01*
G01*
X-742463Y-16727208D01*
G75*
G02*
X-1096015Y-16727208I-176776J176776D01*
G01*
X-1484925Y-16338298D01*
G75*
G02*
X-1484925Y-15984746I176776J176776D01*
G01*
G37*
G36*
G01*
X-2404164Y-16903985D02*
X-2015254Y-16515075D01*
G75*
G02*
X-1661702Y-16515075I176776J-176776D01*
G01*
X-1272792Y-16903985D01*
G75*
G02*
X-1272792Y-17257537I-176776J-176776D01*
G01*
X-1661702Y-17646447D01*
G75*
G02*
X-2015254Y-17646447I-176776J176776D01*
G01*
X-2404164Y-17257537D01*
G75*
G02*
X-2404164Y-16903985I176776J176776D01*
G01*
G37*
G36*
G01*
X-3323402Y-17823224D02*
X-2934492Y-17434314D01*
G75*
G02*
X-2580940Y-17434314I176776J-176776D01*
G01*
X-2192030Y-17823224D01*
G75*
G02*
X-2192030Y-18176776I-176776J-176776D01*
G01*
X-2580940Y-18565686D01*
G75*
G02*
X-2934492Y-18565686I-176776J176776D01*
G01*
X-3323402Y-18176776D01*
G75*
G02*
X-3323402Y-17823224I176776J176776D01*
G01*
G37*
G36*
G01*
X353553Y-15984746D02*
X742463Y-15595836D01*
G75*
G02*
X1096015Y-15595836I176776J-176776D01*
G01*
X1484925Y-15984746D01*
G75*
G02*
X1484925Y-16338298I-176776J-176776D01*
G01*
X1096015Y-16727208D01*
G75*
G02*
X742463Y-16727208I-176776J176776D01*
G01*
X353553Y-16338298D01*
G75*
G02*
X353553Y-15984746I176776J176776D01*
G01*
G37*
G36*
G01*
X-565686Y-16903985D02*
X-176776Y-16515075D01*
G75*
G02*
X176776Y-16515075I176776J-176776D01*
G01*
X565686Y-16903985D01*
G75*
G02*
X565686Y-17257537I-176776J-176776D01*
G01*
X176776Y-17646447D01*
G75*
G02*
X-176776Y-17646447I-176776J176776D01*
G01*
X-565686Y-17257537D01*
G75*
G02*
X-565686Y-16903985I176776J176776D01*
G01*
G37*
G36*
G01*
X-1484925Y-17823224D02*
X-1096015Y-17434314D01*
G75*
G02*
X-742463Y-17434314I176776J-176776D01*
G01*
X-353553Y-17823224D01*
G75*
G02*
X-353553Y-18176776I-176776J-176776D01*
G01*
X-742463Y-18565686D01*
G75*
G02*
X-1096015Y-18565686I-176776J176776D01*
G01*
X-1484925Y-18176776D01*
G75*
G02*
X-1484925Y-17823224I176776J176776D01*
G01*
G37*
G36*
G01*
X-2404164Y-18742463D02*
X-2015254Y-18353553D01*
G75*
G02*
X-1661702Y-18353553I176776J-176776D01*
G01*
X-1272792Y-18742463D01*
G75*
G02*
X-1272792Y-19096015I-176776J-176776D01*
G01*
X-1661702Y-19484925D01*
G75*
G02*
X-2015254Y-19484925I-176776J176776D01*
G01*
X-2404164Y-19096015D01*
G75*
G02*
X-2404164Y-18742463I176776J176776D01*
G01*
G37*
G36*
G01*
X1272792Y-16903985D02*
X1661702Y-16515075D01*
G75*
G02*
X2015254Y-16515075I176776J-176776D01*
G01*
X2404164Y-16903985D01*
G75*
G02*
X2404164Y-17257537I-176776J-176776D01*
G01*
X2015254Y-17646447D01*
G75*
G02*
X1661702Y-17646447I-176776J176776D01*
G01*
X1272792Y-17257537D01*
G75*
G02*
X1272792Y-16903985I176776J176776D01*
G01*
G37*
G36*
G01*
X353553Y-17823224D02*
X742463Y-17434314D01*
G75*
G02*
X1096015Y-17434314I176776J-176776D01*
G01*
X1484925Y-17823224D01*
G75*
G02*
X1484925Y-18176776I-176776J-176776D01*
G01*
X1096015Y-18565686D01*
G75*
G02*
X742463Y-18565686I-176776J176776D01*
G01*
X353553Y-18176776D01*
G75*
G02*
X353553Y-17823224I176776J176776D01*
G01*
G37*
G36*
G01*
X-565686Y-18742463D02*
X-176776Y-18353553D01*
G75*
G02*
X176776Y-18353553I176776J-176776D01*
G01*
X565686Y-18742463D01*
G75*
G02*
X565686Y-19096015I-176776J-176776D01*
G01*
X176776Y-19484925D01*
G75*
G02*
X-176776Y-19484925I-176776J176776D01*
G01*
X-565686Y-19096015D01*
G75*
G02*
X-565686Y-18742463I176776J176776D01*
G01*
G37*
G36*
G01*
X-1484925Y-19661702D02*
X-1096015Y-19272792D01*
G75*
G02*
X-742463Y-19272792I176776J-176776D01*
G01*
X-353553Y-19661702D01*
G75*
G02*
X-353553Y-20015254I-176776J-176776D01*
G01*
X-742463Y-20404164D01*
G75*
G02*
X-1096015Y-20404164I-176776J176776D01*
G01*
X-1484925Y-20015254D01*
G75*
G02*
X-1484925Y-19661702I176776J176776D01*
G01*
G37*
G36*
G01*
X2192030Y-17823224D02*
X2580940Y-17434314D01*
G75*
G02*
X2934492Y-17434314I176776J-176776D01*
G01*
X3323402Y-17823224D01*
G75*
G02*
X3323402Y-18176776I-176776J-176776D01*
G01*
X2934492Y-18565686D01*
G75*
G02*
X2580940Y-18565686I-176776J176776D01*
G01*
X2192030Y-18176776D01*
G75*
G02*
X2192030Y-17823224I176776J176776D01*
G01*
G37*
G36*
G01*
X1272792Y-18742463D02*
X1661702Y-18353553D01*
G75*
G02*
X2015254Y-18353553I176776J-176776D01*
G01*
X2404164Y-18742463D01*
G75*
G02*
X2404164Y-19096015I-176776J-176776D01*
G01*
X2015254Y-19484925D01*
G75*
G02*
X1661702Y-19484925I-176776J176776D01*
G01*
X1272792Y-19096015D01*
G75*
G02*
X1272792Y-18742463I176776J176776D01*
G01*
G37*
G36*
G01*
X353553Y-19661702D02*
X742463Y-19272792D01*
G75*
G02*
X1096015Y-19272792I176776J-176776D01*
G01*
X1484925Y-19661702D01*
G75*
G02*
X1484925Y-20015254I-176776J-176776D01*
G01*
X1096015Y-20404164D01*
G75*
G02*
X742463Y-20404164I-176776J176776D01*
G01*
X353553Y-20015254D01*
G75*
G02*
X353553Y-19661702I176776J176776D01*
G01*
G37*
G36*
G01*
X-565686Y-20580940D02*
X-176776Y-20192030D01*
G75*
G02*
X176776Y-20192030I176776J-176776D01*
G01*
X565686Y-20580940D01*
G75*
G02*
X565686Y-20934492I-176776J-176776D01*
G01*
X176776Y-21323402D01*
G75*
G02*
X-176776Y-21323402I-176776J176776D01*
G01*
X-565686Y-20934492D01*
G75*
G02*
X-565686Y-20580940I176776J176776D01*
G01*
G37*
%TD*%
%TO.C,R5*%
G36*
G01*
X-190000Y-26027500D02*
X-190000Y-26372500D01*
G75*
G02*
X-337500Y-26520000I-147500J0D01*
G01*
X-632500Y-26520000D01*
G75*
G02*
X-780000Y-26372500I0J147500D01*
G01*
X-780000Y-26027500D01*
G75*
G02*
X-632500Y-25880000I147500J0D01*
G01*
X-337500Y-25880000D01*
G75*
G02*
X-190000Y-26027500I0J-147500D01*
G01*
G37*
G36*
G01*
X780000Y-26027500D02*
X780000Y-26372500D01*
G75*
G02*
X632500Y-26520000I-147500J0D01*
G01*
X337500Y-26520000D01*
G75*
G02*
X190000Y-26372500I0J147500D01*
G01*
X190000Y-26027500D01*
G75*
G02*
X337500Y-25880000I147500J0D01*
G01*
X632500Y-25880000D01*
G75*
G02*
X780000Y-26027500I0J-147500D01*
G01*
G37*
%TD*%
%TO.C,R4*%
G36*
G01*
X-5577500Y2690000D02*
X-5922500Y2690000D01*
G75*
G02*
X-6070000Y2837500I0J147500D01*
G01*
X-6070000Y3132500D01*
G75*
G02*
X-5922500Y3280000I147500J0D01*
G01*
X-5577500Y3280000D01*
G75*
G02*
X-5430000Y3132500I0J-147500D01*
G01*
X-5430000Y2837500D01*
G75*
G02*
X-5577500Y2690000I-147500J0D01*
G01*
G37*
G36*
G01*
X-5577500Y1720000D02*
X-5922500Y1720000D01*
G75*
G02*
X-6070000Y1867500I0J147500D01*
G01*
X-6070000Y2162500D01*
G75*
G02*
X-5922500Y2310000I147500J0D01*
G01*
X-5577500Y2310000D01*
G75*
G02*
X-5430000Y2162500I0J-147500D01*
G01*
X-5430000Y1867500D01*
G75*
G02*
X-5577500Y1720000I-147500J0D01*
G01*
G37*
%TD*%
%TO.C,R3*%
G36*
G01*
X5922500Y2690000D02*
X5577500Y2690000D01*
G75*
G02*
X5430000Y2837500I0J147500D01*
G01*
X5430000Y3132500D01*
G75*
G02*
X5577500Y3280000I147500J0D01*
G01*
X5922500Y3280000D01*
G75*
G02*
X6070000Y3132500I0J-147500D01*
G01*
X6070000Y2837500D01*
G75*
G02*
X5922500Y2690000I-147500J0D01*
G01*
G37*
G36*
G01*
X5922500Y1720000D02*
X5577500Y1720000D01*
G75*
G02*
X5430000Y1867500I0J147500D01*
G01*
X5430000Y2162500D01*
G75*
G02*
X5577500Y2310000I147500J0D01*
G01*
X5922500Y2310000D01*
G75*
G02*
X6070000Y2162500I0J-147500D01*
G01*
X6070000Y1867500D01*
G75*
G02*
X5922500Y1720000I-147500J0D01*
G01*
G37*
%TD*%
%TO.C,D4*%
G36*
G01*
X350000Y-25056250D02*
X350000Y-24543750D01*
G75*
G02*
X568750Y-24325000I218750J0D01*
G01*
X1006250Y-24325000D01*
G75*
G02*
X1225000Y-24543750I0J-218750D01*
G01*
X1225000Y-25056250D01*
G75*
G02*
X1006250Y-25275000I-218750J0D01*
G01*
X568750Y-25275000D01*
G75*
G02*
X350000Y-25056250I0J218750D01*
G01*
G37*
G36*
G01*
X-1225000Y-25056250D02*
X-1225000Y-24543750D01*
G75*
G02*
X-1006250Y-24325000I218750J0D01*
G01*
X-568750Y-24325000D01*
G75*
G02*
X-350000Y-24543750I0J-218750D01*
G01*
X-350000Y-25056250D01*
G75*
G02*
X-568750Y-25275000I-218750J0D01*
G01*
X-1006250Y-25275000D01*
G75*
G02*
X-1225000Y-25056250I0J218750D01*
G01*
G37*
%TD*%
%TO.C,D3*%
G36*
G01*
X-8100000Y2506250D02*
X-8100000Y1993750D01*
G75*
G02*
X-8318750Y1775000I-218750J0D01*
G01*
X-8756250Y1775000D01*
G75*
G02*
X-8975000Y1993750I0J218750D01*
G01*
X-8975000Y2506250D01*
G75*
G02*
X-8756250Y2725000I218750J0D01*
G01*
X-8318750Y2725000D01*
G75*
G02*
X-8100000Y2506250I0J-218750D01*
G01*
G37*
G36*
G01*
X-6525000Y2506250D02*
X-6525000Y1993750D01*
G75*
G02*
X-6743750Y1775000I-218750J0D01*
G01*
X-7181250Y1775000D01*
G75*
G02*
X-7400000Y1993750I0J218750D01*
G01*
X-7400000Y2506250D01*
G75*
G02*
X-7181250Y2725000I218750J0D01*
G01*
X-6743750Y2725000D01*
G75*
G02*
X-6525000Y2506250I0J-218750D01*
G01*
G37*
%TD*%
%TO.C,D2*%
G36*
G01*
X6525000Y1993750D02*
X6525000Y2506250D01*
G75*
G02*
X6743750Y2725000I218750J0D01*
G01*
X7181250Y2725000D01*
G75*
G02*
X7400000Y2506250I0J-218750D01*
G01*
X7400000Y1993750D01*
G75*
G02*
X7181250Y1775000I-218750J0D01*
G01*
X6743750Y1775000D01*
G75*
G02*
X6525000Y1993750I0J218750D01*
G01*
G37*
G36*
G01*
X8100000Y1993750D02*
X8100000Y2506250D01*
G75*
G02*
X8318750Y2725000I218750J0D01*
G01*
X8756250Y2725000D01*
G75*
G02*
X8975000Y2506250I0J-218750D01*
G01*
X8975000Y1993750D01*
G75*
G02*
X8756250Y1775000I-218750J0D01*
G01*
X8318750Y1775000D01*
G75*
G02*
X8100000Y1993750I0J218750D01*
G01*
G37*
%TD*%
D10*
%TO.C,U2*%
X-4100000Y-6450000D03*
X-4100000Y-4550000D03*
X-1900000Y-4550000D03*
X-1900000Y-5500000D03*
X-1900000Y-6450000D03*
%TD*%
D11*
%TO.C,D1*%
X0Y-4450000D03*
X0Y-6550000D03*
%TD*%
%TO.C,C3*%
G36*
G01*
X-4327500Y-8310000D02*
X-4672500Y-8310000D01*
G75*
G02*
X-4820000Y-8162500I0J147500D01*
G01*
X-4820000Y-7867500D01*
G75*
G02*
X-4672500Y-7720000I147500J0D01*
G01*
X-4327500Y-7720000D01*
G75*
G02*
X-4180000Y-7867500I0J-147500D01*
G01*
X-4180000Y-8162500D01*
G75*
G02*
X-4327500Y-8310000I-147500J0D01*
G01*
G37*
G36*
G01*
X-4327500Y-9280000D02*
X-4672500Y-9280000D01*
G75*
G02*
X-4820000Y-9132500I0J147500D01*
G01*
X-4820000Y-8837500D01*
G75*
G02*
X-4672500Y-8690000I147500J0D01*
G01*
X-4327500Y-8690000D01*
G75*
G02*
X-4180000Y-8837500I0J-147500D01*
G01*
X-4180000Y-9132500D01*
G75*
G02*
X-4327500Y-9280000I-147500J0D01*
G01*
G37*
%TD*%
%TO.C,C1*%
G36*
G01*
X-1327500Y-8310000D02*
X-1672500Y-8310000D01*
G75*
G02*
X-1820000Y-8162500I0J147500D01*
G01*
X-1820000Y-7867500D01*
G75*
G02*
X-1672500Y-7720000I147500J0D01*
G01*
X-1327500Y-7720000D01*
G75*
G02*
X-1180000Y-7867500I0J-147500D01*
G01*
X-1180000Y-8162500D01*
G75*
G02*
X-1327500Y-8310000I-147500J0D01*
G01*
G37*
G36*
G01*
X-1327500Y-9280000D02*
X-1672500Y-9280000D01*
G75*
G02*
X-1820000Y-9132500I0J147500D01*
G01*
X-1820000Y-8837500D01*
G75*
G02*
X-1672500Y-8690000I147500J0D01*
G01*
X-1327500Y-8690000D01*
G75*
G02*
X-1180000Y-8837500I0J-147500D01*
G01*
X-1180000Y-9132500D01*
G75*
G02*
X-1327500Y-9280000I-147500J0D01*
G01*
G37*
%TD*%
%TO.C,R2*%
G36*
G01*
X1672500Y-4810000D02*
X1327500Y-4810000D01*
G75*
G02*
X1180000Y-4662500I0J147500D01*
G01*
X1180000Y-4367500D01*
G75*
G02*
X1327500Y-4220000I147500J0D01*
G01*
X1672500Y-4220000D01*
G75*
G02*
X1820000Y-4367500I0J-147500D01*
G01*
X1820000Y-4662500D01*
G75*
G02*
X1672500Y-4810000I-147500J0D01*
G01*
G37*
G36*
G01*
X1672500Y-5780000D02*
X1327500Y-5780000D01*
G75*
G02*
X1180000Y-5632500I0J147500D01*
G01*
X1180000Y-5337500D01*
G75*
G02*
X1327500Y-5190000I147500J0D01*
G01*
X1672500Y-5190000D01*
G75*
G02*
X1820000Y-5337500I0J-147500D01*
G01*
X1820000Y-5632500D01*
G75*
G02*
X1672500Y-5780000I-147500J0D01*
G01*
G37*
%TD*%
%TO.C,R1*%
G36*
G01*
X2672500Y-4810000D02*
X2327500Y-4810000D01*
G75*
G02*
X2180000Y-4662500I0J147500D01*
G01*
X2180000Y-4367500D01*
G75*
G02*
X2327500Y-4220000I147500J0D01*
G01*
X2672500Y-4220000D01*
G75*
G02*
X2820000Y-4367500I0J-147500D01*
G01*
X2820000Y-4662500D01*
G75*
G02*
X2672500Y-4810000I-147500J0D01*
G01*
G37*
G36*
G01*
X2672500Y-5780000D02*
X2327500Y-5780000D01*
G75*
G02*
X2180000Y-5632500I0J147500D01*
G01*
X2180000Y-5337500D01*
G75*
G02*
X2327500Y-5190000I147500J0D01*
G01*
X2672500Y-5190000D01*
G75*
G02*
X2820000Y-5337500I0J-147500D01*
G01*
X2820000Y-5632500D01*
G75*
G02*
X2672500Y-5780000I-147500J0D01*
G01*
G37*
%TD*%
%TO.C,C2*%
G36*
G01*
X-3487625Y-14506326D02*
X-3243673Y-14262375D01*
G75*
G02*
X-3035077Y-14262375I104298J-104298D01*
G01*
X-2826481Y-14470971D01*
G75*
G02*
X-2826481Y-14679567I-104298J-104298D01*
G01*
X-3070433Y-14923519D01*
G75*
G02*
X-3279029Y-14923519I-104298J104298D01*
G01*
X-3487625Y-14714923D01*
G75*
G02*
X-3487625Y-14506327I104298J104298D01*
G01*
G37*
G36*
G01*
X-4173519Y-13820432D02*
X-3929567Y-13576481D01*
G75*
G02*
X-3720971Y-13576481I104298J-104298D01*
G01*
X-3512375Y-13785077D01*
G75*
G02*
X-3512375Y-13993673I-104298J-104298D01*
G01*
X-3756327Y-14237625D01*
G75*
G02*
X-3964923Y-14237625I-104298J104298D01*
G01*
X-4173519Y-14029029D01*
G75*
G02*
X-4173519Y-13820433I104298J104298D01*
G01*
G37*
%TD*%
D12*
%TO.C,J1*%
X750000Y-2510000D03*
X250000Y-2510000D03*
X-250000Y-2510000D03*
X1750000Y-2510000D03*
X1250000Y-2510000D03*
X-1250000Y-2510000D03*
X-750000Y-2510000D03*
X-1750000Y-2510000D03*
D13*
X2400000Y-2510000D03*
X2400000Y-2510000D03*
X3200000Y-2510000D03*
X3200000Y-2510000D03*
X-2400000Y-2510000D03*
X-3200000Y-2510000D03*
X-2400000Y-2510000D03*
X-3200000Y-2510000D03*
%TD*%
M02*
