M48
; DRILL file {KiCad 5.1.6-c6e7f7d~87~ubuntu18.04.1} date Wed Aug 19 11:44:13 2020
; FORMAT={-:-/ absolute / inch / decimal}
; #@! TF.CreationDate,2020-08-19T11:44:13-04:00
; #@! TF.GenerationSoftware,Kicad,Pcbnew,5.1.6-c6e7f7d~87~ubuntu18.04.1
; #@! TF.FileFunction,Plated,1,2,PTH
FMAT,2
INCH
T1C0.0157
T2C0.0197
T3C0.0236
T4C0.0394
%
G90
G05
T1
X-0.2953Y0.1378
X-0.2559Y-0.8465
X-0.2551Y-0.7634
X-0.2244Y-0.815
X-0.2165Y-0.2165
X-0.1772Y-1.437
X-0.1772Y-1.5551
X-0.1772Y-1.6929
X-0.1378Y-0.4134
X-0.1378Y-1.0433
X-0.1366Y-0.513
X-0.122Y-0.2165
X-0.1181Y0.0984
X-0.1181Y0.0
X-0.0984Y-1.3386
X-0.0984Y-1.437
X-0.0984Y-1.5551
X-0.0984Y-1.6929
X-0.0846Y-1.1024
X-0.0604Y-0.5157
X-0.0557Y-0.7087
X-0.0394Y0.0984
X-0.0394Y0.0
X-0.0212Y-0.5117
X-0.0197Y-0.4134
X-0.0197Y-1.3386
X-0.0197Y-1.437
X-0.0197Y-1.5551
X-0.0197Y-1.6929
X0.0Y-0.2205
X0.0Y-0.6496
X0.0Y-0.7087
X0.0Y-0.7677
X0.0335Y-0.4075
X0.0394Y0.0984
X0.0394Y0.0
X0.0591Y-0.7087
X0.0591Y-1.0827
X0.0591Y-1.3386
X0.0591Y-1.437
X0.0591Y-1.5551
X0.0591Y-1.6929
X0.0675Y-0.9
X0.1181Y0.0984
X0.1181Y0.0
X0.1378Y-0.9843
X0.1378Y-1.0827
X0.1378Y-1.3386
X0.1378Y-1.437
X0.1378Y-1.5551
X0.1378Y-1.6929
X0.1575Y-0.4134
X0.172Y-0.4829
X0.252Y-0.6378
X0.2953Y0.1378
T2
X0.1575Y-0.1969
X-0.1181Y-0.3346
X0.0Y-0.3346
T4
X0.3Y0.0
X0.3Y-0.1
X0.3Y-0.2
X0.3Y-0.3
X0.3Y-0.4
X0.3Y-0.5
X0.3Y-0.6
X0.3Y-0.7
X0.3Y-0.8
X0.3Y-0.9
X0.3Y-1.0
X0.3Y-1.1
X0.3Y-1.2
X0.3Y-1.3
X0.3Y-1.4
X0.3Y-1.5
X0.3Y-1.6
X0.3Y-1.7
X-0.1024Y-1.1677
X-0.1024Y-1.2677
X-0.0024Y-1.1677
X-0.0024Y-1.2677
X0.0976Y-1.1677
X0.0976Y-1.2677
X-0.3Y0.0
X-0.3Y-0.1
X-0.3Y-0.2
X-0.3Y-0.3
X-0.3Y-0.4
X-0.3Y-0.5
X-0.3Y-0.6
X-0.3Y-0.7
X-0.3Y-0.8
X-0.3Y-0.9
X-0.3Y-1.0
X-0.3Y-1.1
X-0.3Y-1.2
X-0.3Y-1.3
X-0.3Y-1.4
X-0.3Y-1.5
X-0.3Y-1.6
X-0.3Y-1.7
T3
G00X-0.1701Y0.1039
M15
G01X-0.1701Y0.0724
M16
G05
G00X-0.1701Y-0.0543
M15
G01X-0.1701Y-0.0976
M16
G05
G00X0.1701Y0.1039
M15
G01X0.1701Y0.0724
M16
G05
G00X0.1701Y-0.0543
M15
G01X0.1701Y-0.0976
M16
G05
T0
M30
