%TF.GenerationSoftware,KiCad,Pcbnew,5.1.6-c6e7f7d~87~ubuntu18.04.1*%
%TF.CreationDate,2020-08-19T11:44:15-04:00*%
%TF.ProjectId,atmegaXu4_breakout,61746d65-6761-4587-9534-5f627265616b,rev?*%
%TF.SameCoordinates,Original*%
%TF.FileFunction,Legend,Bot*%
%TF.FilePolarity,Positive*%
%FSLAX46Y46*%
G04 Gerber Fmt 4.6, Leading zero omitted, Abs format (unit mm)*
G04 Created by KiCad (PCBNEW 5.1.6-c6e7f7d~87~ubuntu18.04.1) date 2020-08-19 11:44:15*
%MOMM*%
%LPD*%
G01*
G04 APERTURE LIST*
%ADD10C,0.150000*%
%ADD11C,0.120000*%
G04 APERTURE END LIST*
D10*
X-4372619Y-13304776D02*
X-4896428Y-13370252D01*
X-4991666Y-13334538D01*
X-5039285Y-13245252D01*
X-5039285Y-13054776D01*
X-4991666Y-12953586D01*
X-4420238Y-13310729D02*
X-4372619Y-13209538D01*
X-4372619Y-12971443D01*
X-4420238Y-12882157D01*
X-4515476Y-12846443D01*
X-4610714Y-12858348D01*
X-4705952Y-12917872D01*
X-4753571Y-13019062D01*
X-4753571Y-13257157D01*
X-4801190Y-13358348D01*
X-5039285Y-13721443D02*
X-5039285Y-14102395D01*
X-5372619Y-13905967D02*
X-4515476Y-13798824D01*
X-4420238Y-13834538D01*
X-4372619Y-13923824D01*
X-4372619Y-14019062D01*
X-4372619Y-14352395D02*
X-5039285Y-14435729D01*
X-4944047Y-14423824D02*
X-4991666Y-14477395D01*
X-5039285Y-14578586D01*
X-5039285Y-14721443D01*
X-4991666Y-14810729D01*
X-4896428Y-14846443D01*
X-4372619Y-14780967D01*
X-4896428Y-14846443D02*
X-4991666Y-14905967D01*
X-5039285Y-15007157D01*
X-5039285Y-15150014D01*
X-4991666Y-15239300D01*
X-4896428Y-15275014D01*
X-4372619Y-15209538D01*
X-4420238Y-16072633D02*
X-4372619Y-15971443D01*
X-4372619Y-15780967D01*
X-4420238Y-15691681D01*
X-4515476Y-15655967D01*
X-4896428Y-15703586D01*
X-4991666Y-15763110D01*
X-5039285Y-15864300D01*
X-5039285Y-16054776D01*
X-4991666Y-16144062D01*
X-4896428Y-16179776D01*
X-4801190Y-16167872D01*
X-4705952Y-15679776D01*
X-5039285Y-17054776D02*
X-4229761Y-16953586D01*
X-4134523Y-16894062D01*
X-4086904Y-16840491D01*
X-4039285Y-16739300D01*
X-4039285Y-16596443D01*
X-4086904Y-16507157D01*
X-4420238Y-16977395D02*
X-4372619Y-16876205D01*
X-4372619Y-16685729D01*
X-4420238Y-16596443D01*
X-4467857Y-16554776D01*
X-4563095Y-16519062D01*
X-4848809Y-16554776D01*
X-4944047Y-16614300D01*
X-4991666Y-16667872D01*
X-5039285Y-16769062D01*
X-5039285Y-16959538D01*
X-4991666Y-17048824D01*
X-4372619Y-17876205D02*
X-4896428Y-17941681D01*
X-4991666Y-17905967D01*
X-5039285Y-17816681D01*
X-5039285Y-17626205D01*
X-4991666Y-17525014D01*
X-4420238Y-17882157D02*
X-4372619Y-17780967D01*
X-4372619Y-17542872D01*
X-4420238Y-17453586D01*
X-4515476Y-17417872D01*
X-4610714Y-17429776D01*
X-4705952Y-17489300D01*
X-4753571Y-17590491D01*
X-4753571Y-17828586D01*
X-4801190Y-17929776D01*
X-5372619Y-18382157D02*
X-4372619Y-18923824D01*
X-5372619Y-19048824D02*
X-4372619Y-18257157D01*
X-5039285Y-19816681D02*
X-4372619Y-19733348D01*
X-5039285Y-19388110D02*
X-4515476Y-19322633D01*
X-4420238Y-19358348D01*
X-4372619Y-19447633D01*
X-4372619Y-19590491D01*
X-4420238Y-19691681D01*
X-4467857Y-19745252D01*
X-5039285Y-20721443D02*
X-4372619Y-20638110D01*
X-5420238Y-20530967D02*
X-4705952Y-20203586D01*
X-4705952Y-20822633D01*
X-4277380Y-20911919D02*
X-4277380Y-21673824D01*
X-4372619Y-21923824D02*
X-5372619Y-22048824D01*
X-4991666Y-22001205D02*
X-5039285Y-22102395D01*
X-5039285Y-22292872D01*
X-4991666Y-22382157D01*
X-4944047Y-22423824D01*
X-4848809Y-22459538D01*
X-4563095Y-22423824D01*
X-4467857Y-22364300D01*
X-4420238Y-22310729D01*
X-4372619Y-22209538D01*
X-4372619Y-22019062D01*
X-4420238Y-21929776D01*
X-4372619Y-22828586D02*
X-5039285Y-22911919D01*
X-4848809Y-22888110D02*
X-4944047Y-22947633D01*
X-4991666Y-23001205D01*
X-5039285Y-23102395D01*
X-5039285Y-23197633D01*
X-4420238Y-23834538D02*
X-4372619Y-23733348D01*
X-4372619Y-23542872D01*
X-4420238Y-23453586D01*
X-4515476Y-23417872D01*
X-4896428Y-23465491D01*
X-4991666Y-23525014D01*
X-5039285Y-23626205D01*
X-5039285Y-23816681D01*
X-4991666Y-23905967D01*
X-4896428Y-23941681D01*
X-4801190Y-23929776D01*
X-4705952Y-23441681D01*
X-4372619Y-24733348D02*
X-4896428Y-24798824D01*
X-4991666Y-24763110D01*
X-5039285Y-24673824D01*
X-5039285Y-24483348D01*
X-4991666Y-24382157D01*
X-4420238Y-24739300D02*
X-4372619Y-24638110D01*
X-4372619Y-24400014D01*
X-4420238Y-24310729D01*
X-4515476Y-24275014D01*
X-4610714Y-24286919D01*
X-4705952Y-24346443D01*
X-4753571Y-24447633D01*
X-4753571Y-24685729D01*
X-4801190Y-24786919D01*
X-4372619Y-25209538D02*
X-5372619Y-25334538D01*
X-4753571Y-25352395D02*
X-4372619Y-25590491D01*
X-5039285Y-25673824D02*
X-4658333Y-25245252D01*
X-4372619Y-26161919D02*
X-4420238Y-26072633D01*
X-4467857Y-26030967D01*
X-4563095Y-25995252D01*
X-4848809Y-26030967D01*
X-4944047Y-26090491D01*
X-4991666Y-26144062D01*
X-5039285Y-26245252D01*
X-5039285Y-26388110D01*
X-4991666Y-26477395D01*
X-4944047Y-26519062D01*
X-4848809Y-26554776D01*
X-4563095Y-26519062D01*
X-4467857Y-26459538D01*
X-4420238Y-26405967D01*
X-4372619Y-26304776D01*
X-4372619Y-26161919D01*
X-5039285Y-27435729D02*
X-4372619Y-27352395D01*
X-5039285Y-27007157D02*
X-4515476Y-26941681D01*
X-4420238Y-26977395D01*
X-4372619Y-27066681D01*
X-4372619Y-27209538D01*
X-4420238Y-27310729D01*
X-4467857Y-27364300D01*
X-5039285Y-27769062D02*
X-5039285Y-28150014D01*
X-5372619Y-27953586D02*
X-4515476Y-27846443D01*
X-4420238Y-27882157D01*
X-4372619Y-27971443D01*
X-4372619Y-28066681D01*
X-2817857Y-17150014D02*
X-2770238Y-17096443D01*
X-2722619Y-16947633D01*
X-2722619Y-16852395D01*
X-2770238Y-16715491D01*
X-2865476Y-16632157D01*
X-2960714Y-16596443D01*
X-3151190Y-16572633D01*
X-3294047Y-16590491D01*
X-3484523Y-16661919D01*
X-3579761Y-16721443D01*
X-3675000Y-16828586D01*
X-3722619Y-16977395D01*
X-3722619Y-17072633D01*
X-3675000Y-17209538D01*
X-3627380Y-17251205D01*
X-2817857Y-18150014D02*
X-2770238Y-18096443D01*
X-2722619Y-17947633D01*
X-2722619Y-17852395D01*
X-2770238Y-17715491D01*
X-2865476Y-17632157D01*
X-2960714Y-17596443D01*
X-3151190Y-17572633D01*
X-3294047Y-17590491D01*
X-3484523Y-17661919D01*
X-3579761Y-17721443D01*
X-3675000Y-17828586D01*
X-3722619Y-17977395D01*
X-3722619Y-18072633D01*
X-3675000Y-18209538D01*
X-3627380Y-18251205D01*
X-3103571Y-18614300D02*
X-3103571Y-19376205D01*
X-3246428Y-20203586D02*
X-3198809Y-20340491D01*
X-3151190Y-20382157D01*
X-3055952Y-20417872D01*
X-2913095Y-20400014D01*
X-2817857Y-20340491D01*
X-2770238Y-20286919D01*
X-2722619Y-20185729D01*
X-2722619Y-19804776D01*
X-3722619Y-19929776D01*
X-3722619Y-20263110D01*
X-3675000Y-20352395D01*
X-3627380Y-20394062D01*
X-3532142Y-20429776D01*
X-3436904Y-20417872D01*
X-3341666Y-20358348D01*
X-3294047Y-20304776D01*
X-3246428Y-20203586D01*
X-3246428Y-19870252D01*
X-3198809Y-21054776D02*
X-2722619Y-20995252D01*
X-3722619Y-20786919D02*
X-3198809Y-21054776D01*
X-3722619Y-21453586D01*
X-3103571Y-21709538D02*
X-3103571Y-22471443D01*
X-2770238Y-22858348D02*
X-2722619Y-22995252D01*
X-2722619Y-23233348D01*
X-2770238Y-23334538D01*
X-2817857Y-23388110D01*
X-2913095Y-23447633D01*
X-3008333Y-23459538D01*
X-3103571Y-23423824D01*
X-3151190Y-23382157D01*
X-3198809Y-23292872D01*
X-3246428Y-23108348D01*
X-3294047Y-23019062D01*
X-3341666Y-22977395D01*
X-3436904Y-22941681D01*
X-3532142Y-22953586D01*
X-3627380Y-23013110D01*
X-3675000Y-23066681D01*
X-3722619Y-23167872D01*
X-3722619Y-23405967D01*
X-3675000Y-23542872D01*
X-3008333Y-23840491D02*
X-3008333Y-24316681D01*
X-2722619Y-23709538D02*
X-3722619Y-24167872D01*
X-2722619Y-24376205D01*
X4285714Y-9983348D02*
X5095238Y-9882157D01*
X5190476Y-9822633D01*
X5238095Y-9769062D01*
X5285714Y-9667872D01*
X5285714Y-9525014D01*
X5238095Y-9435729D01*
X4904761Y-9905967D02*
X4952380Y-9804776D01*
X4952380Y-9614300D01*
X4904761Y-9525014D01*
X4857142Y-9483348D01*
X4761904Y-9447633D01*
X4476190Y-9483348D01*
X4380952Y-9542872D01*
X4333333Y-9596443D01*
X4285714Y-9697633D01*
X4285714Y-9888110D01*
X4333333Y-9977395D01*
X4952380Y-10376205D02*
X4285714Y-10459538D01*
X3952380Y-10501205D02*
X4000000Y-10447633D01*
X4047619Y-10489300D01*
X4000000Y-10542872D01*
X3952380Y-10501205D01*
X4047619Y-10489300D01*
X4285714Y-10792872D02*
X4285714Y-11173824D01*
X3952380Y-10977395D02*
X4809523Y-10870252D01*
X4904761Y-10905967D01*
X4952380Y-10995252D01*
X4952380Y-11090491D01*
X4952380Y-11423824D02*
X3952380Y-11548824D01*
X4952380Y-11852395D02*
X4428571Y-11917872D01*
X4333333Y-11882157D01*
X4285714Y-11792872D01*
X4285714Y-11650014D01*
X4333333Y-11548824D01*
X4380952Y-11495252D01*
X4285714Y-12840491D02*
X4952380Y-12757157D01*
X4285714Y-12411919D02*
X4809523Y-12346443D01*
X4904761Y-12382157D01*
X4952380Y-12471443D01*
X4952380Y-12614300D01*
X4904761Y-12715491D01*
X4857142Y-12769062D01*
X4952380Y-13233348D02*
X3952380Y-13358348D01*
X4333333Y-13310729D02*
X4285714Y-13411919D01*
X4285714Y-13602395D01*
X4333333Y-13691681D01*
X4380952Y-13733348D01*
X4476190Y-13769062D01*
X4761904Y-13733348D01*
X4857142Y-13673824D01*
X4904761Y-13620252D01*
X4952380Y-13519062D01*
X4952380Y-13328586D01*
X4904761Y-13239300D01*
X4857142Y-14150014D02*
X4904761Y-14191681D01*
X4952380Y-14138110D01*
X4904761Y-14096443D01*
X4857142Y-14150014D01*
X4952380Y-14138110D01*
X4904761Y-15048824D02*
X4952380Y-14947633D01*
X4952380Y-14757157D01*
X4904761Y-14667872D01*
X4857142Y-14626205D01*
X4761904Y-14590491D01*
X4476190Y-14626205D01*
X4380952Y-14685729D01*
X4333333Y-14739300D01*
X4285714Y-14840491D01*
X4285714Y-15030967D01*
X4333333Y-15120252D01*
X4952380Y-15614300D02*
X4904761Y-15525014D01*
X4857142Y-15483348D01*
X4761904Y-15447633D01*
X4476190Y-15483348D01*
X4380952Y-15542872D01*
X4333333Y-15596443D01*
X4285714Y-15697633D01*
X4285714Y-15840491D01*
X4333333Y-15929776D01*
X4380952Y-15971443D01*
X4476190Y-16007157D01*
X4761904Y-15971443D01*
X4857142Y-15911919D01*
X4904761Y-15858348D01*
X4952380Y-15757157D01*
X4952380Y-15614300D01*
X4952380Y-16376205D02*
X4285714Y-16459538D01*
X4380952Y-16447633D02*
X4333333Y-16501205D01*
X4285714Y-16602395D01*
X4285714Y-16745252D01*
X4333333Y-16834538D01*
X4428571Y-16870252D01*
X4952380Y-16804776D01*
X4428571Y-16870252D02*
X4333333Y-16929776D01*
X4285714Y-17030967D01*
X4285714Y-17173824D01*
X4333333Y-17263110D01*
X4428571Y-17298824D01*
X4952380Y-17233348D01*
X3904761Y-18554776D02*
X5190476Y-17536919D01*
X4904761Y-18715491D02*
X4952380Y-18804776D01*
X4952380Y-18995252D01*
X4904761Y-19096443D01*
X4809523Y-19155967D01*
X4761904Y-19161919D01*
X4666666Y-19126205D01*
X4619047Y-19036919D01*
X4619047Y-18894062D01*
X4571428Y-18804776D01*
X4476190Y-18769062D01*
X4428571Y-18775014D01*
X4333333Y-18834538D01*
X4285714Y-18935729D01*
X4285714Y-19078586D01*
X4333333Y-19167872D01*
X4285714Y-19507157D02*
X4285714Y-19888110D01*
X3952380Y-19691681D02*
X4809523Y-19584538D01*
X4904761Y-19620252D01*
X4952380Y-19709538D01*
X4952380Y-19804776D01*
X4904761Y-20525014D02*
X4952380Y-20423824D01*
X4952380Y-20233348D01*
X4904761Y-20144062D01*
X4809523Y-20108348D01*
X4428571Y-20155967D01*
X4333333Y-20215491D01*
X4285714Y-20316681D01*
X4285714Y-20507157D01*
X4333333Y-20596443D01*
X4428571Y-20632157D01*
X4523809Y-20620252D01*
X4619047Y-20132157D01*
X4285714Y-21078586D02*
X5285714Y-20953586D01*
X4333333Y-21072633D02*
X4285714Y-21173824D01*
X4285714Y-21364300D01*
X4333333Y-21453586D01*
X4380952Y-21495252D01*
X4476190Y-21530967D01*
X4761904Y-21495252D01*
X4857142Y-21435729D01*
X4904761Y-21382157D01*
X4952380Y-21280967D01*
X4952380Y-21090491D01*
X4904761Y-21001205D01*
X4952380Y-21900014D02*
X3952380Y-22025014D01*
X4952380Y-22328586D02*
X4428571Y-22394062D01*
X4333333Y-22358348D01*
X4285714Y-22269062D01*
X4285714Y-22126205D01*
X4333333Y-22025014D01*
X4380952Y-21971443D01*
X4904761Y-23191681D02*
X4952380Y-23090491D01*
X4952380Y-22900014D01*
X4904761Y-22810729D01*
X4809523Y-22775014D01*
X4428571Y-22822633D01*
X4333333Y-22882157D01*
X4285714Y-22983348D01*
X4285714Y-23173824D01*
X4333333Y-23263110D01*
X4428571Y-23298824D01*
X4523809Y-23286919D01*
X4619047Y-22798824D01*
X4285714Y-23745252D02*
X4952380Y-23661919D01*
X4380952Y-23733348D02*
X4333333Y-23786919D01*
X4285714Y-23888110D01*
X4285714Y-24030967D01*
X4333333Y-24120252D01*
X4428571Y-24155967D01*
X4952380Y-24090491D01*
X4952380Y-24995252D02*
X3952380Y-25120252D01*
X4904761Y-25001205D02*
X4952380Y-24900014D01*
X4952380Y-24709538D01*
X4904761Y-24620252D01*
X4857142Y-24578586D01*
X4761904Y-24542872D01*
X4476190Y-24578586D01*
X4380952Y-24638110D01*
X4333333Y-24691681D01*
X4285714Y-24792872D01*
X4285714Y-24983348D01*
X4333333Y-25072633D01*
X4285714Y-25554776D02*
X5285714Y-25429776D01*
X4333333Y-25548824D02*
X4285714Y-25650014D01*
X4285714Y-25840491D01*
X4333333Y-25929776D01*
X4380952Y-25971443D01*
X4476190Y-26007157D01*
X4761904Y-25971443D01*
X4857142Y-25911919D01*
X4904761Y-25858348D01*
X4952380Y-25757157D01*
X4952380Y-25566681D01*
X4904761Y-25477395D01*
X4952380Y-26376205D02*
X4285714Y-26459538D01*
X4380952Y-26447633D02*
X4333333Y-26501205D01*
X4285714Y-26602395D01*
X4285714Y-26745252D01*
X4333333Y-26834538D01*
X4428571Y-26870252D01*
X4952380Y-26804776D01*
X4428571Y-26870252D02*
X4333333Y-26929776D01*
X4285714Y-27030967D01*
X4285714Y-27173824D01*
X4333333Y-27263110D01*
X4428571Y-27298824D01*
X4952380Y-27233348D01*
X4285714Y-28221443D02*
X4952380Y-28138110D01*
X4285714Y-27792872D02*
X4809523Y-27727395D01*
X4904761Y-27763110D01*
X4952380Y-27852395D01*
X4952380Y-27995252D01*
X4904761Y-28096443D01*
X4857142Y-28150014D01*
X4952380Y-28614300D02*
X4285714Y-28697633D01*
X4476190Y-28673824D02*
X4380952Y-28733348D01*
X4333333Y-28786919D01*
X4285714Y-28888110D01*
X4285714Y-28983348D01*
X4285714Y-29316681D02*
X5285714Y-29191681D01*
X4333333Y-29310729D02*
X4285714Y-29411919D01*
X4285714Y-29602395D01*
X4333333Y-29691681D01*
X4380952Y-29733348D01*
X4476190Y-29769062D01*
X4761904Y-29733348D01*
X4857142Y-29673824D01*
X4904761Y-29620252D01*
X4952380Y-29519062D01*
X4952380Y-29328586D01*
X4904761Y-29239300D01*
X4952380Y-30138110D02*
X3952380Y-30263110D01*
X4952380Y-30566681D02*
X4428571Y-30632157D01*
X4333333Y-30596443D01*
X4285714Y-30507157D01*
X4285714Y-30364300D01*
X4333333Y-30263110D01*
X4380952Y-30209538D01*
X4285714Y-31030967D02*
X4952380Y-31185729D01*
X4285714Y-31507157D02*
X4952380Y-31185729D01*
X5190476Y-31060729D01*
X5238095Y-31007157D01*
X5285714Y-30905967D01*
D11*
%TO.C,J3*%
X8950000Y1330000D02*
X7620000Y1330000D01*
X8950000Y0D02*
X8950000Y1330000D01*
X8950000Y-1270000D02*
X6290000Y-1270000D01*
X6290000Y-1270000D02*
X6290000Y-44510000D01*
X8950000Y-1270000D02*
X8950000Y-44510000D01*
X8950000Y-44510000D02*
X6290000Y-44510000D01*
%TO.C,J2*%
X-6290000Y1330000D02*
X-7620000Y1330000D01*
X-6290000Y0D02*
X-6290000Y1330000D01*
X-6290000Y-1270000D02*
X-8950000Y-1270000D01*
X-8950000Y-1270000D02*
X-8950000Y-44510000D01*
X-6290000Y-1270000D02*
X-6290000Y-44510000D01*
X-6290000Y-44510000D02*
X-8950000Y-44510000D01*
%TD*%
M02*
